<?xml version="1.0" standalone="no"?>
<!DOCTYPE svg PUBLIC "-//W3C//DTD SVG 20010904//EN"
 "http://www.w3.org/TR/2001/REC-SVG-20010904/DTD/svg10.dtd">
<svg version="1.0" xmlns="http://www.w3.org/2000/svg"
 width="3800.000000pt" height="2037.000000pt" viewBox="0 0 3800.000000 2037.000000"
 preserveAspectRatio="xMidYMid meet">

<g transform="translate(0.000000,2037.000000) scale(0.100000,-0.100000)"
fill="#000000" stroke="none">
<path d="M15388 20283 l-3 -78 -3897 -3 -3898 -2 0 -670 0 -670 -1520 0 -1520
0 0 -8235 0 -8235 166 0 c157 0 166 -1 153 -17 -13 -16 -12 -17 3 -4 17 13 18
217 18 4042 l0 4029 1399 0 c1320 0 1399 1 1412 18 11 14 11 15 -1 5 -26 -23
-30 -14 -30 67 l0 80 -355 0 -355 0 0 775 0 775 -36 0 c-25 0 -33 4 -28 13 6
10 4 10 -7 0 -7 -7 -32 -13 -56 -13 l-43 0 0 -775 0 -775 -950 0 -950 0 0
1300 0 1300 950 0 950 0 0 -209 c0 -148 3 -212 12 -217 7 -4 8 -3 4 4 -5 9 15
12 73 12 l81 0 0 205 0 205 485 0 485 0 0 304 0 304 -77 4 c-43 2 -99 1 -125
0 l-48 -4 0 -134 0 -134 -1395 0 -1395 0 0 550 0 550 1395 0 1395 0 0 -104 c0
-69 4 -107 12 -112 7 -4 8 -3 4 4 -5 9 25 12 113 12 l121 0 2 1253 3 1252
1213 3 1212 2 0 46 c0 30 4 43 11 38 8 -5 8 -1 0 14 -6 11 -11 39 -11 61 l0
41 -1215 0 -1215 0 0 1350 0 1350 3065 0 3065 0 0 -1355 0 -1355 -1537 0
c-1080 0 -1540 -3 -1547 -10 -8 -8 -6 -9 7 -5 15 7 17 -1 17 -84 l0 -91 2314
0 2314 0 4 48 c1 26 2 68 0 95 l-3 47 -715 0 -714 0 0 1355 0 1355 745 0 745
0 0 100 0 100 1315 0 1315 0 0 -1450 0 -1450 -1029 0 c-966 0 -1030 -1 -1048
-17 -10 -10 -14 -15 -9 -10 22 16 26 3 26 -83 l0 -90 2294 0 2295 0 3 48 c2
26 1 71 0 100 l-4 52 -1189 0 -1189 0 0 1450 0 1450 2015 0 2015 0 0 -1450 0
-1450 -509 0 c-471 0 -510 -1 -528 -17 -10 -10 -14 -15 -9 -10 22 16 26 3 26
-83 l0 -90 1734 0 1734 0 4 53 c1 28 2 73 0 100 l-3 47 -1100 0 -1099 0 0
1350 0 1350 1780 0 1780 0 0 -1350 0 -1350 -363 0 c-200 0 -366 -2 -368 -4 -2
-2 -3 -47 -1 -100 l3 -96 1664 0 1663 0 3 43 c2 23 2 67 -1 97 l-5 55 -1227 3
-1228 2 0 1350 0 1350 1870 0 1870 0 0 -1350 0 -1350 -325 0 -325 0 0 -100 0
-100 325 0 325 0 0 -124 0 -125 38 -3 c20 -2 61 -1 90 0 l52 4 0 839 0 839
1365 0 1365 0 0 -1850 0 -1850 -1365 0 -1365 0 0 700 0 701 -41 54 c-23 30
-43 55 -46 55 -6 0 59 -90 69 -96 25 -16 -2 -24 -77 -24 l-85 0 0 -1405 0
-1405 350 0 350 0 0 36 c0 21 4 33 10 29 7 -4 7 3 0 20 -6 15 -10 42 -10 61
l0 34 -260 0 -260 0 0 515 0 515 1365 0 1365 0 0 -515 0 -515 -794 0 c-744 0
-794 -1 -807 -17 -11 -15 -11 -16 1 -5 26 23 30 12 30 -73 l0 -85 785 0 785 0
0 -710 0 -710 -1455 0 -1455 0 0 -1164 0 -1164 38 -4 c21 -1 61 -2 90 0 l52 4
0 1074 0 1074 1365 0 1365 0 0 -1800 0 -1800 -1365 0 -1365 0 0 414 c0 303 -3
417 -12 422 -7 4 -8 3 -4 -4 5 -9 -16 -12 -78 -12 l-86 0 0 -1885 0 -1885 41
0 c27 0 38 -4 33 -11 -5 -8 -1 -8 14 0 11 6 37 11 56 11 l36 0 0 120 0 120 29
0 c35 0 37 4 33 75 -4 53 -5 55 -33 55 l-29 0 0 1205 0 1205 1365 0 1365 0 0
-1205 0 -1205 -1023 0 -1024 0 -94 -71 c-52 -38 -98 -75 -104 -81 -11 -13 28
14 130 91 l70 53 3 -61 3 -61 64 0 65 0 0 -125 0 -125 40 0 40 0 0 125 0 125
915 0 915 0 0 -550 0 -550 -915 0 -915 0 0 115 0 115 -40 0 -40 0 0 -115 0
-115 -410 0 -410 0 0 113 0 112 -90 -3 -90 -3 0 -295 0 -294 36 0 c21 0 33 -4
29 -10 -4 -7 3 -7 20 0 15 6 42 10 61 10 l34 0 0 115 0 115 1365 0 1365 0 0
-1890 0 -1890 -1365 0 -1365 0 0 1464 c0 1382 -1 1464 -17 1477 -16 13 -17 12
-4 -3 13 -17 8 -18 -73 -18 l-86 0 0 -170 0 -170 -93 0 c-51 0 -97 -4 -102 -9
-6 -6 -8 -37 -7 -70 l4 -61 99 0 99 0 0 -1220 0 -1220 -510 0 -510 0 0 1220 0
1220 99 0 c65 0 102 4 107 12 4 7 3 8 -4 4 -9 -5 -12 11 -12 58 l0 66 -95 0
-95 0 -2 4658 -3 4657 -55 5 c-30 3 -108 4 -172 2 l-118 -3 0 -6115 0 -6114
2310 0 2310 0 0 9375 0 9375 -1535 0 -1535 0 0 720 0 720 -3780 0 -3780 0 0
80 0 80 -3710 0 -3709 0 -3 -77z m-7708 -3623 l0 -1870 -1395 0 -1395 0 0
1870 0 1870 1395 0 1395 0 0 -1870z"/>
<path d="M5800 16645 c0 -140 2 -165 15 -165 12 0 15 15 15 76 0 65 2 75 17
72 9 -2 34 -36 56 -76 27 -51 44 -72 58 -72 10 0 19 2 19 5 0 10 -52 109 -71
136 -19 27 -18 28 6 84 16 35 33 59 45 62 24 6 27 43 4 43 -31 0 -51 -20 -69
-67 -21 -57 -33 -73 -51 -73 -11 0 -14 17 -14 70 0 56 -3 70 -15 70 -13 0 -15
-25 -15 -165z"/>
<path d="M5994 16703 c4 -10 21 -64 38 -120 27 -85 30 -106 20 -127 -7 -16
-20 -26 -33 -26 -15 0 -19 -4 -15 -16 3 -9 6 -18 6 -20 0 -12 39 -2 52 14 9 9
35 78 58 152 22 74 43 141 45 148 3 6 -4 12 -14 12 -14 0 -23 -17 -41 -80 -13
-45 -26 -83 -30 -85 -4 -3 -18 34 -30 80 -19 70 -26 85 -42 85 -15 0 -18 -5
-14 -17z"/>
<path d="M6180 16715 c0 -3 13 -29 29 -57 l30 -52 -35 -63 c-34 -59 -35 -63
-15 -63 15 0 28 13 43 45 12 25 25 45 28 45 3 0 16 -20 28 -45 15 -32 28 -45
43 -45 19 0 19 4 -16 65 l-36 66 30 49 c36 59 37 60 13 60 -11 0 -25 -14 -35
-35 -9 -19 -20 -35 -25 -35 -5 0 -16 16 -25 35 -11 23 -24 35 -37 35 -11 0
-20 -2 -20 -5z"/>
<path d="M6380 16600 c0 -100 3 -120 15 -120 11 0 15 12 15 50 l0 50 45 0 45
0 0 -50 c0 -38 4 -50 15 -50 13 0 15 20 15 120 0 100 -2 120 -15 120 -11 0
-15 -12 -15 -50 l0 -50 -45 0 -45 0 0 50 c0 38 -4 50 -15 50 -12 0 -15 -20
-15 -120z"/>
<path d="M6595 16695 c-32 -31 -32 -66 0 -98 16 -16 22 -28 15 -32 -6 -3 -19
-24 -30 -46 -20 -39 -20 -39 -1 -39 13 0 29 16 47 45 19 34 32 45 50 45 22 0
24 -4 24 -45 0 -33 4 -45 15 -45 13 0 15 20 15 120 l0 120 -55 0 c-46 0 -60
-4 -80 -25z m105 -51 l0 -35 -42 3 c-32 2 -44 8 -46 21 -7 35 6 47 48 47 39 0
40 -1 40 -36z"/>
<path d="M16040 18965 c-7 -14 -24 -32 -37 -40 -14 -9 -23 -25 -23 -40 0 -29
7 -31 38 -9 l22 15 0 -110 0 -111 30 0 30 0 0 160 0 160 -23 0 c-15 0 -29 -9
-37 -25z"/>
<path d="M16206 18971 c-24 -26 -36 -76 -36 -151 0 -109 54 -180 115 -152 42
19 57 71 53 178 -3 81 -6 95 -27 118 -30 31 -80 35 -105 7z m74 -57 c6 -14 10
-52 10 -84 0 -32 -4 -70 -10 -84 -10 -26 -34 -35 -45 -16 -9 14 -9 161 -1 188
10 30 34 28 46 -4z"/>
<path d="M16407 18983 c-3 -5 -8 -35 -11 -68 -4 -33 -9 -68 -12 -77 -6 -20 33
-35 49 -19 16 16 54 13 61 -5 20 -53 -8 -113 -45 -94 -10 6 -19 17 -19 25 0
17 -18 19 -39 6 -12 -8 -13 -15 -3 -35 44 -96 165 -52 165 61 0 60 -28 97 -77
101 -29 3 -36 7 -32 18 3 9 6 20 6 25 0 5 20 9 45 9 43 0 45 1 45 30 l0 30
-64 0 c-36 0 -67 -3 -69 -7z"/>
<path d="M20262 18946 c-6 -14 -23 -32 -37 -42 -17 -11 -25 -25 -25 -46 l0
-29 30 21 29 21 3 -113 3 -113 25 0 25 0 3 163 2 162 -23 0 c-16 0 -28 -9 -35
-24z"/>
<path d="M20425 18946 c-28 -28 -40 -92 -33 -180 8 -98 53 -145 113 -118 44
20 57 64 53 172 -3 88 -6 101 -27 124 -31 33 -74 34 -106 2z m76 -53 c14 -35
6 -180 -9 -195 -9 -9 -16 -8 -28 3 -19 20 -22 182 -4 204 18 22 29 18 41 -12z"/>
<path d="M20643 18952 c-12 -9 -27 -30 -34 -47 -18 -45 -15 -175 5 -213 30
-59 81 -68 127 -23 67 67 15 212 -65 181 -22 -8 -26 -7 -26 9 0 10 9 29 20 42
l20 24 19 -22 c12 -15 25 -20 40 -16 25 6 25 6 6 42 -23 45 -72 55 -112 23z
m65 -154 c17 -17 15 -83 -3 -98 -31 -26 -64 35 -45 84 10 28 29 33 48 14z"/>
<path d="M24319 18948 c-6 -13 -24 -33 -40 -46 -18 -14 -29 -33 -29 -48 0 -29
4 -30 41 -3 l29 20 0 -115 0 -116 25 0 25 0 0 165 c0 157 -1 165 -20 165 -10
0 -25 -10 -31 -22z"/>
<path d="M24485 18948 c-52 -46 -55 -230 -3 -285 44 -47 109 -21 127 51 31
125 -9 256 -79 256 -10 0 -31 -10 -45 -22z m73 -139 c2 -79 0 -98 -14 -110
-27 -23 -44 13 -44 95 0 95 7 118 34 114 19 -3 21 -10 24 -99z"/>
<path d="M28040 18945 c-7 -14 -24 -32 -37 -40 -14 -9 -23 -25 -23 -40 0 -29
7 -31 38 -9 l22 15 0 -110 0 -111 30 0 30 0 0 160 0 160 -23 0 c-15 0 -29 -9
-37 -25z"/>
<path d="M28206 18951 c-24 -26 -36 -76 -36 -151 0 -109 54 -180 115 -152 42
19 57 71 53 178 -3 81 -6 95 -27 118 -30 31 -80 35 -105 7z m74 -57 c6 -14 10
-52 10 -84 0 -32 -4 -70 -10 -84 -10 -26 -34 -35 -45 -16 -9 14 -9 161 -1 188
10 30 34 28 46 -4z"/>
<path d="M28401 18944 c-26 -33 -27 -78 -2 -103 19 -19 19 -20 1 -36 -41 -37
-29 -125 21 -151 86 -44 171 69 110 147 -17 22 -17 27 -5 44 17 23 18 59 3 88
-16 30 -28 37 -71 37 -28 0 -42 -6 -57 -26z m84 -59 c0 -21 -5 -31 -19 -33
-26 -5 -40 12 -32 43 5 20 12 26 29 23 17 -2 22 -10 22 -33z m9 -111 c18 -46
-10 -92 -45 -74 -19 11 -28 68 -12 83 12 13 51 7 57 -9z"/>
<path d="M10763 18914 c-60 -62 -56 -118 4 -62 l23 21 0 -116 0 -117 25 0 25
0 0 160 c0 185 -4 191 -77 114z"/>
<path d="M10956 18945 c-31 -32 -38 -59 -39 -145 0 -100 19 -148 66 -164 36
-13 77 17 95 70 20 56 10 188 -16 223 -23 32 -81 41 -106 16z m68 -51 c3 -9 6
-51 6 -94 0 -91 -5 -110 -30 -110 -10 0 -21 7 -24 16 -10 26 -7 164 4 185 13
23 36 25 44 3z"/>
<path d="M11167 18857 c-31 -57 -57 -115 -57 -130 0 -26 2 -27 55 -27 54 0 55
0 55 -30 0 -25 4 -30 25 -30 21 0 25 5 25 30 0 20 5 30 15 30 10 0 15 10 15
30 0 20 -5 30 -15 30 -12 0 -15 18 -15 100 0 97 -1 100 -23 100 -18 0 -33 -19
-80 -103z m53 -47 c0 -49 -1 -50 -30 -50 l-30 0 28 50 c15 27 28 50 30 50 1 0
2 -22 2 -50z"/>
<path d="M24650 18930 c0 -30 1 -30 55 -30 l55 0 -19 -37 c-27 -54 -51 -140
-51 -186 0 -34 2 -38 23 -35 18 2 23 11 28 54 8 68 25 118 60 181 45 81 44 83
-61 83 l-90 0 0 -30z"/>
<path d="M19980 18376 l0 -166 100 0 100 0 0 -45 c0 -33 4 -45 15 -45 12 0 15
14 15 65 0 37 -4 65 -10 65 -6 0 -10 55 -10 145 0 138 -1 145 -20 145 -19 0
-20 -7 -20 -145 l0 -145 -65 0 -64 0 -3 142 c-3 127 -5 143 -20 146 -17 3 -18
-10 -18 -162z"/>
<path d="M20291 18446 c-35 -20 -50 -54 -51 -119 0 -52 3 -62 29 -88 38 -37
82 -39 116 -4 26 25 33 55 14 55 -7 0 -22 -11 -35 -25 -13 -14 -27 -25 -32
-25 -17 0 -50 34 -57 58 -6 21 -4 22 64 22 38 0 72 4 75 8 9 15 -12 85 -31
102 -25 25 -64 31 -92 16z m73 -48 c24 -34 20 -38 -34 -38 -41 0 -50 3 -50 18
0 44 58 57 84 20z"/>
<path d="M20886 18444 c-14 -7 -26 -9 -26 -3 0 5 -7 9 -15 9 -13 0 -15 -25
-15 -165 0 -140 2 -165 15 -165 11 0 15 13 15 54 l0 54 29 -11 c24 -9 34 -7
55 7 34 22 46 54 46 120 0 84 -48 130 -104 100z m62 -54 c17 -32 9 -105 -13
-130 -23 -25 -30 -25 -55 0 -26 26 -28 114 -3 142 22 25 54 19 71 -12z"/>
<path d="M15457 18443 c-6 -10 -97 -299 -97 -307 0 -3 9 -6 19 -6 15 0 22 12
31 50 l12 51 56 -3 56 -3 15 -47 c10 -34 20 -48 33 -48 10 0 18 3 18 7 0 5
-23 77 -51 160 -41 124 -54 153 -69 153 -10 0 -21 -3 -23 -7z m45 -111 c10
-31 18 -60 18 -64 0 -5 -18 -8 -40 -8 -22 0 -40 5 -40 10 0 22 34 130 39 125
3 -3 13 -31 23 -63z"/>
<path d="M20452 18333 c2 -97 6 -118 18 -118 11 0 16 14 18 53 l3 53 42 -3 42
-3 3 -52 c2 -38 7 -53 18 -53 11 0 14 22 14 120 0 98 -3 120 -14 120 -11 0
-16 -14 -18 -47 l-3 -48 -42 -3 -43 -3 0 50 c0 45 -3 51 -20 51 -20 0 -21 -5
-18 -117z"/>
<path d="M20642 18433 c2 -11 14 -19 30 -21 l27 -3 3 -97 c2 -78 6 -97 18 -97
12 0 16 19 18 97 l3 97 27 3 c16 2 28 10 30 21 3 15 -6 17 -78 17 -72 0 -81
-2 -78 -17z"/>
<path d="M23685 18276 c-26 -85 -48 -159 -47 -163 1 -4 8 -9 16 -11 10 -2 19
12 28 45 l14 48 56 3 56 3 17 -51 c12 -38 21 -50 36 -50 15 0 19 5 15 18 -73
228 -104 307 -122 310 -18 3 -26 -17 -69 -152z m105 -23 c0 -8 -15 -13 -41
-13 -33 0 -40 3 -35 15 3 9 13 41 22 73 l17 57 19 -60 c10 -33 18 -66 18 -72z"/>
<path d="M27457 18423 c-6 -10 -97 -299 -97 -307 0 -3 9 -6 19 -6 15 0 22 12
31 50 l12 51 56 -3 56 -3 15 -47 c10 -34 20 -48 33 -48 10 0 18 3 18 7 0 5
-23 77 -51 160 -41 124 -54 153 -69 153 -10 0 -21 -3 -23 -7z m45 -111 c10
-31 18 -60 18 -64 0 -5 -18 -8 -40 -8 -22 0 -40 5 -40 10 0 22 34 130 39 125
3 -3 13 -31 23 -63z"/>
<path d="M10570 18260 c0 -153 1 -160 20 -160 18 0 20 7 20 76 0 95 11 94 63
-4 27 -52 43 -72 57 -72 11 0 20 2 20 5 0 10 -62 130 -76 145 -11 13 -9 24 14
73 18 38 32 57 44 57 12 0 18 7 18 21 0 16 -5 20 -27 17 -23 -2 -33 -14 -57
-65 -42 -89 -56 -89 -56 -3 0 63 -2 70 -20 70 -19 0 -20 -7 -20 -160z"/>
<path d="M11100 18370 c0 -46 -1 -49 -18 -39 -29 18 -70 3 -87 -32 -18 -35
-21 -111 -6 -151 15 -38 54 -62 80 -49 30 16 31 15 31 -39 0 -38 4 -50 15 -50
12 0 15 13 15 55 0 55 0 55 23 41 18 -12 27 -13 47 -3 34 17 50 53 50 117 0
93 -43 140 -101 110 -18 -10 -19 -7 -19 40 0 38 -4 50 -15 50 -11 0 -15 -12
-15 -50z m-4 -117 c9 -46 -6 -103 -29 -117 -15 -9 -22 -6 -39 14 -16 20 -19
35 -16 79 3 37 11 58 23 67 26 19 53 1 61 -43z m115 20 c23 -62 0 -143 -42
-143 -27 0 -42 43 -36 104 7 74 55 98 78 39z"/>
<path d="M15618 18365 c-3 -4 10 -56 29 -116 19 -61 33 -120 31 -132 -2 -12
-15 -28 -31 -35 -23 -11 -25 -16 -17 -33 13 -23 24 -24 45 -2 21 20 28 39 71
180 36 117 40 143 24 143 -13 0 -24 -24 -46 -102 -10 -38 -21 -68 -24 -68 -3
0 -17 37 -30 82 -23 75 -37 98 -52 83z"/>
<path d="M15836 18324 c-3 -26 -6 -59 -6 -73 0 -15 -9 -44 -20 -66 -23 -44
-28 -129 -7 -123 6 3 13 19 15 36 l3 32 69 0 69 0 3 -32 c5 -55 28 -46 28 11
0 28 -4 51 -10 51 -6 0 -10 42 -10 105 l0 105 -64 0 -63 0 -7 -46z m102 -76
l-3 -83 -49 -3 c-42 -3 -48 -1 -42 13 3 9 9 42 12 73 8 80 9 82 49 82 l36 0
-3 -82z"/>
<path d="M16030 18250 c0 -108 2 -120 18 -120 12 0 31 26 59 83 l42 82 0 -82
c1 -77 3 -83 21 -83 20 0 21 5 18 118 -4 147 -15 151 -78 32 l-45 -85 -3 88
c-2 68 -6 87 -17 87 -12 0 -15 -21 -15 -120z"/>
<path d="M16220 18350 c0 -16 7 -20 30 -20 l30 0 0 -100 c0 -82 3 -100 15
-100 12 0 15 18 15 100 l0 100 30 0 c23 0 30 4 30 20 0 18 -7 20 -75 20 -68 0
-75 -2 -75 -20z"/>
<path d="M16425 18346 c-13 -13 -27 -40 -30 -60 -24 -124 74 -209 147 -128 24
28 28 40 28 93 0 54 -3 64 -29 90 -37 37 -82 39 -116 5z m82 -21 c47 -33 37
-149 -13 -161 -41 -10 -64 19 -64 83 0 40 5 58 20 73 24 24 29 24 57 5z"/>
<path d="M16610 18205 c0 -140 2 -165 15 -165 12 0 15 13 15 55 l0 55 24 -15
c66 -43 134 62 106 164 -17 63 -78 92 -114 55 -15 -14 -16 -14 -16 0 0 9 -7
16 -15 16 -13 0 -15 -25 -15 -165z m114 113 c35 -49 11 -158 -34 -158 -33 0
-53 44 -48 102 7 73 50 102 82 56z"/>
<path d="M16820 18250 c0 -108 2 -120 18 -120 12 0 31 26 59 83 l42 82 0 -82
c1 -77 3 -83 21 -83 20 0 21 5 18 117 -3 102 -5 118 -20 121 -13 2 -29 -20
-62 -85 l-45 -88 0 88 c-1 70 -4 87 -16 87 -12 0 -15 -20 -15 -120z"/>
<path d="M17054 18356 c-17 -8 -34 -24 -37 -36 -7 -26 8 -69 28 -84 12 -9 10
-18 -15 -58 l-30 -48 24 0 c16 0 27 7 31 19 10 33 46 71 66 71 16 0 19 -7 19
-45 0 -33 4 -45 15 -45 13 0 15 20 15 120 l0 120 -42 0 c-24 -1 -57 -7 -74
-14z m86 -67 l0 -41 -37 7 c-49 9 -53 12 -53 39 0 31 7 36 52 36 38 0 38 0 38
-41z"/>
<path d="M24717 18334 c-35 -19 -47 -50 -47 -120 0 -48 4 -60 29 -85 40 -39
81 -39 115 1 32 38 42 91 27 139 -19 65 -72 92 -124 65z m75 -41 c28 -25 25
-115 -4 -143 -27 -25 -30 -25 -59 -1 -20 16 -24 29 -24 74 0 31 6 61 14 70 17
22 49 22 73 0z"/>
<path d="M24950 18341 c-8 -6 -27 -7 -42 -4 l-29 6 3 -164 c3 -138 5 -164 18
-164 11 0 16 14 18 52 3 48 5 51 21 41 51 -32 111 31 111 117 0 49 -28 115
-49 115 -5 0 -15 2 -23 5 -7 3 -20 1 -28 -4z m47 -43 c31 -38 22 -131 -14
-155 -17 -12 -23 -11 -43 5 -18 14 -22 28 -22 69 0 27 5 60 11 72 13 23 53 29
68 9z"/>
<path d="M27618 18345 c-3 -4 10 -56 29 -116 19 -61 33 -120 31 -132 -2 -12
-15 -28 -31 -35 -23 -11 -25 -16 -17 -33 13 -23 24 -24 45 -2 21 20 28 39 71
180 36 117 40 143 24 143 -13 0 -24 -24 -46 -102 -10 -38 -21 -68 -24 -68 -3
0 -17 37 -30 82 -23 75 -37 98 -52 83z"/>
<path d="M27836 18304 c-3 -26 -6 -59 -6 -73 0 -15 -9 -44 -20 -66 -23 -44
-28 -129 -7 -123 6 3 13 19 15 36 l3 32 69 0 69 0 3 -32 c5 -55 28 -46 28 11
0 28 -4 51 -10 51 -6 0 -10 42 -10 105 l0 105 -64 0 -63 0 -7 -46z m102 -76
l-3 -83 -49 -3 c-42 -3 -48 -1 -42 13 3 9 9 42 12 73 8 80 9 82 49 82 l36 0
-3 -82z"/>
<path d="M28030 18230 c0 -108 2 -120 18 -120 12 0 31 26 59 83 l42 82 0 -82
c1 -77 3 -83 21 -83 20 0 21 5 18 118 -4 147 -15 151 -78 32 l-45 -85 -3 88
c-2 68 -6 87 -17 87 -12 0 -15 -21 -15 -120z"/>
<path d="M28220 18330 c0 -16 7 -20 30 -20 l30 0 0 -100 c0 -82 3 -100 15
-100 12 0 15 18 15 100 l0 100 30 0 c23 0 30 4 30 20 0 18 -7 20 -75 20 -68 0
-75 -2 -75 -20z"/>
<path d="M28425 18326 c-13 -13 -27 -40 -30 -60 -24 -124 74 -209 147 -128 24
28 28 40 28 93 0 54 -3 64 -29 90 -37 37 -82 39 -116 5z m82 -21 c47 -33 37
-149 -13 -161 -41 -10 -64 19 -64 83 0 40 5 58 20 73 24 24 29 24 57 5z"/>
<path d="M28610 18185 c0 -140 2 -165 15 -165 12 0 15 13 15 55 l0 55 24 -15
c66 -43 134 62 106 164 -17 63 -78 92 -114 55 -15 -14 -16 -14 -16 0 0 9 -7
16 -15 16 -13 0 -15 -25 -15 -165z m114 113 c35 -49 11 -158 -34 -158 -33 0
-53 44 -48 102 7 73 50 102 82 56z"/>
<path d="M28820 18230 c0 -108 2 -120 18 -120 12 0 31 26 59 83 l42 82 0 -82
c1 -77 3 -83 21 -83 20 0 21 5 18 117 -3 102 -5 118 -20 121 -13 2 -29 -20
-62 -85 l-45 -88 0 88 c-1 70 -4 87 -16 87 -12 0 -15 -20 -15 -120z"/>
<path d="M29054 18336 c-17 -8 -34 -24 -37 -36 -7 -26 8 -69 28 -84 12 -9 10
-18 -15 -58 l-30 -48 24 0 c16 0 27 7 31 19 10 33 46 71 66 71 16 0 19 -7 19
-45 0 -33 4 -45 15 -45 13 0 15 20 15 120 l0 120 -42 0 c-24 -1 -57 -7 -74
-14z m86 -67 l0 -41 -37 7 c-49 9 -53 12 -53 39 0 31 7 36 52 36 38 0 38 0 38
-41z"/>
<path d="M10819 18333 c-20 -5 -44 -47 -35 -62 11 -17 24 -13 31 8 13 41 89
30 83 -12 -2 -17 -12 -23 -48 -29 -27 -5 -52 -16 -62 -29 -51 -61 14 -139 85
-103 21 12 32 13 35 5 2 -6 11 -11 20 -11 15 0 16 12 12 106 -5 89 -8 108 -25
120 -18 13 -61 17 -96 7z m81 -146 c0 -31 -32 -59 -62 -55 -18 2 -23 9 -23 33
0 23 6 31 25 36 48 13 60 10 60 -14z"/>
<path d="M11314 18317 c-22 -19 -28 -34 -32 -80 -2 -33 1 -69 8 -86 13 -34 69
-64 97 -55 25 10 63 45 63 60 0 26 -21 25 -43 -2 -18 -21 -29 -26 -49 -21 -22
6 -48 42 -48 67 0 6 33 10 74 10 l75 0 -6 38 c-7 48 -48 92 -84 92 -15 0 -40
-10 -55 -23z m94 -35 c25 -32 14 -42 -42 -42 -49 0 -54 2 -49 20 12 45 62 57
91 22z"/>
<path d="M23890 18332 c0 -5 15 -57 34 -117 37 -115 36 -152 -4 -162 -25 -7
-27 -43 -2 -43 40 1 53 26 108 206 40 131 39 126 17 122 -11 -2 -25 -31 -43
-88 l-27 -85 -22 75 c-12 41 -24 81 -26 88 -5 13 -35 17 -35 4z"/>
<path d="M24110 18289 c0 -64 -19 -139 -36 -146 -21 -8 -19 -103 1 -103 10 0
15 10 15 30 l0 30 75 0 75 0 0 -30 c0 -20 5 -30 15 -30 11 0 15 12 15 50 0 28
-4 50 -10 50 -6 0 -10 40 -10 100 l0 100 -70 0 -70 0 0 -51z m100 -69 l0 -80
-46 0 -46 0 6 33 c4 17 10 53 13 80 6 46 7 47 39 47 l34 0 0 -80z"/>
<path d="M24302 18223 c3 -102 5 -118 20 -121 13 -2 29 20 62 85 l45 88 0 -87
c1 -71 4 -88 16 -88 13 0 15 20 15 120 0 108 -2 120 -18 120 -12 0 -31 -26
-59 -82 l-42 -83 0 83 c-1 76 -3 82 -21 82 -20 0 -21 -5 -18 -117z"/>
<path d="M24492 18323 c2 -11 14 -19 30 -21 l27 -3 3 -97 c2 -78 6 -97 18 -97
12 0 16 19 18 97 l3 97 27 3 c16 2 28 10 30 21 3 15 -6 17 -78 17 -72 0 -81
-2 -78 -17z"/>
<path d="M25092 18223 c4 -148 15 -152 78 -33 l45 85 3 -87 c2 -69 6 -88 17
-88 12 0 15 21 15 120 0 108 -2 120 -18 120 -12 0 -31 -26 -59 -82 l-42 -83 0
83 c-1 76 -3 82 -21 82 -20 0 -21 -5 -18 -117z"/>
<path d="M25310 18320 c-26 -26 -26 -70 0 -98 l21 -22 -27 -45 c-14 -25 -23
-49 -20 -53 12 -11 40 13 61 51 14 25 27 37 42 37 19 0 22 -6 25 -42 2 -30 8
-43 18 -43 12 0 16 21 18 118 l3 117 -61 0 c-47 0 -64 -4 -80 -20z m100 -55
c0 -30 -3 -35 -24 -35 -42 0 -56 11 -56 41 0 27 3 29 40 29 39 0 40 -1 40 -35z"/>
<path d="M19647 18008 c-4 -28 -11 -56 -17 -62 -13 -13 -13 -66 0 -66 6 0 10
9 10 20 0 17 7 20 40 20 33 0 40 -3 40 -20 0 -11 5 -20 10 -20 7 0 9 26 5 78
-9 101 -9 102 -48 102 -34 0 -34 -1 -40 -52z m63 -23 c0 -43 -1 -45 -29 -45
-22 0 -28 4 -26 18 14 67 16 72 35 72 17 0 20 -7 20 -45z"/>
<path d="M19784 18052 c-39 -26 -40 -100 -1 -127 28 -19 33 -19 57 5 49 49 -2
159 -56 122z m47 -36 c16 -33 4 -76 -21 -76 -24 0 -33 15 -32 53 1 48 35 62
53 23z"/>
<path d="M19887 18053 c-11 -10 -8 -133 3 -133 6 0 10 25 10 55 0 52 1 55 25
55 24 0 25 -3 25 -55 0 -30 5 -55 10 -55 6 0 10 30 10 70 l0 70 -38 0 c-21 0
-42 -3 -45 -7z"/>
<path d="M20006 18038 c-23 -33 -20 -75 9 -103 31 -32 39 -31 65 2 17 21 20
36 16 63 -9 58 -61 80 -90 38z m65 -25 c13 -35 -3 -73 -31 -73 -25 0 -37 42
-21 76 14 32 39 31 52 -3z"/>
<path d="M20130 18001 c0 -38 -4 -61 -12 -64 -7 -2 -10 -8 -6 -12 4 -4 14 -5
23 -2 11 5 15 21 15 57 0 47 2 50 25 50 24 0 25 -3 25 -55 0 -32 4 -55 10 -55
7 0 10 25 8 68 l-3 67 -42 3 -43 3 0 -60z"/>
<path d="M20250 17991 c0 -41 4 -71 10 -71 6 0 10 14 10 31 0 26 3 30 23 27
16 -2 23 -11 25 -30 2 -16 8 -28 13 -28 12 0 12 127 -1 135 -6 4 -10 -7 -10
-24 0 -26 -4 -31 -25 -31 -20 0 -25 5 -25 24 0 14 -4 28 -10 31 -6 4 -10 -20
-10 -64z"/>
<path d="M20370 17991 c0 -40 4 -71 10 -71 5 0 21 21 34 48 l25 47 1 -47 c0
-27 5 -48 10 -48 13 0 13 127 0 135 -5 3 -20 -16 -34 -42 l-25 -48 -1 42 c0
23 -4 45 -10 48 -6 4 -10 -20 -10 -64z"/>
<path d="M20480 18045 c0 -8 7 -15 15 -15 12 0 15 -13 15 -55 0 -42 3 -55 15
-55 12 0 15 13 15 55 0 42 3 55 15 55 8 0 15 7 15 15 0 11 -12 15 -45 15 -33
0 -45 -4 -45 -15z"/>
<path d="M20607 18047 c-10 -6 -20 -29 -23 -49 -5 -30 -2 -41 19 -62 21 -20
31 -24 49 -17 23 8 38 41 19 41 -6 0 -11 -4 -11 -10 0 -18 -39 -10 -50 10 -10
19 -8 20 35 20 47 0 53 7 34 43 -21 38 -43 46 -72 24z m51 -30 c3 -13 -3 -17
-28 -17 -28 0 -30 2 -20 21 13 24 43 22 48 -4z"/>
<path d="M20720 18001 c0 -38 -4 -61 -12 -64 -7 -2 -10 -8 -6 -12 4 -4 14 -5
23 -2 11 5 15 21 15 57 0 47 2 50 25 50 24 0 25 -3 25 -55 0 -32 4 -55 10 -55
7 0 10 25 8 68 l-3 67 -42 3 -43 3 0 -60z"/>
<path d="M20838 18054 c-5 -4 -8 -36 -8 -71 l0 -63 40 0 c29 0 42 5 50 20 16
30 -4 60 -40 60 -25 0 -29 4 -32 31 -2 17 -6 27 -10 23z m65 -80 c12 -12 -6
-34 -29 -34 -17 0 -24 6 -24 20 0 14 7 20 23 20 13 0 26 -3 30 -6z"/>
<path d="M20948 18054 c-11 -11 -10 -134 1 -134 5 0 11 12 13 28 2 19 9 28 26
30 19 3 22 -1 22 -27 0 -21 5 -31 15 -31 13 0 15 12 13 68 -3 65 -20 89 -26
37 -3 -19 -9 -25 -27 -25 -19 0 -24 6 -27 31 -2 17 -6 27 -10 23z"/>
<path d="M21084 18052 c-39 -26 -40 -100 -1 -127 28 -19 33 -19 57 5 49 49 -2
159 -56 122z m47 -36 c16 -33 4 -76 -21 -76 -24 0 -33 15 -32 53 1 48 35 62
53 23z"/>
<path d="M21180 17990 c0 -40 4 -70 10 -70 6 0 10 25 10 55 0 48 2 55 20 55
11 0 20 7 20 15 0 10 -10 15 -30 15 l-30 0 0 -70z"/>
<path d="M21266 18038 c-22 -31 -20 -84 4 -108 25 -25 32 -25 60 -2 43 35 21
132 -31 132 -10 0 -25 -10 -33 -22z m52 -7 c21 -13 12 -85 -12 -89 -10 -2 -22
2 -27 10 -13 19 -11 62 3 76 14 14 19 15 36 3z"/>
<path d="M20033 17852 c-40 -4 -51 -18 -59 -73 -8 -61 16 -119 49 -119 33 0
57 30 57 72 0 53 -47 87 -78 56 -15 -15 -16 -3 -2 23 7 12 21 19 40 19 16 0
31 4 35 9 8 13 -5 17 -42 13z m15 -84 c29 -29 3 -98 -33 -84 -15 5 -22 76 -8
89 10 11 28 8 41 -5z"/>
<path d="M19866 17778 c-32 -45 -8 -118 38 -118 29 0 44 17 52 58 13 66 -55
111 -90 60z m66 -23 c13 -30 -3 -75 -27 -75 -21 0 -39 43 -31 74 8 34 42 35
58 1z"/>
<path d="M20100 17703 c0 -55 4 -93 10 -93 6 0 10 14 10 31 0 26 3 29 21 24
30 -10 59 21 59 62 0 56 -15 73 -60 71 l-40 -1 0 -94z m78 36 c4 -47 -23 -74
-44 -44 -26 36 -14 88 20 83 16 -2 22 -11 24 -39z"/>
<path d="M20230 17785 c-16 -19 -5 -34 12 -17 7 7 20 12 31 12 25 0 18 -34 -8
-38 -30 -6 -45 -22 -45 -48 0 -28 42 -43 65 -24 10 9 15 9 15 1 0 -6 5 -11 10
-11 13 0 13 96 0 121 -13 23 -62 26 -80 4z m56 -90 c-3 -8 -15 -15 -26 -15
-29 0 -27 38 3 42 24 3 32 -5 23 -27z"/>
<path d="M20346 17784 c-9 -23 0 -29 19 -14 23 19 42 -2 21 -23 -20 -20 -20
-27 -1 -27 17 0 20 -26 5 -35 -6 -4 -18 -1 -26 6 -19 16 -30 4 -14 -16 15 -18
44 -20 58 -2 13 16 12 97 -1 115 -14 17 -54 15 -61 -4z"/>
<path d="M20450 17781 c-26 -49 -1 -121 42 -121 24 0 48 34 48 69 0 48 -16 71
-50 71 -19 0 -33 -7 -40 -19z m68 -42 c4 -43 -19 -69 -43 -49 -15 13 -21 71
-8 84 4 4 16 6 28 4 15 -2 21 -12 23 -39z"/>
<path d="M20562 17733 c3 -56 6 -68 21 -71 48 -9 91 27 71 60 -4 7 -8 26 -8
43 -1 28 -4 30 -44 33 l-43 3 3 -68z m66 30 c-2 -10 -12 -18 -23 -18 -11 0
-21 8 -23 18 -3 13 3 17 23 17 20 0 26 -4 23 -17z m6 -51 c2 -4 1 -14 -3 -21
-11 -18 -45 -10 -49 12 -3 12 3 17 22 17 14 0 27 -4 30 -8z"/>
<path d="M20684 17785 c-8 -20 4 -34 15 -16 10 15 43 11 48 -6 3 -7 -10 -16
-28 -20 -71 -19 -64 -78 10 -78 l42 0 -3 65 -3 65 -38 3 c-27 2 -39 -1 -43
-13z m66 -69 c0 -20 -27 -39 -45 -32 -22 8 -18 25 8 36 31 12 37 12 37 -4z"/>
<path d="M20800 17730 c0 -40 4 -70 10 -70 6 0 10 14 10 30 0 25 4 30 25 30
21 0 25 -5 25 -30 0 -16 5 -30 10 -30 6 0 10 30 10 70 0 40 -4 70 -10 70 -5 0
-10 -13 -10 -30 0 -25 -4 -30 -25 -30 -21 0 -25 5 -25 30 0 17 -4 30 -10 30
-6 0 -10 -30 -10 -70z"/>
<path d="M20920 17730 c0 -38 4 -70 8 -70 4 0 20 24 34 53 l27 52 0 -52 c1
-29 6 -53 11 -53 6 0 10 30 10 70 0 83 -15 92 -47 28 l-22 -43 0 43 c-1 23 -5
42 -11 42 -6 0 -10 -30 -10 -70z"/>
<path d="M21042 17788 c-16 -16 -15 -43 3 -58 13 -11 13 -15 0 -33 -18 -25
-19 -37 -5 -37 6 0 16 11 22 25 14 31 36 32 40 3 7 -48 23 -20 26 45 l3 67
-39 0 c-21 0 -43 -5 -50 -12z m58 -28 c0 -13 -7 -20 -19 -20 -22 0 -35 15 -26
30 12 19 45 11 45 -10z"/>
<path d="M29485 17119 c-59 -45 -67 -57 -12 -18 42 29 65 50 55 49 -2 0 -21
-14 -43 -31z"/>
<path d="M25539 17123 c-13 -16 -12 -17 4 -4 16 13 21 21 13 21 -2 0 -10 -8
-17 -17z"/>
<path d="M10939 17113 c-13 -16 -12 -17 4 -4 16 13 21 21 13 21 -2 0 -10 -8
-17 -17z"/>
<path d="M16189 17103 c-13 -16 -12 -17 4 -4 16 13 21 21 13 21 -2 0 -10 -8
-17 -17z"/>
<path d="M21409 17103 c-13 -16 -12 -17 4 -4 9 7 17 15 17 17 0 8 -8 3 -21
-13z"/>
<path d="M25499 17093 c-13 -16 -12 -17 4 -4 16 13 21 21 13 21 -2 0 -10 -8
-17 -17z"/>
<path d="M10899 17083 c-13 -16 -12 -17 4 -4 9 7 17 15 17 17 0 8 -8 3 -21
-13z"/>
<path d="M16149 17073 c-13 -16 -12 -17 4 -4 9 7 17 15 17 17 0 8 -8 3 -21
-13z"/>
<path d="M21369 17073 c-13 -16 -12 -17 4 -4 16 13 21 21 13 21 -2 0 -10 -8
-17 -17z"/>
<path d="M25459 17063 c-13 -16 -12 -17 4 -4 9 7 17 15 17 17 0 8 -8 3 -21
-13z"/>
<path d="M10859 17053 c-13 -16 -12 -17 4 -4 16 13 21 21 13 21 -2 0 -10 -8
-17 -17z"/>
<path d="M29399 17053 c-13 -16 -12 -17 4 -4 9 7 17 15 17 17 0 8 -8 3 -21
-13z"/>
<path d="M16109 17043 c-13 -16 -12 -17 4 -4 9 7 17 15 17 17 0 8 -8 3 -21
-13z"/>
<path d="M21329 17043 c-13 -16 -12 -17 4 -4 16 13 21 21 13 21 -2 0 -10 -8
-17 -17z"/>
<path d="M25419 17033 c-13 -16 -12 -17 4 -4 9 7 17 15 17 17 0 8 -8 3 -21
-13z"/>
<path d="M10819 17023 c-13 -16 -12 -17 4 -4 16 13 21 21 13 21 -2 0 -10 -8
-17 -17z"/>
<path d="M29359 17023 c-13 -16 -12 -17 4 -4 16 13 21 21 13 21 -2 0 -10 -8
-17 -17z"/>
<path d="M16069 17013 c-13 -16 -12 -17 4 -4 9 7 17 15 17 17 0 8 -8 3 -21
-13z"/>
<path d="M21289 17013 c-13 -16 -12 -17 4 -4 9 7 17 15 17 17 0 8 -8 3 -21
-13z"/>
<path d="M24980 17000 c6 -11 13 -20 16 -20 2 0 0 9 -6 20 -6 11 -13 20 -16
20 -2 0 0 -9 6 -20z"/>
<path d="M25379 17003 c-13 -16 -12 -17 4 -4 16 13 21 21 13 21 -2 0 -10 -8
-17 -17z"/>
<path d="M10695 16934 c-96 -72 -158 -125 -85 -73 127 92 201 150 188 149 -2
0 -48 -34 -103 -76z"/>
<path d="M15660 16991 c5 -11 15 -23 21 -27 6 -3 3 5 -6 20 -20 30 -30 35 -15
7z"/>
<path d="M20880 16991 c5 -11 15 -23 21 -27 6 -3 3 5 -6 20 -20 30 -30 35 -15
7z"/>
<path d="M29319 16993 c-13 -16 -12 -17 4 -4 9 7 17 15 17 17 0 8 -8 3 -21
-13z"/>
<path d="M16029 16983 c-13 -16 -12 -17 4 -4 16 13 21 21 13 21 -2 0 -10 -8
-17 -17z"/>
<path d="M21249 16983 c-13 -16 -12 -17 4 -4 16 13 21 21 13 21 -2 0 -10 -8
-17 -17z"/>
<path d="M10408 16975 c12 -23 107 -115 119 -115 4 0 -9 14 -29 30 -21 17 -51
47 -69 68 -17 20 -26 28 -21 17z"/>
<path d="M25339 16973 c-13 -16 -12 -17 4 -4 9 7 17 15 17 17 0 8 -8 3 -21
-13z"/>
<path d="M28948 16975 c12 -23 107 -115 119 -115 4 0 -9 14 -29 30 -21 17 -51
47 -69 68 -17 20 -26 28 -21 17z"/>
<path d="M31530 16979 c0 -6 -16 -27 -36 -45 -26 -25 -35 -41 -32 -60 l3 -26
27 21 27 22 3 -113 3 -113 25 0 25 0 0 160 c0 158 0 160 -22 163 -13 2 -23 -2
-23 -9z"/>
<path d="M31698 16976 c-43 -32 -62 -159 -38 -248 19 -68 86 -90 131 -42 21
23 24 36 27 120 3 61 -1 106 -8 125 -22 53 -74 74 -112 45z m62 -72 c6 -14 10
-52 10 -84 0 -68 -13 -110 -34 -110 -8 0 -18 9 -21 20 -8 27 -9 176 0 190 11
18 35 10 45 -16z"/>
<path d="M31894 16975 c-52 -36 -57 -141 -9 -182 29 -26 55 -29 74 -10 10 10
12 5 9 -22 -4 -46 -34 -65 -54 -35 -10 14 -22 20 -35 17 -46 -12 3 -83 57 -83
74 0 117 130 84 252 -18 65 -80 96 -126 63z m64 -57 c17 -17 15 -73 -3 -88
-32 -27 -65 20 -51 75 7 27 34 33 54 13z"/>
<path d="M29279 16963 c-13 -16 -12 -17 4 -4 16 13 21 21 13 21 -2 0 -10 -8
-17 -17z"/>
<path d="M15965 16939 c-59 -45 -67 -57 -12 -18 42 29 65 50 55 49 -2 0 -21
-14 -43 -31z"/>
<path d="M21185 16939 c-59 -45 -67 -57 -12 -18 42 29 65 50 55 49 -2 0 -21
-14 -43 -31z"/>
<path d="M25000 16966 c0 -2 8 -10 18 -17 15 -13 16 -12 3 4 -13 16 -21 21
-21 13z"/>
<path d="M25299 16943 c-13 -16 -12 -17 4 -4 16 13 21 21 13 21 -2 0 -10 -8
-17 -17z"/>
<path d="M15720 16915 c19 -19 36 -35 39 -35 3 0 -10 16 -29 35 -19 19 -36 35
-39 35 -3 0 10 -16 29 -35z"/>
<path d="M20940 16915 c19 -19 36 -35 39 -35 3 0 -10 16 -29 35 -19 19 -36 35
-39 35 -3 0 10 -16 29 -35z"/>
<path d="M29239 16933 c-13 -16 -12 -17 4 -4 16 13 21 21 13 21 -2 0 -10 -8
-17 -17z"/>
<path d="M25259 16913 c-13 -16 -12 -17 4 -4 16 13 21 21 13 21 -2 0 -10 -8
-17 -17z"/>
<path d="M29175 16889 c-59 -45 -67 -57 -12 -18 42 29 65 50 55 49 -2 0 -21
-14 -43 -31z"/>
<path d="M25070 16896 c0 -2 8 -10 18 -17 15 -13 16 -12 3 4 -13 16 -21 21
-21 13z"/>
<path d="M25219 16883 c-13 -16 -12 -17 4 -4 9 7 17 15 17 17 0 8 -8 3 -21
-13z"/>
<path d="M15879 16873 c-13 -16 -12 -17 4 -4 9 7 17 15 17 17 0 8 -8 3 -21
-13z"/>
<path d="M21099 16873 c-13 -16 -12 -17 4 -4 16 13 21 21 13 21 -2 0 -10 -8
-17 -17z"/>
<path d="M25179 16853 c-13 -16 -12 -17 4 -4 16 13 21 21 13 21 -2 0 -10 -8
-17 -17z"/>
<path d="M15845 16850 c-4 -6 -11 -7 -17 -4 -7 4 -8 2 -4 -5 6 -9 11 -9 22 0
14 11 18 19 10 19 -3 0 -8 -5 -11 -10z"/>
<path d="M21065 16850 c-4 -6 -11 -7 -17 -4 -7 4 -8 2 -4 -5 6 -9 11 -9 22 0
14 11 18 19 10 19 -3 0 -8 -5 -11 -10z"/>
<path d="M30119 16613 l-24 -28 28 24 c25 23 32 31 24 31 -2 0 -14 -12 -28
-27z"/>
<path d="M30050 16516 c0 -10 70 -106 77 -106 4 0 -35 58 -74 109 -2 2 -3 1
-3 -3z"/>
<path d="M30935 16438 c-48 -144 -96 -310 -92 -315 14 -14 35 9 47 51 l13 46
57 0 56 0 15 -47 c9 -29 22 -49 32 -51 9 -2 17 2 17 10 0 7 -23 82 -51 165
-42 128 -54 153 -70 153 -11 0 -22 -6 -24 -12z m44 -102 c6 -24 13 -51 17 -60
5 -13 -1 -16 -35 -16 -24 0 -41 5 -41 12 0 23 34 117 40 113 4 -3 13 -24 19
-49z"/>
<path d="M30130 16396 c0 -2 8 -10 18 -17 15 -13 16 -12 3 4 -13 16 -21 21
-21 13z"/>
<path d="M31935 16361 c-32 -13 -55 -46 -62 -84 -19 -117 68 -198 143 -134 22
19 28 34 32 80 6 73 -11 115 -54 133 -19 8 -35 14 -36 13 -2 0 -12 -4 -23 -8z
m71 -68 c37 -89 -30 -181 -83 -115 -19 23 -16 112 4 134 28 31 62 23 79 -19z"/>
<path d="M32146 16355 c-14 -8 -26 -10 -26 -4 0 5 -7 9 -15 9 -13 0 -15 -25
-15 -165 0 -140 2 -165 15 -165 12 0 15 13 15 55 0 51 10 69 25 45 12 -20 53
-10 78 19 74 89 13 252 -77 206z m56 -42 c32 -29 20 -142 -16 -156 -37 -15
-66 26 -66 91 0 68 42 101 82 65z"/>
<path d="M30160 16356 c0 -2 8 -10 18 -17 15 -13 16 -12 3 4 -13 16 -21 21
-21 13z"/>
<path d="M31093 16346 c3 -8 20 -60 38 -116 35 -111 33 -152 -8 -158 -15 -2
-19 -8 -16 -23 4 -14 12 -19 27 -17 28 4 56 63 99 211 31 105 33 117 17 117
-13 0 -23 -19 -40 -77 -12 -43 -25 -81 -29 -85 -4 -4 -17 31 -30 77 -19 70
-27 85 -43 85 -13 0 -18 -5 -15 -14z"/>
<path d="M31315 16298 c-9 -81 -23 -138 -35 -138 -6 0 -10 -22 -10 -50 0 -38
4 -50 15 -50 10 0 15 10 15 30 l0 30 70 0 70 0 0 -30 c0 -20 5 -30 15 -30 11
0 15 12 15 50 0 28 -4 50 -10 50 -6 0 -10 40 -10 100 l0 100 -64 0 -64 0 -7
-62z m105 -58 l0 -80 -51 0 c-45 0 -50 2 -44 18 3 9 9 40 12 67 7 72 9 75 48
75 l35 0 0 -80z"/>
<path d="M31510 16239 c0 -109 2 -120 18 -117 10 2 35 36 59 83 l42 80 3 -80
c2 -63 6 -80 18 -80 12 0 16 21 18 118 3 112 2 117 -18 117 -15 0 -31 -21 -64
-87 l-45 -88 0 88 c-1 70 -4 87 -16 87 -13 0 -15 -20 -15 -121z"/>
<path d="M31700 16340 c0 -16 7 -20 30 -20 l30 0 0 -100 c0 -82 3 -100 15
-100 12 0 15 18 15 100 l0 100 30 0 c23 0 30 4 30 20 0 18 -7 20 -75 20 -68 0
-75 -2 -75 -20z"/>
<path d="M32300 16240 c0 -151 12 -157 73 -34 l42 85 5 -83 c4 -65 8 -83 20
-83 12 0 16 21 18 118 3 112 2 117 -18 117 -15 0 -31 -21 -64 -87 l-45 -88 0
88 c-1 70 -4 87 -16 87 -12 0 -15 -20 -15 -120z"/>
<path d="M32519 16342 c-29 -24 -30 -75 -2 -104 l21 -20 -24 -36 c-27 -40 -31
-62 -9 -62 8 0 26 20 41 45 19 34 32 45 50 45 22 0 24 -4 24 -45 0 -33 4 -45
15 -45 13 0 15 20 15 120 l0 120 -54 0 c-37 0 -61 -6 -77 -18z m101 -58 c0
-34 -1 -35 -36 -32 -71 6 -74 68 -4 68 39 0 40 -1 40 -36z"/>
<path d="M30190 16316 c0 -2 8 -10 18 -17 15 -13 16 -12 3 4 -13 16 -21 21
-21 13z"/>
<path d="M30220 16276 c0 -2 8 -10 18 -17 15 -13 16 -12 3 4 -13 16 -21 21
-21 13z"/>
<path d="M30250 16236 c0 -2 8 -10 18 -17 15 -13 16 -12 3 4 -13 16 -21 21
-21 13z"/>
<path d="M8960 13030 l0 -2420 -329 0 -330 0 -3 -37 c-2 -21 -1 -59 0 -85 l4
-48 329 0 329 0 0 -5015 0 -5015 -2035 0 -2035 0 0 674 0 675 -47 3 c-27 2
-103 2 -170 0 l-123 -3 0 -840 0 -839 2375 0 2375 0 0 7520 0 7520 3090 0
3090 0 0 -1490 0 -1490 790 0 790 0 0 -800 0 -800 900 0 900 0 0 95 0 95 -795
0 -795 0 0 705 0 705 805 0 805 0 0 165 0 165 -90 0 -90 0 0 390 0 390 -61 0
c-37 0 -58 4 -54 10 4 7 -3 7 -20 0 -15 -6 -44 -10 -66 -10 l-39 0 0 -385 0
-385 -635 0 -635 0 0 1105 0 1105 635 0 635 0 0 -409 c0 -377 1 -410 18 -422
15 -13 16 -12 3 4 -13 16 -6 17 103 17 l116 0 0 455 0 455 -60 0 c-45 0 -60 3
-60 14 0 17 -28 23 -82 17 -24 -2 -38 -8 -38 -17 0 -12 -98 -14 -635 -14
l-635 0 0 230 0 230 635 0 c558 0 635 -2 635 -15 0 -12 13 -15 60 -15 47 0 60
3 60 15 0 12 13 15 60 15 l60 0 0 100 0 100 -885 0 -885 0 0 -1485 0 -1485
-560 0 -560 0 0 1485 0 1485 -3425 0 -3425 0 0 -2420z"/>
<path d="M19600 14666 l0 -784 68 -4 c37 -2 91 -2 120 0 l52 3 0 685 0 684
630 0 630 0 0 -1385 0 -1385 -630 0 -630 0 0 389 c0 336 -2 390 -15 401 -13
11 -14 10 -9 -4 5 -14 -6 -16 -105 -16 l-111 0 0 -385 0 -385 -90 0 -90 0 0
-170 0 -170 810 0 810 0 0 -705 0 -705 -775 0 -775 0 0 -92 c0 -73 -4 -96 -17
-112 -18 -19 -18 -19 7 -3 22 16 96 17 892 17 l868 0 0 800 0 800 785 0 785 0
0 1485 0 1485 3005 0 3005 0 0 -1120 0 -1120 175 0 175 0 0 1290 0 1290 -3340
0 -3340 0 0 -1485 0 -1485 -565 0 -565 0 0 1485 0 1485 -880 0 -880 0 0 -784z"/>
<path d="M18470 15206 c0 -2 8 -10 18 -17 15 -13 16 -12 3 4 -13 16 -21 21
-21 13z"/>
<path d="M17623 15143 c-18 -19 -33 -43 -33 -54 0 -20 15 -26 25 -9 17 27 25
2 25 -80 0 -89 0 -90 25 -90 l25 0 0 135 c0 122 -2 135 -17 134 -10 -1 -33
-17 -50 -36z"/>
<path d="M17793 15143 c-18 -19 -33 -43 -33 -54 0 -23 9 -24 38 -3 l22 15 0
-95 c0 -89 1 -96 20 -96 19 0 20 7 20 135 0 122 -2 135 -17 134 -10 -1 -33
-17 -50 -36z"/>
<path d="M17942 15157 c-31 -33 -31 -105 1 -135 26 -25 47 -28 65 -10 9 9 12
8 12 -6 0 -24 -18 -56 -32 -56 -6 0 -16 7 -23 17 -12 16 -45 13 -45 -6 0 -22
38 -53 65 -53 59 0 95 89 76 190 -15 79 -74 107 -119 59z m69 -44 c12 -32 -2
-73 -25 -73 -26 0 -36 66 -14 88 18 18 27 15 39 -15z"/>
<path d="M18500 15166 c0 -2 8 -10 18 -17 15 -13 16 -12 3 4 -13 16 -21 21
-21 13z"/>
<path d="M18530 15126 c0 -2 8 -10 18 -17 15 -13 16 -12 3 4 -13 16 -21 21
-21 13z"/>
<path d="M18560 15086 c0 -2 8 -10 18 -17 15 -13 16 -12 3 4 -13 16 -21 21
-21 13z"/>
<path d="M18627 14996 c21 -30 40 -52 42 -50 4 4 -68 104 -75 104 -3 0 12 -24
33 -54z"/>
<path d="M6013 14492 c-25 -26 -43 -55 -43 -69 0 -28 5 -29 38 -2 l27 21 3
-116 c3 -116 3 -116 27 -116 l25 0 0 165 c0 191 -4 197 -77 117z"/>
<path d="M6205 14518 c-41 -36 -58 -147 -34 -231 34 -123 148 -95 163 40 13
115 -26 213 -84 213 -10 0 -31 -10 -45 -22z m69 -54 c3 -9 6 -50 6 -93 0 -88
-16 -125 -44 -102 -12 10 -16 32 -16 96 0 96 5 115 30 115 10 0 21 -7 24 -16z"/>
<path d="M6399 14511 c-16 -16 -29 -37 -29 -45 0 -21 46 -21 54 0 9 23 50 14
54 -13 2 -14 -5 -27 -22 -39 -32 -20 -34 -51 -5 -56 29 -4 43 -29 35 -62 -9
-38 -35 -45 -60 -15 -24 29 -56 27 -56 -2 0 -32 44 -69 83 -69 74 0 118 109
66 161 -19 19 -19 22 -5 38 24 26 20 74 -9 105 -32 35 -69 34 -106 -3z"/>
<path d="M7700 14416 c0 -2 8 -10 18 -17 15 -13 16 -12 3 4 -13 16 -21 21 -21
13z"/>
<path d="M7730 14376 c0 -2 8 -10 18 -17 15 -13 16 -12 3 4 -13 16 -21 21 -21
13z"/>
<path d="M31502 14346 c-6 -14 -23 -32 -37 -42 -17 -11 -25 -25 -25 -46 l0
-29 30 21 29 21 3 -113 3 -113 25 0 25 0 3 163 2 162 -23 0 c-16 0 -28 -9 -35
-24z"/>
<path d="M31683 14322 c-59 -63 -58 -105 2 -66 l25 16 0 -116 0 -116 25 0 25
0 0 165 c0 191 -4 197 -77 117z"/>
<path d="M31871 14347 c-50 -54 -47 -239 4 -284 69 -60 135 11 135 142 0 64
-16 121 -41 146 -26 26 -71 24 -98 -4z m67 -39 c8 -8 12 -46 12 -104 0 -72 -3
-94 -16 -105 -28 -23 -44 14 -44 104 0 99 17 136 48 105z"/>
<path d="M7760 14336 c0 -2 8 -10 18 -17 15 -13 16 -12 3 4 -13 16 -21 21 -21
13z"/>
<path d="M7790 14296 c0 -2 8 -10 18 -17 15 -13 16 -12 3 4 -13 16 -21 21 -21
13z"/>
<path d="M7820 14256 c0 -2 8 -10 18 -17 15 -13 16 -12 3 4 -13 16 -21 21 -21
13z"/>
<path d="M7879 14180 c17 -25 43 -58 57 -75 20 -23 18 -20 -5 15 -17 25 -43
59 -57 75 -20 23 -18 20 5 -15z"/>
<path d="M17622 14132 c-29 -32 -42 -54 -40 -71 l3 -23 28 22 27 21 0 -115 0
-116 25 0 25 0 0 165 c0 125 -3 165 -12 165 -7 0 -32 -22 -56 -48z"/>
<path d="M17835 14160 c-3 -11 -22 -32 -41 -46 -22 -17 -34 -35 -34 -50 0 -29
10 -30 44 -3 l26 20 0 -115 0 -116 25 0 25 0 0 165 c0 156 -1 165 -19 165 -11
0 -23 -9 -26 -20z"/>
<path d="M18005 14172 c-55 -11 -80 -77 -47 -122 21 -28 21 -28 1 -45 -21 -20
-26 -83 -9 -116 15 -28 65 -51 95 -43 60 15 88 113 45 159 -18 20 -19 23 -5
35 19 16 20 79 0 107 -15 22 -46 31 -80 25z m45 -82 c0 -36 -24 -50 -47 -27
-22 22 -8 57 23 57 20 0 24 -5 24 -30z m-2 -102 c27 -27 11 -88 -23 -88 -24 0
-35 17 -35 54 0 24 17 46 35 46 6 0 16 -5 23 -12z"/>
<path d="M20272 14156 c-6 -14 -23 -32 -37 -42 -17 -11 -25 -25 -25 -46 l0
-29 30 21 29 21 3 -113 3 -113 25 0 25 0 3 163 2 162 -23 0 c-16 0 -28 -9 -35
-24z"/>
<path d="M20460 14155 c-7 -14 -24 -32 -37 -40 -16 -11 -23 -25 -23 -46 l0
-30 30 21 29 21 3 -113 c3 -109 4 -113 26 -116 l22 -3 0 165 c0 154 -1 166
-18 166 -10 0 -25 -11 -32 -25z"/>
<path d="M20570 14140 c0 -30 1 -30 55 -30 l56 0 -17 -32 c-30 -57 -54 -141
-54 -185 0 -40 2 -44 23 -41 18 2 23 11 28 54 8 64 32 136 64 193 40 69 38 71
-65 71 l-90 0 0 -30z"/>
<path d="M7960 14066 c0 -2 8 -10 18 -17 15 -13 16 -12 3 4 -13 16 -21 21 -21
13z"/>
<path d="M22191 14008 c-1 -27 4 -48 9 -48 12 0 12 47 0 75 -6 15 -9 8 -9 -27z"/>
<path d="M16666 13972 c-8 -54 -3 -73 14 -56 5 5 6 30 1 59 l-7 50 -8 -53z"/>
<path d="M5570 13986 c0 -10 13 -16 38 -18 l37 -3 3 -117 c2 -96 5 -118 17
-118 12 0 15 21 15 120 l0 120 35 0 c24 0 35 5 35 15 0 12 -17 15 -90 15 -72
0 -90 -3 -90 -14z"/>
<path d="M6660 13985 c0 -8 7 -15 15 -15 8 0 25 -23 39 -52 21 -44 23 -55 12
-68 -8 -8 -26 -39 -40 -67 -25 -51 -26 -53 -6 -53 14 0 28 17 50 60 17 33 37
60 45 60 12 0 15 -14 15 -60 0 -47 3 -60 15 -60 12 0 15 13 15 61 0 76 14 75
55 -4 19 -36 36 -57 48 -57 9 0 17 3 17 6 0 12 -63 124 -70 124 -12 0 40 101
56 107 24 9 17 35 -8 31 -17 -2 -31 -19 -50 -60 -15 -32 -32 -58 -38 -58 -6 0
-10 26 -10 60 0 46 -3 60 -15 60 -10 0 -15 -15 -17 -55 -2 -30 -7 -56 -13 -57
-5 -1 -20 19 -31 43 -12 24 -27 50 -33 57 -16 17 -51 15 -51 -3z"/>
<path d="M7955 13964 c-9 -15 -12 -23 -6 -20 11 7 35 46 28 46 -3 0 -12 -12
-22 -26z"/>
<path d="M5770 13913 c0 -10 12 -54 26 -98 27 -86 26 -120 -6 -128 -13 -3 -18
-10 -14 -21 9 -23 31 -20 49 7 18 28 84 239 78 250 -9 16 -23 -6 -45 -74 l-22
-70 -21 72 c-19 68 -45 104 -45 62z"/>
<path d="M5947 13912 c-10 -10 -17 -24 -17 -30 0 -18 27 -14 34 4 9 25 60 14
64 -13 3 -19 -3 -23 -38 -29 -49 -8 -76 -40 -66 -79 9 -35 42 -46 84 -29 17 7
32 9 32 3 0 -5 6 -9 13 -9 15 0 11 168 -5 188 -16 19 -82 15 -101 -6z m83
-111 c0 -22 -25 -51 -44 -51 -16 0 -36 21 -36 37 0 14 33 31 63 32 10 1 17 -6
17 -18z"/>
<path d="M6120 13850 c0 -62 -3 -82 -15 -86 -22 -9 -18 -34 5 -34 28 0 40 30
40 105 l0 66 33 -3 32 -3 3 -82 c2 -66 6 -83 18 -83 12 0 14 16 12 98 l-3 97
-62 3 -63 3 0 -81z"/>
<path d="M6306 13911 c-51 -57 -30 -178 32 -182 42 -3 82 20 82 48 0 19 -17
16 -41 -8 -18 -18 -23 -19 -42 -6 -12 8 -23 24 -25 36 -3 19 1 21 52 21 55 0
56 1 56 29 0 65 -74 106 -114 62z m72 -23 c24 -24 13 -38 -28 -38 -26 0 -40 5
-40 13 0 18 21 37 40 37 9 0 21 -5 28 -12z"/>
<path d="M6440 13915 c0 -9 9 -15 25 -15 25 0 25 -1 25 -85 0 -69 3 -85 15
-85 12 0 15 16 15 85 0 84 0 85 25 85 16 0 25 6 25 15 0 12 -14 15 -65 15 -51
0 -65 -3 -65 -15z"/>
<path d="M7874 13878 l-19 -23 23 19 c21 18 27 26 19 26 -2 0 -12 -10 -23 -22z"/>
<path d="M19675 13850 c-3 -6 1 -7 9 -4 18 7 21 14 7 14 -6 0 -13 -4 -16 -10z"/>
<path d="M18490 13836 c0 -2 8 -10 18 -17 15 -13 16 -12 3 4 -13 16 -21 21
-21 13z"/>
<path d="M19639 13823 c-13 -16 -12 -17 4 -4 9 7 17 15 17 17 0 8 -8 3 -21
-13z"/>
<path d="M31040 13815 c0 -10 11 -15 35 -15 l35 0 0 -120 c0 -100 3 -120 15
-120 13 0 15 20 15 120 l0 120 40 0 c29 0 40 4 40 15 0 12 -17 15 -90 15 -73
0 -90 -3 -90 -15z"/>
<path d="M32130 13817 c0 -8 9 -17 19 -20 11 -3 22 -17 26 -35 3 -17 13 -36
21 -43 12 -10 13 -14 0 -28 -13 -16 -66 -115 -66 -126 0 -3 6 -5 14 -5 8 0 29
27 46 59 46 85 60 86 60 6 0 -51 3 -65 15 -65 12 0 15 13 15 59 0 33 4 63 10
66 10 6 64 -71 76 -107 3 -10 14 -18 25 -18 18 0 18 3 -7 53 -14 28 -33 59
-40 68 -13 14 -13 20 0 45 8 16 17 37 21 47 3 11 14 21 25 24 29 8 25 33 -6
33 -21 0 -29 -9 -49 -55 -14 -32 -31 -55 -40 -55 -12 0 -15 13 -15 55 0 42 -3
55 -15 55 -12 0 -15 -13 -15 -55 0 -71 -18 -72 -51 -2 -17 37 -30 53 -46 55
-15 2 -23 -2 -23 -11z"/>
<path d="M19589 13783 l-24 -28 28 24 c15 14 27 26 27 28 0 8 -8 1 -31 -24z"/>
<path d="M18520 13796 c0 -2 8 -10 18 -17 15 -13 16 -12 3 4 -13 16 -21 21
-21 13z"/>
<path d="M18550 13756 c0 -2 8 -10 18 -17 15 -13 16 -12 3 4 -13 16 -21 21
-21 13z"/>
<path d="M31230 13753 c0 -5 13 -49 29 -99 29 -93 28 -134 -4 -134 -17 0 -20
-25 -4 -36 21 -13 48 32 83 142 39 121 42 138 24 132 -7 -3 -22 -36 -34 -74
-13 -38 -25 -62 -28 -54 -3 8 -12 41 -21 73 -10 35 -22 57 -31 57 -8 0 -14 -3
-14 -7z"/>
<path d="M31418 13748 c-22 -18 -31 -48 -14 -48 8 0 17 7 20 16 9 24 71 15 71
-11 0 -14 -10 -21 -40 -27 -46 -10 -65 -30 -65 -70 0 -38 38 -57 81 -41 17 7
31 7 35 2 16 -26 24 0 24 74 0 69 -3 87 -18 100 -22 20 -72 22 -94 5z m72
-138 c-16 -29 -64 -24 -68 7 -3 17 3 24 25 29 15 3 33 7 38 8 15 4 18 -20 5
-44z"/>
<path d="M31580 13675 c0 -69 -3 -85 -15 -85 -8 0 -15 -7 -15 -15 0 -18 31
-20 48 -3 7 7 12 42 12 85 l0 73 35 0 35 0 0 -85 c0 -69 3 -85 15 -85 12 0 15
18 15 100 l0 100 -65 0 -65 0 0 -85z"/>
<path d="M31766 13741 c-20 -22 -31 -80 -22 -116 16 -65 87 -87 126 -38 16 20
18 28 8 35 -8 5 -18 1 -27 -12 -17 -25 -57 -26 -71 -1 -19 36 -12 41 51 41
l62 0 -6 36 c-8 49 -33 74 -72 74 -18 0 -39 -8 -49 -19z m84 -30 c15 -30 14
-31 -35 -31 -25 0 -45 3 -45 6 0 20 24 44 45 44 14 0 29 -8 35 -19z"/>
<path d="M31907 13754 c-15 -15 -6 -24 23 -24 l30 0 0 -86 c0 -64 3 -85 13
-82 8 3 13 32 15 86 3 80 3 82 28 82 16 0 24 5 22 13 -5 13 -119 23 -131 11z"/>
<path d="M18580 13716 c0 -2 8 -10 18 -17 15 -13 16 -12 3 4 -13 16 -21 21
-21 13z"/>
<path d="M18610 13676 c0 -2 8 -10 18 -17 15 -13 16 -12 3 4 -13 16 -21 21
-21 13z"/>
<path d="M19520 13666 c0 -2 8 -10 18 -17 15 -13 16 -12 3 4 -13 16 -21 21
-21 13z"/>
<path d="M18330 13633 c-58 -8 -68 -14 -79 -44 -15 -42 -14 -118 2 -148 37
-74 117 -40 117 49 0 16 -11 41 -24 57 -22 25 -27 27 -54 17 -29 -11 -30 -11
-23 10 6 15 18 22 44 24 19 2 41 9 47 17 13 16 3 22 -30 18z m8 -141 c3 -40
-10 -72 -29 -72 -17 0 -39 33 -39 60 0 47 10 61 39 58 23 -3 26 -8 29 -46z"/>
<path d="M18640 13636 c0 -2 8 -10 18 -17 15 -13 16 -12 3 4 -13 16 -21 21
-21 13z"/>
<path d="M19950 13525 c0 -141 18 -155 22 -17 l3 97 43 3 c28 2 42 8 42 18 0
10 -14 14 -55 14 l-55 0 0 -115z"/>
<path d="M20914 13630 c-22 -9 -44 -56 -44 -94 -1 -21 -1 -21 -12 -1 -14 27
-38 45 -60 45 -23 0 -58 -38 -59 -64 -1 -14 -4 -10 -10 11 -12 41 -36 54 -83
46 l-37 -6 3 -108 c2 -62 7 -110 13 -112 6 -1 11 15 13 36 3 32 6 36 18 27 19
-17 61 11 70 46 l7 26 13 -30 c27 -64 90 -63 115 2 11 31 12 31 18 7 4 -13 19
-33 34 -45 l27 -20 28 21 c34 25 42 91 17 130 -14 20 -23 24 -51 21 -23 -3
-34 0 -34 8 0 17 17 27 59 33 46 8 54 31 9 30 -18 0 -43 -4 -54 -9z m-214 -99
c14 -28 13 -64 -4 -87 -31 -40 -68 19 -52 82 8 29 41 32 56 5z m128 7 c17 -17
15 -83 -3 -98 -23 -19 -49 -7 -59 28 -16 58 26 106 62 70z m129 4 c18 -11 25
-55 14 -85 -19 -49 -71 -25 -71 33 0 46 27 71 57 52z"/>
<path d="M17312 13518 c2 -78 7 -113 16 -116 9 -3 12 21 12 97 l0 101 45 0
c33 0 45 4 45 15 0 12 -13 15 -60 15 l-61 0 3 -112z"/>
<path d="M19550 13626 c0 -2 8 -10 18 -17 15 -13 16 -12 3 4 -13 16 -21 21
-21 13z"/>
<path d="M18670 13596 c0 -2 8 -10 18 -17 15 -13 16 -12 3 4 -13 16 -21 21
-21 13z"/>
<path d="M19610 13546 c19 -26 39 -50 44 -54 5 -3 -6 16 -24 42 -19 26 -39 50
-44 54 -5 3 6 -16 24 -42z"/>
<path d="M20090 13560 c-11 -11 -20 -24 -20 -30 0 -16 18 -12 28 6 11 20 56
15 60 -7 2 -11 -7 -18 -29 -23 -44 -8 -59 -23 -59 -57 0 -33 30 -54 63 -43 12
4 31 7 41 5 17 -3 18 3 14 68 -3 39 -11 78 -18 86 -17 21 -56 19 -80 -5z m70
-88 c0 -23 -19 -42 -41 -42 -22 0 -31 13 -23 34 5 13 15 17 57 25 4 0 7 -7 7
-17z"/>
<path d="M20245 13570 c-3 -5 -12 -7 -20 -3 -13 4 -15 -13 -15 -111 0 -71 4
-116 10 -116 6 0 10 18 10 40 0 37 1 39 20 28 16 -10 23 -9 43 11 30 28 40 70
26 111 -15 40 -59 65 -74 40z m51 -44 c15 -61 -16 -115 -50 -87 -16 13 -21 65
-10 95 10 26 53 20 60 -8z"/>
<path d="M20503 13565 c-45 -32 -35 -137 15 -156 20 -8 31 -6 51 9 14 10 27
24 29 30 6 18 -25 15 -32 -3 -11 -29 -66 -11 -66 22 0 9 16 13 50 13 47 0 50
2 50 25 0 27 -40 75 -62 75 -8 0 -23 -7 -35 -15z m65 -37 c3 -15 -4 -18 -32
-18 -38 0 -44 8 -24 28 17 17 52 11 56 -10z"/>
<path d="M17450 13549 c-16 -29 -4 -36 21 -14 21 20 48 13 57 -13 4 -12 -3
-16 -50 -26 -52 -12 -62 -80 -13 -92 13 -3 33 -1 44 6 14 7 21 7 21 0 0 -5 6
-10 13 -10 15 0 11 137 -5 158 -17 21 -76 15 -88 -9z m80 -83 c0 -19 -27 -46
-46 -46 -24 0 -29 31 -9 46 25 18 55 18 55 0z"/>
<path d="M17574 13561 c-2 -2 -4 -53 -4 -113 0 -89 3 -108 15 -108 10 0 15 10
15 34 0 30 3 33 24 29 37 -7 66 28 66 80 0 62 -22 88 -71 85 -23 -2 -42 -5
-45 -7z m86 -37 c15 -37 12 -59 -9 -85 -16 -20 -21 -21 -35 -10 -19 16 -22 91
-4 109 19 19 38 14 48 -14z"/>
<path d="M17725 13558 c-2 -7 -6 -38 -8 -68 -2 -30 -10 -56 -16 -58 -14 -5
-15 -82 -1 -82 6 0 10 11 10 25 0 23 3 25 49 25 42 0 50 -3 53 -20 2 -12 8
-21 13 -21 14 0 19 51 6 64 -6 6 -11 42 -11 79 l0 68 -45 0 c-28 0 -47 -5 -50
-12z m75 -73 l0 -55 -34 0 -34 0 5 43 c7 62 10 67 38 67 24 0 25 -3 25 -55z"/>
<path d="M17860 13555 c-7 -8 -15 -34 -17 -58 -8 -71 43 -116 98 -87 10 6 19
20 19 32 l0 21 -24 -22 c-20 -19 -28 -21 -45 -12 -12 7 -21 21 -21 31 0 17 7
20 50 20 42 0 50 3 50 19 0 10 -9 30 -21 45 -23 29 -69 35 -89 11z m68 -17
c23 -23 13 -38 -23 -38 -22 0 -35 5 -35 13 0 16 20 37 35 37 6 0 16 -5 23 -12z"/>
<path d="M17980 13453 c0 -94 3 -113 15 -113 10 0 15 10 15 34 0 29 3 33 20
29 25 -7 49 12 66 52 10 23 13 25 14 10 1 -57 61 -84 100 -45 25 25 27 95 4
128 -29 42 -104 18 -104 -34 0 -13 -6 -8 -18 16 -16 32 -21 35 -64 36 l-48 1
0 -114z m78 85 c17 -17 15 -93 -3 -108 -35 -29 -70 51 -41 95 18 28 27 30 44
13z m126 6 c24 -9 31 -69 12 -99 -9 -14 -21 -25 -26 -25 -19 0 -40 33 -40 65
0 18 7 41 16 49 18 18 17 18 38 10z"/>
<path d="M20352 13503 c-6 -37 -16 -69 -22 -71 -13 -5 -13 -72 -1 -72 5 0 11
10 13 23 3 19 9 22 53 22 44 0 50 -3 53 -22 5 -36 22 -27 22 12 0 19 -4 35
-10 35 -6 0 -10 30 -10 70 l0 70 -44 0 -43 0 -11 -67z m78 -13 l0 -60 -36 0
c-27 0 -35 4 -31 14 3 7 9 34 12 60 6 40 10 46 31 46 23 0 24 -3 24 -60z"/>
<path d="M18700 13556 c0 -2 8 -10 18 -17 15 -13 16 -12 3 4 -13 16 -21 21
-21 13z"/>
<path d="M21641 13523 c1 -21 5 -49 9 -63 8 -24 8 -24 9 6 1 17 4 46 7 63 5
24 3 31 -10 31 -12 0 -16 -9 -15 -37z"/>
<path d="M18730 13516 c0 -2 8 -10 18 -17 15 -13 16 -12 3 4 -13 16 -21 21
-21 13z"/>
<path d="M19660 13476 c0 -2 8 -10 18 -17 15 -13 16 -12 3 4 -13 16 -21 21
-21 13z"/>
<path d="M16058 13463 c-7 -13 6 -129 13 -118 13 19 14 118 2 122 -6 2 -13 0
-15 -4z"/>
<path d="M19690 13436 c0 -2 8 -10 18 -17 15 -13 16 -12 3 4 -13 16 -21 21
-21 13z"/>
<path d="M31459 13403 c-13 -16 -12 -17 4 -4 9 7 17 15 17 17 0 8 -8 3 -21
-13z"/>
<path d="M18729 13383 c-13 -16 -12 -17 4 -4 16 13 21 21 13 21 -2 0 -10 -8
-17 -17z"/>
<path d="M19720 13396 c0 -2 8 -10 18 -17 15 -13 16 -12 3 4 -13 16 -21 21
-21 13z"/>
<path d="M31395 13359 c-59 -45 -67 -57 -12 -18 42 29 65 50 55 49 -2 0 -21
-14 -43 -31z"/>
<path d="M19750 13356 c0 -2 8 -10 18 -17 15 -13 16 -12 3 4 -13 16 -21 21
-21 13z"/>
<path d="M18645 13304 c-18 -16 -22 -22 -9 -15 18 9 53 42 43 41 -2 -1 -17
-12 -34 -26z"/>
<path d="M19780 13316 c0 -2 8 -10 18 -17 15 -13 16 -12 3 4 -13 16 -21 21
-21 13z"/>
<path d="M31309 13293 c-13 -16 -12 -17 4 -4 9 7 17 15 17 17 0 8 -8 3 -21
-13z"/>
<path d="M31269 13263 c-13 -16 -12 -17 4 -4 16 13 21 21 13 21 -2 0 -10 -8
-17 -17z"/>
<path d="M30980 13216 c19 -21 44 -42 55 -48 11 -6 18 -9 15 -6 -3 2 -27 24
-55 48 -48 42 -48 42 -15 6z"/>
<path d="M31229 13233 c-13 -16 -12 -17 4 -4 9 7 17 15 17 17 0 8 -8 3 -21
-13z"/>
<path d="M31189 13203 c-13 -16 -12 -17 4 -4 9 7 17 15 17 17 0 8 -8 3 -21
-13z"/>
<path d="M31149 13173 c-13 -16 -12 -17 4 -4 9 7 17 15 17 17 0 8 -8 3 -21
-13z"/>
<path d="M31106 13145 c-11 -8 -15 -15 -9 -15 6 0 16 7 23 15 16 19 11 19 -14
0z"/>
<path d="M29143 12848 c-43 -57 -66 -91 -58 -86 12 7 78 98 72 98 -3 0 -9 -6
-14 -12z"/>
<path d="M31615 12850 c28 -12 85 -12 85 0 0 6 -24 10 -52 9 -39 0 -48 -3 -33
-9z"/>
<path d="M6810 12766 c0 -2 8 -10 18 -17 15 -13 16 -12 3 4 -13 16 -21 21 -21
13z"/>
<path d="M29059 12733 c-13 -16 -12 -17 4 -4 9 7 17 15 17 17 0 8 -8 3 -21
-13z"/>
<path d="M6840 12726 c0 -2 8 -10 18 -17 15 -13 16 -12 3 4 -13 16 -21 21 -21
13z"/>
<path d="M29029 12693 c-13 -16 -12 -17 4 -4 9 7 17 15 17 17 0 8 -8 3 -21
-13z"/>
<path d="M6870 12686 c0 -2 8 -10 18 -17 15 -13 16 -12 3 4 -13 16 -21 21 -21
13z"/>
<path d="M28999 12653 c-13 -16 -12 -17 4 -4 9 7 17 15 17 17 0 8 -8 3 -21
-13z"/>
<path d="M6900 12646 c0 -2 8 -10 18 -17 15 -13 16 -12 3 4 -13 16 -21 21 -21
13z"/>
<path d="M28969 12613 c-13 -16 -12 -17 4 -4 9 7 17 15 17 17 0 8 -8 3 -21
-13z"/>
<path d="M6937 12598 c69 -90 161 -216 166 -228 3 -10 6 -10 6 -2 1 12 -167
242 -176 242 -3 0 -1 -6 4 -12z"/>
<path d="M28939 12573 c-13 -16 -12 -17 4 -4 9 7 17 15 17 17 0 8 -8 3 -21
-13z"/>
<path d="M28913 12538 c-43 -57 -66 -91 -58 -86 12 7 78 98 72 98 -3 0 -9 -6
-14 -12z"/>
<path d="M5590 12415 c-7 -14 -24 -32 -37 -40 -14 -9 -23 -25 -23 -40 0 -29 7
-31 38 -9 l22 15 0 -110 0 -111 30 0 30 0 0 160 0 160 -23 0 c-15 0 -29 -9
-37 -25z"/>
<path d="M5756 12421 c-24 -26 -36 -76 -36 -151 0 -109 54 -180 115 -152 42
19 57 71 53 178 -3 81 -6 95 -27 118 -30 31 -80 35 -105 7z m74 -57 c6 -14 10
-52 10 -84 0 -32 -4 -70 -10 -84 -10 -26 -34 -35 -45 -16 -9 14 -9 161 -1 188
10 30 34 28 46 -4z"/>
<path d="M5951 12414 c-30 -38 -28 -74 3 -74 18 0 25 6 28 23 2 16 10 22 28
22 21 0 25 -5 28 -35 2 -28 -4 -43 -31 -75 -52 -61 -87 -116 -87 -136 0 -17 9
-19 91 -19 l90 0 -3 28 c-3 25 -7 27 -51 30 l-48 3 34 42 c66 81 79 124 52
176 -16 33 -33 41 -80 41 -24 0 -39 -7 -54 -26z"/>
<path d="M28878 12385 c12 -23 107 -115 119 -115 4 0 -9 14 -29 30 -21 17 -51
47 -69 68 -17 20 -26 28 -21 17z"/>
<path d="M7041 12277 c-25 -28 -32 -41 -17 -27 26 23 71 80 64 80 -2 0 -23
-24 -47 -53z"/>
<path d="M32150 12248 c0 -16 5 -19 23 -14 12 3 42 6 67 6 61 0 39 16 -32 23
-54 5 -58 4 -58 -15z"/>
<path d="M6954 12204 c-18 -14 -18 -15 4 -4 12 6 22 13 22 15 0 8 -5 6 -26
-11z"/>
<path d="M7606 12023 c15 -27 34 -57 41 -68 20 -30 17 -41 -32 -122 -25 -40
-45 -76 -45 -78 0 -3 9 -5 19 -5 13 0 31 20 56 65 20 36 38 65 40 65 2 0 20
-29 40 -65 25 -45 43 -65 56 -65 10 0 19 3 19 7 0 3 -21 42 -46 85 l-46 78 41
69 c46 78 47 81 26 81 -8 0 -31 -25 -51 -56 l-36 -56 -35 56 c-23 37 -41 56
-54 56 -19 0 -18 -3 7 -47z"/>
<path d="M7869 11975 c-45 -25 -62 -105 -36 -168 29 -69 91 -81 140 -27 27 31
29 37 25 98 -4 56 -8 68 -32 88 -31 27 -59 30 -97 9z m70 -32 c27 -23 38 -83
21 -123 -16 -38 -53 -49 -80 -25 -28 26 -28 117 0 145 24 24 32 25 59 3z"/>
<path d="M8050 11885 c0 -76 -3 -97 -15 -101 -24 -10 -17 -34 10 -34 35 0 45
27 45 119 l0 81 40 0 40 0 0 -101 c0 -90 2 -100 18 -97 15 3 17 18 20 116 l3
112 -81 0 -80 0 0 -95z"/>
<path d="M8270 11884 c0 -88 -2 -96 -20 -101 -24 -6 -21 -26 4 -31 36 -7 46
16 46 109 l0 89 45 0 45 0 0 -100 c0 -82 3 -100 15 -100 12 0 15 19 15 115 l0
115 -75 0 -75 0 0 -96z"/>
<path d="M5050 11765 c0 -113 2 -135 15 -135 13 0 15 20 15 120 l0 120 50 0
c38 0 50 4 50 15 0 12 -14 15 -65 15 l-65 0 0 -135z"/>
<path d="M5790 11880 c0 -11 7 -20 15 -20 8 0 15 9 15 20 0 11 -7 20 -15 20
-8 0 -15 -9 -15 -20z"/>
<path d="M5850 11879 c0 -24 23 -21 28 4 2 10 -3 17 -12 17 -10 0 -16 -9 -16
-21z"/>
<path d="M5210 11693 c0 -112 2 -133 15 -133 11 0 15 11 15 41 0 36 2 40 20
34 53 -17 96 38 87 112 -7 63 -29 83 -88 81 l-49 -2 0 -133z m100 88 c23 -44
5 -121 -28 -121 -29 0 -42 21 -42 70 0 25 5 51 12 58 18 18 46 14 58 -7z"/>
<path d="M5380 11730 c0 -125 14 -131 67 -27 l38 72 3 -73 c2 -52 6 -72 15
-69 8 2 12 33 12 98 0 123 -15 129 -67 27 l-37 -73 0 73 c-1 57 -4 72 -16 72
-12 0 -15 -18 -15 -100z"/>
<path d="M5554 11817 c-10 -27 1 -180 13 -184 9 -3 13 18 15 74 l3 78 21 -75
c13 -47 25 -75 34 -75 8 0 23 28 36 70 l22 70 1 -73 c1 -54 4 -73 14 -69 8 2
12 31 12 98 0 87 -2 94 -20 94 -15 0 -24 -14 -41 -69 -11 -38 -24 -65 -26 -60
-3 5 -14 37 -23 72 -14 48 -22 62 -37 62 -10 0 -21 -6 -24 -13z"/>
<path d="M5781 11804 c-15 -19 -21 -41 -21 -74 0 -62 28 -100 74 -100 39 0 72
30 61 57 -6 17 -8 16 -22 -4 -19 -28 -59 -30 -73 -4 -18 35 -12 41 44 41 30 0
58 5 61 10 10 16 -15 79 -35 90 -33 18 -68 11 -89 -16z m90 -31 c8 -22 6 -23
-36 -23 -30 0 -45 4 -45 13 0 41 67 48 81 10z"/>
<path d="M5940 11693 c0 -112 2 -133 15 -133 11 0 15 11 15 41 0 36 2 40 20
34 53 -17 96 38 87 112 -7 63 -29 83 -88 81 l-49 -2 0 -133z m100 88 c23 -44
5 -121 -28 -121 -29 0 -42 21 -42 70 0 25 5 51 12 58 18 18 46 14 58 -7z"/>
<path d="M6110 11730 c0 -82 3 -100 15 -100 11 0 15 12 15 45 0 45 0 45 35 45
35 0 35 0 35 -45 0 -33 4 -45 15 -45 12 0 15 18 15 100 0 82 -3 100 -15 100
-11 0 -15 -11 -15 -40 0 -39 -1 -40 -35 -40 -34 0 -35 1 -35 40 0 29 -4 40
-15 40 -12 0 -15 -18 -15 -100z"/>
<path d="M6296 11814 c-18 -17 -21 -44 -6 -44 5 0 13 7 18 16 13 24 67 15 67
-11 0 -12 -8 -21 -20 -23 -67 -11 -93 -39 -81 -88 8 -29 47 -41 84 -24 18 8
28 8 30 1 2 -6 9 -11 15 -11 14 0 10 155 -4 183 -12 22 -81 23 -103 1z m73
-140 c-18 -22 -64 -14 -64 11 0 14 10 23 35 31 32 11 35 10 38 -8 2 -10 -2
-26 -9 -34z"/>
<path d="M6466 11817 c-25 -18 -26 -73 -2 -90 17 -13 17 -15 -3 -48 -24 -40
-26 -49 -8 -49 7 0 23 18 36 40 31 56 61 55 61 -1 0 -28 4 -39 13 -36 8 2 12
31 12 98 l0 94 -45 3 c-27 2 -53 -3 -64 -11z m84 -47 c0 -27 -3 -30 -34 -30
-22 0 -36 6 -40 16 -9 24 12 44 45 44 26 0 29 -4 29 -30z"/>
<path d="M31520 10765 c-7 -14 -24 -32 -37 -40 -14 -9 -23 -25 -23 -40 0 -29
7 -31 38 -9 l22 15 0 -110 0 -111 30 0 30 0 0 160 0 160 -23 0 c-15 0 -29 -9
-37 -25z"/>
<path d="M31703 10744 c-60 -62 -56 -118 4 -62 l23 21 0 -116 0 -117 25 0 25
0 0 160 c0 185 -4 191 -77 114z"/>
<path d="M31881 10764 c-30 -38 -28 -74 3 -74 18 0 25 6 28 23 2 16 10 22 28
22 21 0 25 -5 28 -35 2 -28 -4 -43 -31 -75 -52 -61 -87 -116 -87 -136 0 -17 9
-19 91 -19 l90 0 -3 28 c-3 25 -7 27 -51 30 l-48 3 34 42 c66 81 79 124 52
176 -16 33 -33 41 -80 41 -24 0 -39 -7 -54 -26z"/>
<path d="M8049 10723 c-13 -16 -12 -17 4 -4 9 7 17 15 17 17 0 8 -8 3 -21 -13z"/>
<path d="M8009 10693 c-13 -16 -12 -17 4 -4 16 13 21 21 13 21 -2 0 -10 -8
-17 -17z"/>
<path d="M8200 10675 c19 -19 36 -35 39 -35 3 0 -10 16 -29 35 -19 19 -36 35
-39 35 -3 0 10 -16 29 -35z"/>
<path d="M7969 10663 c-13 -16 -12 -17 4 -4 9 7 17 15 17 17 0 8 -8 3 -21 -13z"/>
<path d="M7929 10633 c-13 -16 -12 -17 4 -4 16 13 21 21 13 21 -2 0 -10 -8
-17 -17z"/>
<path d="M7889 10603 c-13 -16 -12 -17 4 -4 16 13 21 21 13 21 -2 0 -10 -8
-17 -17z"/>
<path d="M8266 10587 c3 -10 9 -15 12 -12 3 3 0 11 -7 18 -10 9 -11 8 -5 -6z"/>
<path d="M7849 10573 c-13 -16 -12 -17 4 -4 9 7 17 15 17 17 0 8 -8 3 -21 -13z"/>
<path d="M7809 10543 c-13 -16 -12 -17 4 -4 9 7 17 15 17 17 0 8 -8 3 -21 -13z"/>
<path d="M7769 10513 c-13 -16 -12 -17 4 -4 16 13 21 21 13 21 -2 0 -10 -8
-17 -17z"/>
<path d="M19429 10493 c-13 -16 -12 -17 4 -4 9 7 17 15 17 17 0 8 -8 3 -21
-13z"/>
<path d="M7729 10483 c-13 -16 -12 -17 4 -4 16 13 21 21 13 21 -2 0 -10 -8
-17 -17z"/>
<path d="M19389 10463 c-13 -16 -12 -17 4 -4 16 13 21 21 13 21 -2 0 -10 -8
-17 -17z"/>
<path d="M19349 10433 c-13 -16 -12 -17 4 -4 9 7 17 15 17 17 0 8 -8 3 -21
-13z"/>
<path d="M19309 10403 c-13 -16 -12 -17 4 -4 9 7 17 15 17 17 0 8 -8 3 -21
-13z"/>
<path d="M18890 10371 c5 -11 15 -23 21 -27 6 -3 3 5 -6 20 -20 30 -30 35 -15
7z"/>
<path d="M19269 10373 c-13 -16 -12 -17 4 -4 16 13 21 21 13 21 -2 0 -10 -8
-17 -17z"/>
<path d="M19205 10329 c-59 -45 -67 -57 -12 -18 42 29 65 50 55 49 -2 0 -21
-14 -43 -31z"/>
<path d="M18950 10295 c19 -19 36 -35 39 -35 3 0 -10 16 -29 35 -19 19 -36 35
-39 35 -3 0 10 -16 29 -35z"/>
<path d="M19119 10263 c-13 -16 -12 -17 4 -4 16 13 21 21 13 21 -2 0 -10 -8
-17 -17z"/>
<path d="M19079 10233 c-13 -16 -12 -17 4 -4 9 7 17 15 17 17 0 8 -8 3 -21
-13z"/>
<path d="M30990 10090 c0 -136 2 -160 15 -160 12 0 15 15 15 75 0 102 16 100
75 -7 25 -47 43 -68 56 -68 10 0 19 3 19 6 0 16 -75 147 -87 151 -11 4 -11 8
-1 21 7 8 20 33 28 56 11 29 22 42 38 44 31 5 30 42 -1 42 -30 0 -49 -22 -71
-82 -13 -35 -23 -48 -37 -48 -17 0 -19 8 -19 65 0 51 -3 65 -15 65 -13 0 -15
-24 -15 -160z"/>
<path d="M31510 10205 c0 -44 0 -44 -29 -39 -91 19 -123 -166 -40 -228 22 -16
30 -18 48 -9 20 11 21 10 21 -39 0 -43 3 -50 20 -50 17 0 20 7 20 50 0 53 2
55 28 41 66 -34 119 103 76 195 -18 38 -56 54 -86 35 -17 -10 -18 -7 -18 39 0
43 -3 50 -20 50 -17 0 -20 -7 -20 -45z m-16 -81 c21 -21 22 -136 1 -154 -19
-16 -52 -4 -59 23 -11 41 -6 102 10 125 18 26 27 27 48 6z m119 1 c30 -30 33
-118 5 -152 -17 -22 -48 -15 -58 13 -15 38 -12 107 6 132 18 26 27 27 47 7z"/>
<path d="M31232 10163 c-7 -3 -19 -17 -27 -33 -13 -25 -13 -29 1 -34 8 -3 17
1 21 9 15 41 93 37 93 -4 0 -19 -6 -23 -65 -36 -43 -9 -65 -33 -65 -69 0 -39
9 -52 41 -64 17 -7 34 -6 57 3 19 8 34 10 37 4 4 -5 13 -9 22 -9 24 0 14 192
-12 220 -17 19 -71 26 -103 13z m72 -184 c-20 -23 -57 -25 -74 -5 -18 22 2 48
47 61 36 10 38 10 41 -13 2 -13 -4 -32 -14 -43z"/>
<path d="M31730 10142 c-58 -58 -46 -172 21 -205 44 -21 79 -12 105 28 15 23
15 28 3 36 -10 6 -19 1 -32 -16 -23 -31 -61 -32 -81 -3 -33 47 -23 58 54 58
l70 0 0 34 c0 22 -9 45 -26 65 -34 41 -75 42 -114 3z m82 -14 c9 -7 19 -23 23
-35 6 -22 4 -23 -49 -23 -58 0 -68 9 -43 41 11 14 31 26 48 28 3 1 12 -5 21
-11z"/>
<path d="M31936 10124 c-3 -26 -6 -59 -6 -73 0 -15 -9 -44 -20 -66 -23 -44
-28 -129 -7 -123 6 3 13 19 15 36 l3 32 69 0 69 0 3 -32 c5 -55 28 -46 28 11
0 28 -4 51 -10 51 -6 0 -10 42 -10 105 l0 105 -64 0 -63 0 -7 -46z m102 -76
l-3 -83 -49 -3 c-42 -3 -48 -1 -42 13 3 9 9 42 12 73 8 80 9 82 49 82 l36 0
-3 -82z"/>
<path d="M32130 10005 c0 -140 2 -165 15 -165 12 0 15 13 15 55 l0 55 24 -15
c22 -15 28 -15 53 -1 37 19 53 54 53 116 0 89 -41 135 -101 113 -17 -7 -31 -7
-35 -2 -18 30 -24 -7 -24 -156z m115 105 c41 -80 -10 -185 -66 -134 -14 13
-19 30 -19 68 0 88 53 129 85 66z"/>
<path d="M32350 10148 c-22 -23 -23 -49 -3 -55 6 -2 14 5 17 15 14 42 90 32
84 -11 -2 -17 -12 -23 -48 -29 -27 -5 -52 -16 -62 -29 -51 -61 14 -139 85
-103 21 12 32 13 35 5 2 -6 11 -11 20 -11 15 0 16 12 12 106 -5 89 -8 108 -25
120 -30 22 -91 18 -115 -8z m100 -131 c0 -31 -32 -59 -62 -55 -18 2 -23 9 -23
33 0 23 6 31 25 36 48 13 60 10 60 -14z"/>
<path d="M32673 9695 c2 -5 12 -10 22 -10 10 0 20 5 22 10 2 6 -8 10 -22 10
-14 0 -23 -4 -22 -10z"/>
<path d="M30862 9654 c-17 -12 -22 -25 -22 -58 0 -67 47 -98 85 -56 24 26 11
39 -15 15 -16 -14 -22 -15 -35 -5 -28 23 -18 40 25 40 33 0 40 3 40 20 0 20
-32 60 -48 60 -4 0 -18 -7 -30 -16z m56 -31 c2 -9 -7 -13 -27 -13 -30 0 -39 9
-24 24 11 10 46 3 51 -11z"/>
<path d="M31229 9651 c-13 -11 -21 -23 -16 -27 4 -4 13 -2 19 4 16 16 48 15
48 -2 0 -7 -15 -17 -32 -22 -25 -7 -34 -16 -36 -35 -4 -36 21 -55 53 -41 15 7
25 8 25 2 0 -6 5 -10 10 -10 6 0 10 25 10 55 0 42 -5 60 -20 75 -25 25 -32 25
-61 1z m49 -83 c-2 -15 -10 -23 -23 -23 -25 0 -32 32 -8 38 32 8 34 7 31 -15z"/>
<path d="M31440 9648 c-49 -52 -1 -150 58 -119 42 22 39 110 -4 130 -32 14
-30 15 -54 -11z m64 -31 c12 -51 -19 -91 -49 -61 -29 29 -16 84 20 84 15 0 25
-7 29 -23z"/>
<path d="M32308 9659 c-19 -11 -25 -39 -8 -39 6 0 10 5 10 10 0 6 11 10 25 10
35 0 32 -27 -4 -35 -37 -8 -54 -28 -46 -54 7 -24 41 -37 59 -22 9 7 16 7 24
-1 9 -9 12 4 12 55 0 55 -3 68 -19 77 -24 12 -31 12 -53 -1z m52 -82 c0 -16
-20 -37 -36 -37 -23 0 -24 30 -1 40 31 12 37 12 37 -3z"/>
<path d="M30690 9596 c0 -36 5 -68 10 -71 6 -4 10 14 11 47 l1 53 17 -50 c10
-27 22 -49 26 -48 5 1 15 19 21 40 l12 38 1 -37 c1 -20 6 -40 11 -43 6 -4 10
20 10 64 0 88 -20 96 -40 19 l-14 -53 -14 53 c-11 39 -20 52 -33 52 -17 0 -19
-8 -19 -64z"/>
<path d="M30976 9610 c-4 -27 -11 -52 -16 -55 -13 -8 -13 -65 0 -65 6 0 10 7
10 15 0 11 11 15 40 15 29 0 40 -4 40 -15 0 -8 5 -15 11 -15 8 0 10 15 5 46
-3 26 -6 64 -6 85 0 39 0 39 -39 39 l-38 0 -7 -50z m64 -15 c0 -43 -1 -45 -29
-45 -22 0 -28 4 -26 18 14 67 16 72 35 72 17 0 20 -7 20 -45z"/>
<path d="M31090 9596 c0 -36 4 -67 10 -71 5 -3 20 16 34 42 l25 48 1 -42 c0
-23 5 -45 10 -48 6 -4 10 20 10 64 0 40 -4 71 -10 71 -5 0 -21 -21 -34 -47
l-25 -48 -1 48 c0 26 -4 47 -10 47 -6 0 -10 -28 -10 -64z"/>
<path d="M31330 9596 c0 -36 5 -68 10 -71 6 -4 10 7 10 24 0 40 15 39 36 -1
10 -18 19 -28 21 -21 2 6 -3 25 -11 41 -15 29 -12 72 5 72 5 0 9 5 9 10 0 19
-21 10 -32 -15 -6 -14 -15 -25 -20 -25 -4 0 -8 11 -8 25 0 14 -4 25 -10 25 -6
0 -10 -28 -10 -64z"/>
<path d="M31550 9590 c0 -76 19 -92 21 -17 l1 42 15 -48 c8 -26 18 -45 23 -42
6 3 16 27 24 53 l15 47 0 -53 c1 -33 5 -51 11 -47 6 3 10 35 10 71 0 80 -22
89 -44 17 -13 -46 -14 -47 -24 -23 -5 14 -11 34 -13 45 -3 11 -12 21 -22 23
-15 3 -17 -5 -17 -68z"/>
<path d="M31700 9590 c0 -76 19 -92 21 -17 l1 42 15 -48 c8 -26 18 -45 23 -42
6 3 16 27 24 53 l15 47 0 -53 c1 -33 5 -51 11 -47 6 3 10 35 10 71 0 80 -22
89 -44 17 -13 -46 -14 -47 -24 -23 -5 14 -11 34 -13 45 -3 11 -12 21 -22 23
-15 3 -17 -5 -17 -68z"/>
<path d="M31840 9657 c0 -3 9 -35 21 -72 19 -61 19 -68 5 -84 -20 -22 -20 -31
-2 -31 14 0 23 19 52 110 9 30 19 61 22 68 2 6 -1 12 -7 12 -6 0 -17 -21 -25
-47 -13 -46 -14 -47 -24 -23 -5 14 -11 34 -13 44 -3 16 -29 37 -29 23z"/>
<path d="M31960 9589 c0 -44 4 -68 10 -64 6 3 10 17 10 31 0 19 5 24 25 24 21
0 25 -5 25 -30 0 -16 5 -30 10 -30 6 0 10 30 10 70 0 40 -4 70 -10 70 -5 0
-10 -11 -10 -25 0 -20 -5 -25 -25 -25 -20 0 -25 5 -25 25 0 14 -4 25 -10 25
-6 0 -10 -30 -10 -71z"/>
<path d="M32080 9589 c0 -80 8 -82 45 -11 l24 47 1 -53 c0 -33 4 -51 10 -47 6
3 10 35 10 71 0 77 -16 84 -47 22 l-22 -43 0 43 c-1 23 -5 42 -11 42 -6 0 -10
-30 -10 -71z"/>
<path d="M32200 9589 c0 -44 4 -68 10 -64 6 3 10 21 10 38 l1 32 21 -40 c12
-22 23 -35 25 -28 2 6 -3 26 -12 44 -16 30 -16 33 4 60 17 23 18 29 7 29 -9 0
-22 -12 -30 -27 l-15 -28 -1 28 c0 15 -4 27 -10 27 -6 0 -10 -30 -10 -71z"/>
<path d="M32410 9590 l0 -70 40 0 c33 0 40 -3 40 -19 0 -11 5 -23 12 -27 8 -5
9 9 5 56 -4 35 -7 78 -7 96 0 19 -4 34 -10 34 -5 0 -10 -25 -10 -55 0 -52 -1
-55 -25 -55 -24 0 -25 3 -25 55 0 30 -4 55 -10 55 -6 0 -10 -30 -10 -70z"/>
<path d="M32530 9590 c0 -39 4 -70 10 -70 5 0 21 21 34 48 l25 47 1 -42 c0
-23 5 -45 10 -48 6 -4 10 20 10 64 0 40 -4 71 -10 71 -5 0 -21 -21 -34 -47
l-25 -48 -1 48 c0 26 -4 47 -10 47 -6 0 -10 -30 -10 -70z"/>
<path d="M32650 9590 c0 -39 4 -70 10 -70 5 0 21 21 34 48 l25 47 1 -42 c0
-23 5 -45 10 -48 6 -4 10 20 10 64 0 40 -4 71 -10 71 -5 0 -21 -21 -34 -47
l-25 -48 -1 48 c0 26 -4 47 -10 47 -6 0 -10 -30 -10 -70z"/>
<path d="M32774 9521 c1 -16 4 -27 9 -24 10 6 9 53 -2 53 -4 0 -8 -13 -7 -29z"/>
<path d="M30164 9458 l-19 -23 23 19 c12 11 22 21 22 23 0 8 -8 2 -26 -19z"/>
<path d="M30093 9388 c-15 -20 -25 -38 -20 -38 3 0 12 11 21 25 17 26 16 35
-1 13z"/>
<path d="M30914 9301 c-9 -9 -3 -180 6 -186 6 -4 10 9 10 31 0 30 3 34 14 25
17 -14 43 -5 56 20 16 29 12 84 -7 102 -16 14 -68 19 -79 8z m65 -25 c7 -8 11
-30 9 -48 -2 -25 -8 -34 -25 -36 -28 -4 -41 37 -24 74 12 27 23 30 40 10z"/>
<path d="M31030 9293 c0 -11 7 -40 15 -63 20 -56 19 -90 -1 -90 -9 0 -14 -6
-11 -12 2 -7 10 -13 18 -13 14 0 67 139 68 178 2 32 -16 9 -29 -40 l-14 -47
-15 46 c-18 54 -31 70 -31 41z"/>
<path d="M31157 9292 c-30 -33 -18 -112 18 -126 24 -9 55 12 55 37 -1 21 -1
21 -15 4 -22 -30 -50 -18 -53 24 -4 48 20 70 48 44 16 -14 20 -15 20 -4 0 38
-46 51 -73 21z"/>
<path d="M31267 9292 c-30 -33 -18 -112 18 -126 24 -9 55 12 55 37 -1 21 -1
21 -15 4 -22 -30 -50 -18 -53 24 -4 48 20 70 48 44 16 -14 20 -15 20 -4 0 38
-46 51 -73 21z"/>
<path d="M31368 9304 c-12 -11 -10 -134 2 -134 6 0 10 14 10 30 0 17 4 30 9
30 5 0 14 -13 21 -30 7 -16 16 -30 21 -30 12 0 11 7 -5 39 -15 28 -12 71 5 71
5 0 9 7 9 15 0 23 -27 6 -34 -21 -9 -34 -24 -30 -28 7 -2 17 -6 27 -10 23z"/>
<path d="M31466 9288 c-23 -33 -20 -75 9 -103 31 -32 39 -31 65 2 17 21 20 36
16 63 -9 58 -61 80 -90 38z m65 -25 c13 -35 -3 -73 -31 -73 -25 0 -37 42 -21
76 14 32 39 31 52 -3z"/>
<path d="M31580 9240 c0 -40 4 -70 10 -70 6 0 10 25 10 55 0 48 2 55 20 55 11
0 20 7 20 15 0 10 -10 15 -30 15 l-30 0 0 -70z"/>
<path d="M31666 9288 c-23 -33 -20 -75 9 -103 31 -32 39 -31 65 2 17 21 20 36
16 63 -9 58 -61 80 -90 38z m65 -25 c13 -35 -3 -73 -31 -73 -25 0 -37 42 -21
76 14 32 39 31 52 -3z"/>
<path d="M31850 9290 c-19 -19 -20 -23 -7 -44 13 -19 13 -25 1 -49 -12 -23
-12 -27 -1 -27 8 0 19 11 25 25 6 14 18 25 27 25 9 0 15 -9 15 -25 0 -14 5
-25 10 -25 7 0 10 25 8 68 -3 64 -4 67 -30 70 -17 2 -34 -4 -48 -18z m60 -31
c0 -15 -5 -20 -22 -17 -34 5 -37 38 -4 38 20 0 26 -5 26 -21z"/>
<path d="M31960 9295 c-17 -20 -5 -32 15 -15 13 10 18 11 28 1 9 -10 8 -15 -7
-27 -19 -14 -19 -14 -1 -28 22 -16 14 -49 -10 -40 -8 3 -15 10 -15 15 0 5 -4
9 -10 9 -18 0 -11 -29 10 -40 14 -7 26 -8 39 0 16 8 20 20 19 63 0 28 -5 58
-11 65 -13 17 -42 15 -57 -3z"/>
<path d="M32058 9304 c-5 -4 -8 -36 -8 -71 l0 -64 43 3 c38 3 42 6 45 32 4 31
-10 46 -45 46 -17 0 -22 7 -25 31 -2 17 -6 27 -10 23z m62 -94 c0 -15 -7 -20
-25 -20 -18 0 -25 5 -25 20 0 15 7 20 25 20 18 0 25 -5 25 -20z"/>
<path d="M32167 9303 c-11 -10 -8 -133 3 -133 6 0 10 30 10 70 0 70 -1 76 -13
63z"/>
<path d="M32218 9304 c-12 -11 -10 -134 2 -134 6 0 10 15 11 33 0 28 2 30 12
14 28 -43 36 -52 42 -45 4 3 -1 20 -10 38 -16 30 -13 70 6 70 5 0 9 7 9 15 0
22 -25 8 -41 -23 l-13 -27 -5 33 c-3 19 -9 30 -13 26z"/>
<path d="M32316 9294 c-9 -8 -13 -20 -10 -26 5 -7 12 -5 20 7 7 10 20 15 29
12 26 -10 17 -32 -17 -42 -25 -8 -34 -16 -36 -37 -4 -32 30 -57 52 -39 8 6 21
8 31 5 16 -7 17 -1 13 55 -4 63 -15 81 -50 81 -9 0 -24 -7 -32 -16z m54 -83
c0 -20 -25 -35 -41 -25 -13 8 -11 32 4 37 25 11 37 7 37 -12z"/>
<path d="M32480 9241 c0 -40 4 -71 10 -71 5 0 21 21 34 48 l25 47 1 -47 c0
-27 5 -48 10 -48 6 0 10 30 10 70 0 39 -4 70 -10 70 -5 0 -21 -21 -34 -47
l-25 -48 -1 42 c0 23 -4 45 -10 48 -6 4 -10 -20 -10 -64z"/>
<path d="M30060 9296 c0 -2 8 -10 18 -17 15 -13 16 -12 3 4 -13 16 -21 21 -21
13z"/>
<path d="M30119 9220 c17 -25 43 -58 57 -75 20 -23 18 -20 -5 15 -17 25 -43
59 -57 75 -20 23 -18 20 5 -15z"/>
<path d="M30200 9106 c0 -2 8 -10 18 -17 15 -13 16 -12 3 4 -13 16 -21 21 -21
13z"/>
<path d="M30230 9066 c0 -2 8 -10 18 -17 15 -13 16 -12 3 4 -13 16 -21 21 -21
13z"/>
<path d="M30260 9026 c0 -2 8 -10 18 -17 15 -13 16 -12 3 4 -13 16 -21 21 -21
13z"/>
<path d="M30290 8986 c0 -2 8 -10 18 -17 15 -13 16 -12 3 4 -13 16 -21 21 -21
13z"/>
<path d="M30320 8946 c0 -2 8 -10 18 -17 15 -13 16 -12 3 4 -13 16 -21 21 -21
13z"/>
<path d="M31300 8847 c0 -63 4 -96 10 -92 6 3 10 17 10 31 0 20 4 24 19 19 13
-4 25 2 40 21 24 30 26 58 8 94 -10 20 -20 25 -50 25 l-37 1 0 -99z m71 56
c13 -35 -3 -76 -29 -71 -33 6 -24 98 9 98 5 0 14 -12 20 -27z"/>
<path d="M31420 8881 c0 -40 4 -71 10 -71 5 0 21 21 34 48 l25 47 1 -47 c0
-27 5 -48 10 -48 6 0 10 30 10 70 0 39 -4 70 -10 70 -5 0 -21 -21 -34 -47
l-25 -48 -1 42 c0 23 -4 45 -10 48 -6 4 -10 -20 -10 -64z"/>
<path d="M31535 8939 c-4 -6 2 -13 14 -16 18 -5 21 -13 21 -59 0 -30 5 -54 10
-54 6 0 10 25 10 55 0 42 3 55 15 55 8 0 15 7 15 15 0 18 -75 22 -85 4z"/>
<path d="M31664 8942 c-39 -26 -40 -100 -1 -127 28 -19 33 -19 57 5 49 49 -2
159 -56 122z m47 -36 c16 -33 4 -76 -21 -76 -24 0 -33 15 -32 53 1 48 35 62
53 23z"/>
<path d="M31764 8941 c-9 -9 -3 -180 6 -186 6 -4 10 9 10 31 0 30 3 34 14 25
29 -24 66 13 66 66 0 44 -25 73 -61 70 -17 -1 -32 -4 -35 -6z m64 -23 c14 -14
16 -57 3 -76 -5 -8 -17 -12 -27 -10 -23 4 -32 62 -13 84 14 17 21 18 37 2z"/>
<path d="M31880 8881 c0 -40 4 -71 10 -71 5 0 21 21 34 48 l25 47 1 -47 c0
-27 5 -48 10 -48 6 0 10 30 10 70 0 39 -4 70 -10 70 -5 0 -21 -21 -34 -47
l-25 -48 -1 42 c0 23 -4 45 -10 48 -6 4 -10 -20 -10 -64z"/>
<path d="M32000 8882 c0 -72 16 -101 22 -39 l3 32 18 -32 c10 -18 22 -33 28
-33 6 0 2 15 -9 34 -20 33 -20 34 -1 65 16 26 16 31 4 31 -9 0 -21 -12 -27
-27 l-12 -28 -4 25 c-9 57 -22 41 -22 -28z"/>
<path d="M32098 8944 c-5 -4 -8 -36 -8 -71 0 -76 16 -83 47 -20 l22 42 0 -42
c1 -24 6 -43 11 -43 6 0 10 30 10 71 0 81 -12 83 -46 7 l-19 -43 -5 53 c-3 30
-8 50 -12 46z"/>
<path d="M31529 7178 c-6 -13 -24 -33 -40 -46 -18 -14 -29 -33 -29 -48 0 -29
4 -30 41 -3 l29 20 0 -115 0 -116 25 0 25 0 0 165 c0 157 -1 165 -20 165 -10
0 -25 -10 -31 -22z"/>
<path d="M31740 7189 c0 -6 -16 -27 -36 -45 -26 -25 -35 -41 -32 -60 l3 -26
27 21 27 22 3 -113 3 -113 25 0 25 0 0 160 c0 158 0 160 -22 163 -13 2 -23 -2
-23 -9z"/>
<path d="M31896 7178 c-13 -13 -27 -33 -30 -44 -5 -17 -2 -23 18 -26 19 -4 27
0 32 14 4 13 13 18 27 16 29 -4 34 -42 9 -60 -10 -7 -21 -23 -24 -35 -5 -18
-1 -22 21 -25 23 -3 26 -7 26 -42 0 -54 -28 -71 -58 -35 -23 26 -57 29 -57 4
0 -28 51 -75 81 -75 69 0 116 78 84 140 -8 16 -20 30 -26 30 -5 0 -3 10 5 22
24 34 20 85 -9 113 -30 31 -66 32 -99 3z"/>
<path d="M30530 6525 c0 -128 1 -135 20 -135 19 0 20 7 20 121 l0 120 53 -3
52 -3 3 -117 c2 -96 5 -118 17 -118 13 0 15 23 15 135 l0 135 -90 0 -90 0 0
-135z"/>
<path d="M32863 6638 c8 -13 25 -23 37 -23 25 0 50 29 36 42 -5 4 -11 2 -13
-4 -6 -15 -39 -17 -48 -3 -3 6 -11 10 -17 10 -6 0 -4 -9 5 -22z"/>
<path d="M30771 6571 c-63 -63 -11 -209 63 -182 24 9 54 56 43 68 -4 4 -18 -6
-31 -21 -19 -24 -25 -27 -43 -18 -45 24 -35 142 12 142 12 0 29 -10 38 -22 14
-22 15 -22 23 -4 5 14 1 24 -15 38 -30 23 -66 23 -90 -1z"/>
<path d="M30910 6491 c0 -125 14 -132 64 -33 l35 67 1 -67 c0 -54 3 -68 15
-68 12 0 15 18 15 100 0 124 -15 132 -63 34 l-32 -66 -5 63 c-3 37 -10 64 -17
67 -10 3 -13 -21 -13 -97z"/>
<path d="M31070 6584 c0 -3 11 -25 25 -49 l26 -43 -30 -51 c-26 -43 -28 -51
-13 -51 9 0 27 17 38 38 l22 37 18 -37 c11 -24 25 -38 36 -38 18 0 17 4 -8 51
l-28 51 23 44 c13 24 21 47 18 51 -9 8 -35 -15 -42 -38 -9 -27 -22 -24 -40 11
-13 25 -45 43 -45 24z"/>
<path d="M31253 6568 c-28 -31 -36 -71 -23 -118 14 -53 51 -74 97 -55 35 15
47 44 46 108 -1 74 -75 114 -120 65z m74 -20 c18 -23 23 -65 12 -96 -19 -54
-61 -52 -79 4 -17 50 4 104 40 104 10 0 22 -6 27 -12z"/>
<path d="M31420 6505 c0 -69 -3 -85 -15 -85 -8 0 -15 -7 -15 -15 0 -18 31 -20
48 -3 7 7 12 42 12 85 l0 73 35 0 35 0 0 -85 c0 -70 3 -85 15 -85 13 0 15 15
13 98 l-3 97 -62 3 -63 3 0 -86z"/>
<path d="M31601 6564 c-31 -40 -29 -123 3 -154 64 -59 140 7 122 106 -14 72
-84 100 -125 48z m88 -35 c18 -32 7 -95 -18 -108 -33 -18 -61 13 -61 68 0 26
6 53 12 59 19 19 51 10 67 -19z"/>
<path d="M31760 6490 c0 -82 3 -100 15 -100 12 0 15 16 15 85 l0 85 30 0 c20
0 30 5 30 15 0 11 -12 15 -45 15 l-45 0 0 -100z"/>
<path d="M31877 6583 c-4 -3 -7 -48 -7 -100 0 -83 2 -93 18 -93 12 0 29 23 54
73 l37 72 0 -72 c1 -59 4 -73 16 -73 13 0 15 15 13 98 -4 121 -17 127 -70 27
l-37 -70 -1 73 c0 66 -6 83 -23 65z"/>
<path d="M32034 6575 c-9 -22 5 -82 22 -100 9 -8 31 -15 50 -15 32 0 34 -2 34
-35 0 -25 4 -35 15 -35 13 0 15 15 13 97 -2 63 -7 98 -15 100 -8 3 -13 -12
-15 -44 -3 -42 -6 -48 -27 -51 -31 -5 -51 21 -51 65 0 34 -16 45 -26 18z"/>
<path d="M32221 6564 c-30 -38 -29 -114 2 -150 27 -31 68 -35 97 -9 24 21 26
45 5 45 -8 0 -15 -4 -15 -10 0 -5 -9 -14 -20 -20 -15 -8 -24 -6 -40 10 -37 37
-27 50 41 50 l62 0 -7 32 c-15 73 -85 102 -125 52z m73 -10 c9 -3 16 -15 16
-25 0 -15 -7 -19 -40 -19 -43 0 -45 2 -30 31 11 20 27 23 54 13z"/>
<path d="M32391 6564 c-28 -36 -29 -112 -1 -146 30 -39 58 -42 91 -8 16 16 29
33 29 39 0 19 -28 12 -35 -8 -16 -52 -75 -17 -75 45 0 19 5 44 10 55 14 24 46
25 62 0 17 -27 41 -16 26 12 -24 46 -75 51 -107 11z"/>
<path d="M32530 6491 c0 -83 3 -101 15 -101 11 0 15 12 15 46 0 52 11 51 40
-7 11 -21 27 -39 35 -39 14 0 13 4 -1 33 -9 17 -23 39 -31 48 -12 14 -12 21 3
53 10 20 21 36 26 36 4 0 8 7 8 15 0 35 -33 11 -56 -40 l-18 -40 -5 44 c-3 25
-12 46 -18 49 -10 3 -13 -21 -13 -97z"/>
<path d="M32667 6583 c-4 -3 -7 -48 -7 -100 0 -83 2 -93 18 -93 12 0 29 23 54
73 l37 72 0 -72 c1 -59 4 -73 16 -73 13 0 15 15 13 98 -4 121 -17 127 -70 27
l-37 -70 -1 73 c0 66 -6 83 -23 65z"/>
<path d="M32837 6583 c-4 -3 -7 -48 -7 -100 0 -83 2 -93 18 -93 12 0 29 23 54
73 l37 72 0 -72 c1 -59 4 -73 16 -73 13 0 15 15 13 98 -4 121 -17 127 -70 27
l-37 -70 -1 73 c0 66 -6 83 -23 65z"/>
<path d="M31350 6020 l0 -100 60 0 60 0 0 -35 c0 -24 5 -35 15 -35 11 0 15 12
15 50 0 28 -4 50 -10 50 -6 0 -10 35 -10 85 0 69 -3 85 -15 85 -12 0 -15 -16
-15 -85 l0 -85 -35 0 -35 0 0 85 c0 69 -3 85 -15 85 -12 0 -15 -18 -15 -100z"/>
<path d="M31541 6094 c-15 -19 -21 -41 -21 -74 0 -62 28 -100 74 -100 39 0 72
30 61 57 -6 17 -8 16 -22 -4 -19 -28 -59 -30 -73 -4 -18 35 -12 41 44 41 30 0
58 5 61 10 10 16 -15 79 -35 90 -33 18 -68 11 -89 -16z m90 -31 c8 -22 6 -23
-36 -23 -30 0 -45 4 -45 13 0 41 67 48 81 10z"/>
<path d="M31700 6020 c0 -77 3 -101 13 -98 6 3 13 23 15 46 3 41 4 42 38 42
34 0 34 0 34 -45 0 -33 4 -45 15 -45 12 0 15 18 15 100 0 82 -3 100 -15 100
-11 0 -15 -11 -15 -40 0 -39 -1 -40 -34 -40 -33 0 -35 2 -38 37 -2 20 -9 38
-15 41 -10 3 -13 -21 -13 -98z"/>
<path d="M31857 6114 c-15 -15 -6 -24 23 -24 l30 0 0 -86 c0 -64 3 -85 13 -82
8 3 13 32 15 86 3 80 3 82 28 82 16 0 24 5 22 13 -5 13 -119 23 -131 11z"/>
<path d="M32010 5983 c0 -112 2 -133 15 -133 11 0 15 11 15 41 0 36 2 40 20
34 53 -17 96 38 87 112 -7 63 -29 83 -88 81 l-49 -2 0 -133z m100 88 c23 -44
5 -121 -28 -121 -29 0 -42 21 -42 70 0 25 5 51 12 58 18 18 46 14 58 -7z"/>
<path d="M6688 5898 c-21 -23 -38 -52 -38 -65 0 -27 3 -28 35 -7 l25 16 0
-111 0 -111 25 0 25 0 0 160 c0 146 -2 160 -17 159 -10 0 -35 -19 -55 -41z"/>
<path d="M6870 5915 c-22 -23 -25 -36 -28 -123 -4 -112 13 -160 61 -177 32
-11 51 -2 81 39 18 23 21 42 21 126 0 84 -3 103 -21 127 -30 40 -81 43 -114 8z
m83 -83 c5 -28 5 -76 0 -104 -7 -43 -12 -53 -27 -53 -26 0 -39 52 -33 131 5
71 12 86 35 82 12 -2 19 -19 25 -56z"/>
<path d="M7098 5898 c-21 -23 -38 -52 -38 -65 0 -27 3 -28 35 -7 l25 16 0
-111 0 -111 25 0 25 0 0 160 c0 146 -2 160 -17 159 -10 0 -35 -19 -55 -41z"/>
<path d="M5600 5240 c0 -153 1 -160 20 -160 18 0 20 7 20 75 0 93 13 92 65 -6
26 -49 42 -69 56 -69 10 0 19 2 19 5 0 9 -57 119 -73 139 -12 17 -11 26 11 78
18 40 31 58 44 58 11 0 18 7 18 20 0 15 -7 20 -25 20 -27 0 -45 -23 -66 -83
-8 -22 -22 -43 -31 -48 -16 -9 -18 -4 -18 61 0 63 -2 70 -20 70 -19 0 -20 -7
-20 -160z"/>
<path d="M6330 5351 l0 -49 -30 11 c-27 10 -33 9 -57 -15 -21 -22 -27 -39 -31
-85 -5 -69 8 -106 43 -129 21 -13 31 -15 50 -6 25 11 25 11 25 -38 0 -38 4
-50 15 -50 11 0 15 12 15 50 0 54 1 55 30 40 80 -43 136 145 65 216 -25 25
-59 32 -70 14 -14 -23 -25 -7 -25 40 0 38 -4 50 -15 50 -11 0 -15 -12 -15 -49z
m-10 -97 c13 -33 13 -100 0 -125 -13 -23 -43 -25 -61 -3 -17 21 -18 116 0 137
20 25 50 21 61 -9z m120 7 c5 -11 10 -41 10 -66 0 -59 -14 -85 -45 -85 -20 0
-26 7 -35 40 -10 35 -8 58 7 113 6 23 50 22 63 -2z"/>
<path d="M30450 5341 c0 -6 4 -13 10 -16 6 -3 7 1 4 9 -7 18 -14 21 -14 7z"/>
<path d="M30745 5259 c-49 -39 -99 -74 -110 -79 -11 -5 -14 -9 -7 -9 12 -1
212 145 212 154 0 8 0 8 -95 -66z"/>
<path d="M5851 5306 c-34 -19 -50 -54 -51 -109 0 -60 20 -101 59 -116 58 -25
111 19 118 96 10 104 -53 169 -126 129z m79 -45 c16 -31 12 -117 -6 -135 -28
-29 -63 -20 -80 19 -7 19 -14 41 -14 50 0 9 7 31 14 50 12 29 20 35 45 35 20
0 34 -7 41 -19z"/>
<path d="M6548 5291 c-31 -28 -33 -33 -33 -96 0 -63 2 -68 33 -96 18 -16 43
-29 56 -29 29 0 72 32 79 60 7 27 -24 27 -41 0 -23 -38 -92 -13 -92 33 0 14
11 17 70 17 l70 0 0 30 c0 38 -24 86 -49 100 -33 17 -59 11 -93 -19z m90 -23
c7 -7 12 -20 12 -30 0 -15 -9 -18 -50 -18 -52 0 -58 7 -40 41 12 22 59 26 78
7z"/>
<path d="M6777 5303 c-11 -11 -17 -13 -17 -5 0 7 -7 12 -15 12 -13 0 -15 -24
-15 -160 0 -136 2 -160 15 -160 11 0 15 12 15 51 0 45 2 50 18 44 42 -18 52
-16 81 12 20 20 31 44 36 75 15 99 -63 186 -118 131z m73 -42 c15 -29 12 -104
-6 -129 -33 -48 -84 -10 -84 63 0 22 7 51 16 63 19 27 60 29 74 3z"/>
<path d="M6958 5291 c-31 -28 -33 -33 -33 -96 0 -63 2 -68 33 -96 18 -16 43
-29 56 -29 29 0 72 32 79 60 7 27 -24 27 -41 0 -23 -38 -92 -13 -92 33 0 14
11 17 70 17 l70 0 0 30 c0 38 -24 86 -49 100 -33 17 -59 11 -93 -19z m90 -23
c7 -7 12 -20 12 -30 0 -15 -9 -18 -50 -18 -52 0 -58 7 -40 41 12 22 59 26 78
7z"/>
<path d="M7695 5295 c-14 -13 -25 -29 -25 -35 0 -16 37 -12 44 6 9 24 50 14
54 -13 3 -17 -3 -26 -22 -33 -33 -12 -34 -40 -2 -40 27 0 41 -26 30 -54 -9
-22 -51 -20 -66 4 -16 25 -38 26 -38 1 0 -22 44 -61 70 -61 33 0 70 39 70 74
0 17 -5 37 -12 44 -9 9 -9 18 0 37 20 43 -14 95 -63 95 -9 0 -27 -11 -40 -25z"/>
<path d="M7883 5310 c-21 -9 -43 -38 -43 -59 0 -19 29 -12 40 9 15 28 76 28
85 0 9 -29 0 -37 -49 -44 -62 -10 -95 -52 -76 -101 15 -39 53 -52 95 -32 19 9
35 12 35 7 0 -6 9 -10 21 -10 15 0 19 4 15 16 -3 9 -6 54 -6 100 0 71 -3 87
-20 104 -21 21 -60 25 -97 10z m87 -136 c0 -44 -48 -80 -82 -62 -37 19 -17 62
32 71 45 8 50 7 50 -9z"/>
<path d="M6020 5195 c0 -96 3 -115 15 -115 11 0 15 12 15 50 l0 50 45 0 45 0
0 -50 c0 -38 4 -50 15 -50 12 0 15 19 15 115 0 96 -3 115 -15 115 -11 0 -15
-12 -15 -45 l0 -45 -45 0 -45 0 0 45 c0 33 -4 45 -15 45 -12 0 -15 -19 -15
-115z"/>
<path d="M7140 5195 c0 -108 1 -115 20 -115 17 0 20 7 20 50 l0 50 40 0 40 0
0 -50 c0 -43 3 -50 20 -50 19 0 20 7 20 115 0 108 -1 115 -20 115 -17 0 -20
-7 -20 -45 l0 -45 -40 0 -40 0 0 45 c0 38 -3 45 -20 45 -19 0 -20 -7 -20 -115z"/>
<path d="M7340 5195 l0 -115 75 0 75 0 0 -45 c0 -33 4 -45 15 -45 12 0 15 13
15 60 0 33 -4 60 -10 60 -6 0 -10 40 -10 100 0 82 -3 100 -15 100 -12 0 -15
-18 -15 -100 l0 -100 -45 0 -45 0 0 100 c0 93 -1 100 -20 100 -19 0 -20 -7
-20 -115z"/>
<path d="M8070 5214 c0 -87 -2 -96 -20 -101 -11 -3 -20 -11 -20 -18 0 -20 26
-25 49 -9 19 14 21 25 21 105 l0 89 40 0 40 0 0 -100 c0 -93 1 -100 20 -100
19 0 20 7 20 115 l0 115 -75 0 -75 0 0 -96z"/>
<path d="M30488 5283 c11 -16 30 -37 43 -48 12 -11 5 1 -16 28 -43 52 -57 63
-27 20z"/>
<path d="M31632 5138 c3 -95 20 -129 26 -50 2 23 6 42 11 42 4 0 17 -20 29
-45 12 -25 26 -45 32 -45 15 0 12 11 -15 58 -22 39 -23 45 -10 76 8 19 20 36
27 39 7 2 10 8 6 12 -13 14 -37 -4 -55 -42 l-17 -38 -4 43 c-2 29 -8 42 -18
42 -12 0 -14 -16 -12 -92z"/>
<path d="M7544 5205 c-10 -24 6 -35 52 -35 40 0 44 2 44 25 0 23 -4 25 -45 25
-31 0 -47 -5 -51 -15z"/>
<path d="M30564 5211 c7 -11 46 -35 46 -28 0 3 -12 12 -26 22 -15 9 -23 12
-20 6z"/>
<path d="M31760 5168 c-49 -52 -1 -150 58 -119 42 22 39 110 -4 130 -32 14
-30 15 -54 -11z m64 -31 c12 -51 -19 -91 -49 -61 -29 29 -16 84 20 84 15 0 25
-7 29 -23z"/>
<path d="M32120 5170 c-25 -25 -21 -37 8 -19 20 13 52 7 52 -10 0 -5 -12 -12
-27 -16 -36 -9 -53 -23 -53 -45 0 -29 27 -45 54 -32 17 7 27 7 35 -1 8 -8 11
4 11 49 0 66 -5 78 -37 88 -16 5 -28 1 -43 -14z m60 -68 c0 -20 -28 -45 -44
-39 -21 8 -21 34 2 40 29 8 42 7 42 -1z"/>
<path d="M32320 5170 c-25 -25 -21 -37 8 -19 20 13 52 7 52 -10 0 -5 -12 -12
-27 -16 -36 -9 -53 -23 -53 -45 0 -29 27 -45 54 -32 17 7 27 7 35 -1 8 -8 11
4 11 49 0 66 -5 78 -37 88 -16 5 -28 1 -43 -14z m60 -68 c0 -20 -28 -45 -44
-39 -21 8 -21 34 2 40 29 8 42 7 42 -1z"/>
<path d="M31860 5110 c0 -76 19 -92 21 -17 l1 42 15 -48 c8 -26 18 -45 23 -42
6 3 16 27 24 53 l15 47 0 -53 c1 -33 5 -51 11 -47 6 3 10 35 10 71 0 80 -22
89 -44 17 -13 -46 -14 -47 -24 -23 -5 14 -11 34 -13 45 -3 11 -12 21 -22 23
-15 3 -17 -5 -17 -68z"/>
<path d="M32000 5109 c0 -44 4 -68 10 -64 6 3 10 17 10 31 0 19 5 24 25 24 21
0 25 -5 25 -30 0 -16 5 -30 10 -30 6 0 10 30 10 70 0 40 -4 70 -10 70 -5 0
-10 -11 -10 -25 0 -20 -5 -25 -25 -25 -20 0 -25 5 -25 25 0 14 -4 25 -10 25
-6 0 -10 -30 -10 -71z"/>
<path d="M32210 5170 c0 -5 7 -10 15 -10 10 0 15 -15 17 -55 2 -30 8 -55 13
-55 6 0 11 25 13 55 2 40 7 55 17 55 8 0 15 5 15 10 0 6 -20 10 -45 10 -25 0
-45 -4 -45 -10z"/>
<path d="M32480 5137 c0 -24 -7 -52 -15 -63 -16 -22 -20 -64 -5 -64 6 0 10 7
10 15 0 11 12 15 45 15 33 0 45 -4 45 -15 0 -8 5 -15 10 -15 6 0 10 7 10 15 0
9 7 18 15 21 11 5 15 21 15 60 0 51 1 54 25 54 24 0 25 -3 25 -54 0 -30 5 -58
10 -61 6 -4 10 20 10 64 l0 71 -45 0 -45 0 0 -55 c0 -42 -3 -55 -15 -55 -12 0
-15 13 -15 55 l0 55 -40 0 -40 0 0 -43z m60 -22 c0 -42 -2 -45 -26 -45 -22 0
-25 3 -20 23 3 12 6 32 6 45 0 15 6 22 20 22 17 0 20 -7 20 -45z"/>
<path d="M32700 5159 c-9 -16 -8 -25 3 -42 12 -19 12 -25 -1 -45 -8 -12 -12
-26 -8 -30 7 -6 26 13 45 47 12 20 31 4 31 -25 0 -14 4 -22 10 -19 6 3 10 35
10 71 l0 64 -40 0 c-29 0 -42 -5 -50 -21z m70 -19 c0 -15 -7 -20 -25 -20 -18
0 -25 5 -25 20 0 15 7 20 25 20 18 0 25 -5 25 -20z"/>
<path d="M31115 5088 c-40 -22 -95 -70 -117 -101 -14 -20 -4 -13 28 19 28 29
65 59 82 68 18 9 32 19 32 21 0 7 -2 6 -25 -7z"/>
<path d="M30119 5013 l-24 -28 28 24 c15 14 27 26 27 28 0 8 -8 1 -31 -24z"/>
<path d="M30955 4920 c-3 -5 -3 -16 1 -22 18 -29 177 -238 181 -238 3 0 -6 15
-19 33 -13 17 -55 72 -92 121 -36 50 -64 96 -62 103 6 15 0 17 -9 3z"/>
<path d="M30054 4908 c6 -19 175 -248 183 -248 3 0 1 6 -4 13 -44 56 -162 216
-172 232 -9 14 -11 15 -7 3z"/>
<path d="M31430 4800 c0 -83 15 -92 47 -27 l22 42 0 -42 c1 -24 6 -43 11 -43
6 0 10 30 10 70 0 39 -4 70 -8 70 -4 0 -20 -24 -34 -52 l-27 -53 0 53 c-1 28
-5 52 -11 52 -6 0 -10 -30 -10 -70z"/>
<path d="M31548 4864 c-12 -11 -10 -134 2 -134 6 0 10 14 10 30 0 25 4 30 25
30 21 0 25 -5 25 -30 0 -19 5 -30 14 -30 8 0 17 -10 19 -22 l4 -23 2 23 c1 19
6 22 46 22 38 0 45 -3 45 -20 0 -11 5 -20 10 -20 7 0 9 26 5 78 -9 102 -9 102
-49 102 -33 0 -35 -2 -41 -37 -13 -84 -19 -90 -25 -30 -5 58 -22 78 -28 32 -3
-19 -9 -25 -27 -25 -19 0 -24 6 -27 31 -2 17 -6 27 -10 23z m172 -64 c0 -46
-2 -50 -24 -50 -23 0 -24 3 -20 38 8 54 12 62 29 62 11 0 15 -12 15 -50z"/>
<path d="M31770 4800 c0 -39 4 -70 10 -70 5 0 21 21 34 48 l25 47 1 -47 c0
-27 5 -48 10 -48 6 0 10 30 10 70 0 39 -4 70 -10 70 -5 0 -21 -21 -34 -47
l-25 -48 -1 48 c0 26 -4 47 -10 47 -6 0 -10 -30 -10 -70z"/>
<path d="M31880 4800 l0 -70 33 0 c49 0 56 9 54 68 -2 58 -14 72 -59 72 -28 0
-28 0 -28 -70z m59 37 c13 -16 5 -27 -21 -27 -11 0 -18 7 -18 20 0 23 22 27
39 7z m6 -67 c0 -8 -10 -16 -22 -18 -18 -3 -23 2 -23 18 0 16 5 21 23 18 12
-2 22 -10 22 -18z"/>
<path d="M31990 4801 c0 -40 4 -71 10 -71 5 0 21 21 34 48 l25 47 1 -47 c0
-27 5 -48 10 -48 6 0 10 -9 10 -20 0 -11 5 -20 10 -20 6 0 10 9 10 20 0 17 7
20 39 20 31 0 40 -4 44 -22 12 -44 16 -10 10 75 l-6 87 -37 0 -37 0 -5 -51
c-8 -78 -28 -87 -28 -11 0 34 -4 62 -10 62 -5 0 -21 -21 -34 -47 l-25 -48 -1
42 c0 23 -4 45 -10 48 -6 4 -10 -20 -10 -64z m180 -1 c0 -48 -1 -50 -28 -50
l-29 0 11 50 c7 38 14 50 28 50 15 0 18 -8 18 -50z"/>
<path d="M32221 4808 c23 -77 24 -94 3 -106 -20 -11 -10 -34 11 -26 13 5 65
153 65 185 0 22 -15 -1 -31 -49 l-16 -47 -12 53 c-8 30 -19 52 -26 52 -10 0
-9 -14 6 -62z"/>
<path d="M32320 4855 c-18 -21 -7 -29 19 -13 15 9 23 10 32 1 16 -16 5 -29
-30 -36 -33 -7 -45 -30 -31 -57 8 -16 21 -19 73 -17 l62 2 5 55 c4 48 8 55 28
58 21 3 22 0 22 -57 0 -34 4 -61 10 -61 6 0 10 30 10 70 l0 70 -45 0 -45 0 0
-60 c0 -46 -3 -60 -15 -60 -10 0 -15 15 -17 58 -3 56 -4 57 -34 60 -19 2 -36
-3 -44 -13z m56 -90 c-3 -8 -15 -15 -26 -15 -29 0 -27 38 3 42 24 3 32 -5 23
-27z"/>
<path d="M32540 4800 l0 -70 34 0 c39 0 59 19 54 52 -2 18 -10 24 -35 26 -29
3 -33 7 -33 33 0 16 -4 29 -10 29 -6 0 -10 -30 -10 -70z m68 -27 c-2 -10 -13
-19 -26 -21 -17 -3 -22 2 -22 17 0 16 6 21 26 21 19 0 25 -5 22 -17z"/>
<path d="M32640 4800 c0 -40 4 -70 10 -70 6 0 10 14 10 30 0 25 4 30 25 30 21
0 25 -5 25 -30 0 -16 5 -30 10 -30 6 0 10 30 10 70 0 40 -4 70 -10 70 -5 0
-10 -13 -10 -30 0 -25 -4 -30 -25 -30 -21 0 -25 5 -25 30 0 17 -4 30 -10 30
-6 0 -10 -30 -10 -70z"/>
<path d="M32750 4800 l0 -70 34 0 c39 0 59 19 54 52 -2 18 -10 24 -35 26 -29
3 -33 7 -33 33 0 16 -4 29 -10 29 -6 0 -10 -30 -10 -70z m68 -27 c-2 -10 -13
-19 -26 -21 -17 -3 -22 2 -22 17 0 16 6 21 26 21 19 0 25 -5 22 -17z"/>
<path d="M32860 4800 c0 -40 4 -70 10 -70 6 0 10 30 10 70 0 40 -4 70 -10 70
-6 0 -10 -30 -10 -70z"/>
<path d="M32907 4835 c14 -30 15 -38 3 -62 -8 -16 -16 -31 -18 -35 -2 -5 1 -8
7 -8 6 0 17 12 25 27 l14 28 13 -28 c7 -15 18 -27 26 -27 10 0 9 9 -6 38 -17
33 -17 41 -5 62 16 30 17 40 5 40 -5 0 -13 -9 -16 -20 -3 -11 -10 -20 -15 -20
-5 0 -12 9 -15 20 -3 11 -13 20 -21 20 -11 0 -11 -6 3 -35z"/>
<path d="M30240 4646 c0 -2 8 -10 18 -17 15 -13 16 -12 3 4 -13 16 -21 21 -21
13z"/>
<path d="M31140 4646 c0 -2 8 -10 18 -17 15 -13 16 -12 3 4 -13 16 -21 21 -21
13z"/>
<path d="M30270 4606 c0 -2 8 -10 18 -17 15 -13 16 -12 3 4 -13 16 -21 21 -21
13z"/>
<path d="M31170 4606 c0 -2 8 -10 18 -17 15 -13 16 -12 3 4 -13 16 -21 21 -21
13z"/>
<path d="M32800 4599 c0 -7 -10 -9 -27 -4 -26 6 -27 5 -12 -10 17 -18 49 -11
49 11 0 8 -2 14 -5 14 -3 0 -5 -5 -5 -11z"/>
<path d="M30300 4566 c0 -2 8 -10 18 -17 15 -13 16 -12 3 4 -13 16 -21 21 -21
13z"/>
<path d="M31200 4566 c0 -2 8 -10 18 -17 15 -13 16 -12 3 4 -13 16 -21 21 -21
13z"/>
<path d="M31598 4554 c-12 -11 -10 -134 2 -134 6 0 10 15 11 33 0 28 2 30 12
14 28 -43 36 -52 42 -45 4 3 -1 20 -10 38 -16 30 -13 70 6 70 5 0 9 7 9 15 0
22 -25 8 -41 -23 l-13 -27 -5 33 c-3 19 -9 30 -13 26z"/>
<path d="M31686 4538 c-22 -31 -20 -84 4 -108 25 -25 32 -25 60 -2 43 35 21
132 -31 132 -10 0 -25 -10 -33 -22z m52 -7 c21 -13 12 -85 -12 -89 -10 -2 -22
2 -27 10 -13 19 -11 62 3 76 14 14 19 15 36 3z"/>
<path d="M31790 4491 c0 -41 4 -71 10 -71 6 0 10 14 10 31 0 26 3 30 23 27 16
-2 23 -11 25 -30 2 -16 8 -28 13 -28 12 0 12 127 -1 135 -6 4 -10 -7 -10 -24
0 -26 -4 -31 -25 -31 -20 0 -25 5 -25 24 0 14 -4 28 -10 31 -6 4 -10 -20 -10
-64z"/>
<path d="M31906 4538 c-22 -31 -20 -84 4 -108 11 -11 25 -20 30 -20 13 0 50
37 50 50 0 15 -17 12 -24 -5 -3 -8 -14 -15 -25 -15 -32 0 -42 51 -17 85 14 19
15 19 35 1 16 -15 21 -16 21 -5 0 40 -50 51 -74 17z"/>
<path d="M31990 4543 c0 -11 7 -40 15 -63 20 -56 19 -90 -1 -90 -9 0 -14 -6
-11 -12 2 -7 10 -13 18 -13 14 0 67 139 68 178 2 32 -16 9 -29 -40 l-14 -47
-15 46 c-18 54 -31 70 -31 41z"/>
<path d="M32107 4553 c-4 -3 -7 -30 -7 -60 0 -29 -4 -53 -10 -53 -5 0 -10 -4
-10 -10 0 -5 9 -10 20 -10 18 0 20 7 20 55 0 52 1 55 25 55 24 0 25 -3 25 -55
0 -30 5 -55 10 -55 6 0 10 30 10 70 l0 70 -38 0 c-21 0 -42 -3 -45 -7z"/>
<path d="M32210 4490 l0 -71 36 3 c65 5 73 69 10 76 -20 3 -26 9 -26 27 0 13
-4 27 -10 30 -6 4 -10 -20 -10 -65z m68 -27 c-2 -10 -13 -19 -26 -21 -17 -3
-22 2 -22 17 0 16 6 21 26 21 19 0 25 -5 22 -17z"/>
<path d="M32305 4549 c-4 -6 2 -13 14 -16 18 -5 21 -13 21 -59 0 -30 5 -54 10
-54 6 0 10 24 10 54 0 46 3 54 21 59 33 9 12 27 -31 27 -21 0 -42 -5 -45 -11z"/>
<path d="M32418 4549 c-10 -5 -18 -17 -18 -26 0 -14 2 -14 20 2 21 19 50 14
50 -8 0 -8 -13 -17 -29 -20 -17 -4 -35 -16 -41 -28 -10 -18 -9 -25 8 -41 16
-16 24 -18 40 -9 11 6 27 9 34 6 10 -4 12 8 10 52 -5 79 -27 100 -74 72z m52
-84 c0 -19 -36 -39 -45 -25 -11 18 3 40 25 40 11 0 20 -7 20 -15z"/>
<path d="M32518 4554 c-5 -4 -8 -36 -8 -71 l0 -63 45 0 c41 0 45 -2 45 -25 0
-14 5 -25 11 -25 10 0 5 143 -7 178 -9 30 -24 -3 -24 -54 0 -51 -1 -54 -25
-54 -23 0 -24 4 -27 61 -2 33 -6 57 -10 53z"/>
<path d="M32630 4491 c0 -40 4 -71 10 -71 5 0 21 21 34 48 l25 47 1 -47 c0
-27 5 -48 10 -48 13 0 13 127 0 135 -5 3 -20 -16 -34 -42 l-25 -48 -1 42 c0
23 -4 45 -10 48 -6 4 -10 -20 -10 -64z"/>
<path d="M32740 4491 c0 -40 4 -71 10 -71 5 0 21 21 34 48 l25 47 1 -47 c0
-27 5 -48 10 -48 13 0 13 127 0 135 -5 3 -20 -16 -34 -42 l-25 -48 -1 42 c0
23 -4 45 -10 48 -6 4 -10 -20 -10 -64z"/>
<path d="M30330 4526 c0 -2 8 -10 18 -17 15 -13 16 -12 3 4 -13 16 -21 21 -21
13z"/>
<path d="M31230 4526 c0 -2 8 -10 18 -17 15 -13 16 -12 3 4 -13 16 -21 21 -21
13z"/>
<path d="M30121 3785 c-22 -24 -41 -48 -41 -51 0 -4 1 -5 3 -3 2 2 23 25 47
52 23 26 40 47 38 47 -3 0 -24 -20 -47 -45z"/>
<path d="M30050 3681 c0 -6 4 -13 10 -16 6 -3 7 1 4 9 -7 18 -14 21 -14 7z"/>
<path d="M30070 3646 c0 -2 8 -10 18 -17 15 -13 16 -12 3 4 -13 16 -21 21 -21
13z"/>
<path d="M30100 3606 c0 -2 8 -10 18 -17 15 -13 16 -12 3 4 -13 16 -21 21 -21
13z"/>
<path d="M30130 3566 c0 -2 8 -10 18 -17 15 -13 16 -12 3 4 -13 16 -21 21 -21
13z"/>
<path d="M30160 3526 c0 -2 8 -10 18 -17 15 -13 16 -12 3 4 -13 16 -21 21 -21
13z"/>
<path d="M30190 3486 c0 -2 8 -10 18 -17 15 -13 16 -12 3 4 -13 16 -21 21 -21
13z"/>
<path d="M30220 3446 c0 -2 8 -10 18 -17 15 -13 16 -12 3 4 -13 16 -21 21 -21
13z"/>
<path d="M30250 3406 c0 -2 8 -10 18 -17 15 -13 16 -12 3 4 -13 16 -21 21 -21
13z"/>
<path d="M30280 3366 c0 -2 8 -10 18 -17 15 -13 16 -12 3 4 -13 16 -21 21 -21
13z"/>
<path d="M30310 3326 c0 -2 8 -10 18 -17 15 -13 16 -12 3 4 -13 16 -21 21 -21
13z"/>
<path d="M29775 3090 c-3 -6 1 -7 9 -4 18 7 21 14 7 14 -6 0 -13 -4 -16 -10z"/>
<path d="M29739 3063 c-13 -16 -12 -17 4 -4 16 13 21 21 13 21 -2 0 -10 -8
-17 -17z"/>
<path d="M29900 3018 c24 -27 45 -48 47 -48 8 0 0 9 -44 50 l-48 45 45 -47z"/>
<path d="M29699 3033 c-13 -16 -12 -17 4 -4 16 13 21 21 13 21 -2 0 -10 -8
-17 -17z"/>
<path d="M29635 2989 c-59 -45 -67 -57 -12 -18 42 29 65 50 55 49 -2 0 -21
-14 -43 -31z"/>
<path d="M29549 2923 c-13 -16 -12 -17 4 -4 16 13 21 21 13 21 -2 0 -10 -8
-17 -17z"/>
<path d="M29966 2927 c3 -10 9 -15 12 -12 3 3 0 11 -7 18 -10 9 -11 8 -5 -6z"/>
<path d="M29509 2893 c-13 -16 -12 -17 4 -4 16 13 21 21 13 21 -2 0 -10 -8
-17 -17z"/>
<path d="M29445 2849 c-59 -45 -67 -57 -12 -18 42 29 65 50 55 49 -2 0 -21
-14 -43 -31z"/>
<path d="M31502 2556 c-6 -14 -23 -32 -37 -42 -17 -11 -25 -25 -25 -46 l0 -29
30 21 29 21 3 -113 3 -113 25 0 25 0 3 163 2 162 -23 0 c-16 0 -28 -9 -35 -24z"/>
<path d="M31683 2532 c-59 -63 -58 -105 2 -66 l25 16 0 -116 0 -116 25 0 25 0
0 165 c0 191 -4 197 -77 117z"/>
<path d="M31886 2481 c-35 -61 -56 -111 -56 -130 0 -30 1 -31 49 -31 49 0 50
-1 53 -32 2 -28 7 -33 28 -33 21 0 26 5 28 33 2 20 9 32 18 32 19 0 18 49 -1
56 -12 5 -15 26 -15 105 0 98 0 99 -24 99 -21 0 -34 -16 -80 -99z m44 -56 c0
-41 -2 -45 -25 -45 l-25 0 22 45 c12 25 23 45 25 45 2 0 3 -20 3 -45z"/>
<path d="M4839 2333 c-13 -16 -12 -17 4 -4 16 13 21 21 13 21 -2 0 -10 -8 -17
-17z"/>
<path d="M4809 2293 c-13 -16 -12 -17 4 -4 9 7 17 15 17 17 0 8 -8 3 -21 -13z"/>
<path d="M4779 2253 c-13 -16 -12 -17 4 -4 16 13 21 21 13 21 -2 0 -10 -8 -17
-17z"/>
<path d="M4753 2218 c-43 -57 -66 -91 -58 -86 12 7 78 98 72 98 -3 0 -9 -6
-14 -12z"/>
<path d="M4669 2103 c-13 -16 -12 -17 4 -4 16 13 21 21 13 21 -2 0 -10 -8 -17
-17z"/>
<path d="M4639 2063 c-13 -16 -12 -17 4 -4 16 13 21 21 13 21 -2 0 -10 -8 -17
-17z"/>
<path d="M4609 2023 c-13 -16 -12 -17 4 -4 16 13 21 21 13 21 -2 0 -10 -8 -17
-17z"/>
<path d="M29442 1993 c-32 -33 -42 -51 -40 -70 l3 -25 27 21 c14 12 29 21 32
21 3 0 6 -52 6 -116 0 -114 0 -115 23 -112 22 3 22 6 25 166 3 188 -1 194 -76
115z"/>
<path d="M29662 2016 c-6 -14 -23 -32 -37 -42 -17 -11 -25 -25 -25 -46 l0 -29
30 21 29 21 3 -113 3 -113 25 0 25 0 3 163 2 162 -23 0 c-16 0 -28 -9 -35 -24z"/>
<path d="M30877 1898 c-66 -207 -62 -190 -40 -186 12 2 23 19 32 51 l15 47 58
0 58 0 11 -46 c12 -45 28 -62 48 -50 5 4 -12 71 -43 164 -43 129 -56 158 -73
160 -18 3 -26 -14 -66 -140z m86 22 c10 -33 17 -62 17 -65 0 -3 -19 -5 -41 -5
-35 0 -41 3 -36 18 3 9 11 38 18 65 7 26 16 47 19 47 4 0 14 -27 23 -60z"/>
<path d="M29807 1988 c-3 -24 -9 -62 -13 -85 -6 -39 -5 -43 15 -43 12 0 30 6
41 12 28 18 54 -1 58 -40 6 -63 -33 -94 -63 -48 -11 17 -22 22 -40 18 -30 -5
-30 -8 -5 -49 53 -87 160 -35 160 78 0 58 -33 99 -80 99 -23 0 -30 4 -30 20 0
17 7 20 50 20 49 0 50 1 50 30 l0 30 -69 0 -68 0 -6 -42z"/>
<path d="M4580 1985 c-7 -9 -11 -17 -9 -20 3 -2 10 5 17 15 14 24 10 26 -8 5z"/>
<path d="M31913 1950 c-72 -28 -82 -168 -16 -220 75 -58 152 26 132 143 -10
61 -64 97 -116 77z m71 -52 c18 -25 21 -90 6 -118 -19 -35 -45 -42 -74 -19
-50 39 -28 159 29 159 13 0 31 -10 39 -22z"/>
<path d="M32126 1945 c-14 -8 -26 -10 -26 -4 0 5 -7 9 -15 9 -13 0 -15 -22
-13 -162 3 -137 5 -163 18 -163 11 0 16 14 18 52 3 49 4 52 22 41 29 -19 72 1
92 42 51 100 -15 226 -96 185z m64 -44 c18 -35 12 -119 -10 -141 -25 -25 -32
-25 -56 1 -23 26 -26 117 -5 142 18 23 58 21 71 -2z"/>
<path d="M31110 1833 c39 -124 39 -151 2 -168 -27 -12 -29 -45 -4 -45 37 0 55
36 108 215 15 50 29 96 31 103 3 7 -3 12 -13 12 -15 0 -25 -19 -45 -88 -15
-48 -29 -80 -32 -72 -4 8 -16 48 -27 88 -17 54 -26 72 -40 72 -16 0 -14 -12
20 -117z"/>
<path d="M31297 1882 c-7 -75 -24 -132 -38 -132 -5 0 -9 -22 -9 -50 0 -38 4
-50 15 -50 10 0 15 10 15 30 l0 30 75 0 75 0 0 -30 c0 -20 5 -30 15 -30 11 0
15 12 15 45 0 31 -5 47 -15 51 -12 5 -15 26 -15 105 l0 99 -64 0 -63 0 -6 -68z
m103 -52 l0 -80 -48 0 -48 0 15 80 15 80 33 0 33 0 0 -80z"/>
<path d="M31492 1833 c4 -148 15 -152 78 -33 l45 85 3 -87 c2 -69 6 -88 17
-88 12 0 15 21 15 120 0 108 -2 120 -18 120 -12 0 -31 -26 -59 -82 l-42 -83 0
83 c-1 76 -3 82 -21 82 -20 0 -21 -5 -18 -117z"/>
<path d="M31680 1930 c0 -16 7 -20 30 -20 l30 0 0 -100 c0 -82 3 -100 15 -100
12 0 15 18 15 99 l0 100 32 3 c22 2 34 9 36 21 3 15 -6 17 -77 17 -74 0 -81
-2 -81 -20z"/>
<path d="M32280 1829 c0 -109 2 -120 18 -117 10 2 35 36 59 83 l42 80 3 -80
c2 -63 6 -80 18 -80 12 0 16 21 18 118 3 112 2 117 -18 117 -15 0 -31 -21 -64
-87 l-45 -88 0 88 c-1 70 -4 87 -16 87 -13 0 -15 -20 -15 -121z"/>
<path d="M32502 1934 c-29 -20 -30 -76 -2 -104 l20 -20 -25 -40 c-29 -47 -32
-63 -8 -58 10 2 28 22 41 46 17 31 30 42 47 42 21 0 24 -5 27 -42 2 -30 8 -43
18 -43 12 0 16 21 18 118 l3 117 -58 0 c-37 0 -67 -6 -81 -16z m98 -59 c0 -33
-2 -35 -35 -35 -24 0 -37 6 -45 21 -18 33 -5 49 40 49 39 0 40 -1 40 -35z"/>
<path d="M4650 1858 c24 -27 45 -48 47 -48 8 0 0 9 -44 50 l-48 45 45 -47z"/>
<path d="M4710 1806 c0 -3 9 -10 20 -16 11 -6 20 -8 20 -6 0 3 -9 10 -20 16
-11 6 -20 8 -20 6z"/>
<path d="M29230 1384 c0 -88 3 -115 13 -112 7 3 13 26 15 56 l3 52 45 0 44 0
0 -55 c0 -42 3 -55 15 -55 12 0 15 19 15 115 0 96 -3 115 -15 115 -11 0 -15
-12 -15 -45 l0 -45 -45 0 -45 0 0 45 c0 33 -4 45 -15 45 -12 0 -15 -20 -15
-116z"/>
<path d="M30052 1488 c9 -25 37 -33 55 -16 9 10 13 21 9 25 -5 5 -11 2 -13 -4
-5 -15 -33 -17 -33 -3 0 6 -5 10 -11 10 -6 0 -9 -5 -7 -12z"/>
<path d="M29412 1428 c-14 -14 -16 -38 -2 -38 5 0 13 7 18 16 12 22 47 14 47
-11 0 -14 -8 -21 -26 -23 -38 -4 -63 -35 -55 -67 8 -32 31 -41 67 -28 16 7 29
7 29 2 0 -5 5 -9 10 -9 15 0 13 143 -2 158 -7 7 -26 12 -43 12 -17 0 -36 -5
-43 -12z m68 -97 c0 -24 -25 -45 -45 -37 -21 8 -19 43 3 49 34 9 42 7 42 -12z"/>
<path d="M29520 1428 c0 -7 9 -42 20 -76 26 -82 26 -109 0 -117 -23 -7 -26
-21 -6 -28 23 -9 43 23 67 106 l22 77 19 -31 c16 -26 24 -30 48 -27 28 4 30 2
30 -29 0 -18 5 -33 10 -33 6 0 10 35 10 85 0 50 -4 85 -10 85 -5 0 -10 -18
-10 -41 0 -38 -1 -40 -27 -37 -24 3 -28 8 -31 41 -3 31 -7 37 -26 37 -19 0
-25 -9 -40 -62 l-18 -63 -19 63 c-11 34 -24 62 -29 62 -6 0 -10 -6 -10 -12z"/>
<path d="M29760 1355 c0 -50 4 -85 10 -85 6 0 10 16 10 35 0 33 2 35 35 35 33
0 35 -2 35 -35 0 -19 5 -35 10 -35 6 0 10 35 10 85 0 50 -4 85 -10 85 -5 0
-10 -16 -10 -35 0 -33 -2 -35 -35 -35 -33 0 -35 2 -35 35 0 19 -4 35 -10 35
-6 0 -10 -35 -10 -85z"/>
<path d="M29880 1355 l0 -85 29 0 c48 0 73 38 55 84 -4 10 -18 16 -35 16 -26
0 -29 3 -29 35 0 19 -4 35 -10 35 -6 0 -10 -35 -10 -85z m65 -30 c0 -13 -8
-21 -22 -23 -19 -3 -23 1 -23 23 0 22 4 26 23 23 14 -2 22 -10 22 -23z"/>
<path d="M29990 1355 c0 -50 4 -85 10 -85 6 0 10 35 10 85 0 50 -4 85 -10 85
-6 0 -10 -35 -10 -85z"/>
<path d="M30030 1355 c0 -105 13 -110 57 -22 l32 62 0 -62 c1 -35 5 -63 11
-63 6 0 10 35 10 85 0 105 -13 110 -57 23 l-32 -63 0 63 c-1 34 -5 62 -11 62
-6 0 -10 -35 -10 -85z"/>
<path d="M29394 1005 c-22 -34 -22 -100 1 -125 25 -27 70 -26 89 2 23 33 21
103 -4 128 -28 28 -66 26 -86 -5z m77 -26 c28 -53 -25 -129 -58 -83 -14 19
-17 62 -7 88 9 23 51 20 65 -5z"/>
<path d="M29507 1023 c-13 -12 -7 -23 13 -23 18 0 20 -7 20 -70 0 -56 3 -70
15 -70 12 0 15 14 15 70 0 63 2 70 20 70 11 0 20 7 20 15 0 11 -12 15 -48 15
-27 0 -52 -3 -55 -7z"/>
<path d="M29637 1023 c-4 -3 -7 -27 -7 -52 0 -25 -7 -59 -15 -75 -17 -32 -20
-86 -5 -86 6 0 10 11 10 25 0 23 3 25 49 25 42 0 50 -3 53 -20 5 -33 23 -28
26 8 2 18 -1 32 -7 32 -7 0 -11 29 -11 75 l0 75 -43 0 c-24 0 -47 -3 -50 -7z
m71 -80 c-3 -57 -3 -58 -35 -61 l-33 -3 6 48 c8 69 10 73 39 73 25 0 26 -2 23
-57z"/>
<path d="M29764 1009 c-12 -14 -19 -36 -19 -64 0 -28 7 -50 19 -64 26 -28 70
-27 91 1 19 28 2 37 -24 14 -23 -21 -38 -20 -51 3 -15 29 -14 30 38 33 39 2
48 7 50 24 4 28 -34 74 -62 74 -13 0 -31 -9 -42 -21z m74 -31 c3 -15 -4 -18
-32 -18 -39 0 -39 0 -30 25 9 22 58 16 62 -7z"/>
<path d="M29890 960 c0 -54 -4 -72 -15 -76 -23 -9 -18 -26 8 -22 20 3 22 9 25
71 3 67 3 67 32 67 l30 0 0 -70 c0 -56 3 -70 15 -70 13 0 15 14 13 83 l-3 82
-52 3 -53 3 0 -71z"/>
</g>
</svg>
