<?xml version="1.0" standalone="no"?>
<!DOCTYPE svg PUBLIC "-//W3C//DTD SVG 20010904//EN"
 "http://www.w3.org/TR/2001/REC-SVG-20010904/DTD/svg10.dtd">
<svg version="1.0" xmlns="http://www.w3.org/2000/svg"
 width="3800.000000pt" height="2002.000000pt" viewBox="0 0 3800.000000 2002.000000"
 preserveAspectRatio="xMidYMid meet">

<g transform="translate(0.000000,2002.000000) scale(0.100000,-0.100000)"
fill="#000000" stroke="none">
<path d="M15310 19890 l0 -130 -3980 0 -3980 0 0 -655 0 -655 -1535 0 -1535 0
0 -4130 0 -4130 2415 0 2415 0 0 2295 0 2295 3151 0 3150 0 -7 -1470 -7 -1470
3746 0 3747 0 0 1470 0 1470 3065 0 3065 0 0 -7385 0 -7385 2350 0 2350 0 0
9155 0 9155 -310 0 -310 0 0 -165 0 -165 145 0 145 0 0 -1825 0 -1825 -949 0
-949 0 -4 -27 c-2 -16 -2 -54 0 -85 l4 -58 949 0 949 0 0 -525 0 -525 -1400 0
-1400 0 0 525 0 525 139 0 c95 0 142 4 147 12 4 7 3 8 -4 4 -9 -5 -12 15 -12
74 l0 80 -217 -2 -218 -3 -3 -767 -2 -768 1485 0 1485 0 0 -625 0 -625 -1485
0 -1485 0 0 -1254 0 -1254 33 -4 c17 -2 56 -2 85 0 l52 4 0 1179 0 1179 1400
0 1400 0 0 -1795 0 -1795 -1400 0 -1400 0 0 304 c0 277 -2 305 -17 317 -16 13
-17 12 -4 -3 13 -17 8 -18 -68 -18 l-81 0 0 -1619 0 -1620 33 -3 c17 -2 56 -1
85 0 l52 4 0 1254 0 1254 1400 0 1400 0 0 -1815 0 -1815 -1400 0 -1400 0 0
249 c0 225 -2 250 -17 262 -16 13 -17 12 -4 -3 13 -17 8 -18 -68 -18 l-81 0 0
-399 0 -399 33 -4 c17 -2 56 -2 85 0 l52 4 0 89 0 89 1400 0 1400 0 0 -1790 0
-1790 -1400 0 -1400 0 0 1389 c0 1311 -1 1389 -17 1402 -16 13 -17 12 -4 -4
13 -16 8 -17 -68 -17 l-81 0 0 -115 0 -115 -115 0 -115 0 0 -26 c0 -16 -4 -23
-11 -18 -8 5 -8 1 0 -14 6 -11 11 -39 11 -61 l0 -40 113 -3 112 -3 3 -1187 2
-1188 -520 0 -520 0 0 1191 0 1190 93 -2 c50 -1 91 1 90 5 -2 3 -3 40 -3 81
l0 75 -90 0 -90 0 0 6120 0 6120 -3245 0 -3245 0 0 70 0 70 -145 0 -145 0 0
-70 c0 -68 -1 -70 -25 -70 l-25 0 0 -1455 0 -1455 -560 0 -560 0 0 1455 0
1455 -309 0 -309 0 -4 -52 c-1 -29 -2 -74 0 -100 l3 -48 172 -2 172 -3 0
-1345 0 -1345 -632 -3 -633 -2 0 495 0 495 -40 0 -40 0 0 -495 0 -495 -1330 0
-1330 0 0 1350 0 1350 1330 0 1330 0 0 -539 0 -539 35 -4 c20 -2 38 -2 40 1 3
2 5 247 5 543 l0 538 149 0 c103 0 152 4 157 12 4 7 3 8 -4 4 -9 -5 -12 19
-12 88 l0 96 -1650 0 -1650 0 0 -1455 0 -1455 -560 0 -560 0 0 1454 c0 1283
-2 1455 -15 1460 -11 4 -15 22 -15 71 l0 65 -160 0 -160 0 0 -70 0 -70 -3330
0 -3330 0 0 -930 0 -930 -134 0 -135 0 -3 -37 c-2 -21 -1 -64 0 -95 l4 -58
142 0 142 0 -3 -1007 c-2 -555 -6 -1158 -9 -1340 l-6 -333 -669 0 -668 0 -3
38 -3 37 -112 3 -113 3 0 -41 0 -40 -1270 0 -1270 0 0 1340 0 1340 1270 0
1270 0 0 -40 0 -40 115 0 115 0 0 40 0 40 223 0 222 0 -3 95 -3 95 -75 0 -74
0 0 215 0 215 -56 0 c-37 0 -53 4 -48 11 5 8 1 8 -14 0 -11 -6 -39 -11 -61
-11 l-41 0 0 -215 0 -215 -1420 0 -1420 0 0 650 0 650 1420 0 1420 0 0 -117 0
-118 110 3 110 3 0 595 0 594 -56 0 c-37 0 -53 4 -48 11 5 8 1 8 -14 0 -11 -6
-39 -11 -61 -11 l-41 0 0 -425 0 -425 -1420 0 -1420 0 0 1730 0 1730 1420 0
1420 0 0 -994 c0 -934 1 -994 18 -1007 15 -13 16 -12 3 4 -13 16 -7 17 93 17
l106 0 0 215 0 215 2819 0 2820 0 3 38 c2 20 1 61 0 90 l-4 52 -2814 0 -2814
0 0 1208 c0 664 -2 1272 -4 1352 -2 80 -2 128 0 108 l5 -38 3835 0 3834 0 0
-1315 0 -1315 -706 0 -706 0 -49 -36 c-27 -20 -49 -38 -49 -41 0 -2 23 12 50
32 l50 37 0 -86 0 -86 3479 0 3480 0 3 38 c2 20 1 61 0 90 l-4 52 -2659 0
-2659 0 0 1430 0 1430 3490 0 3490 0 0 -1430 0 -1430 -519 0 c-482 0 -520 -1
-532 -17 -13 -16 -12 -17 4 -4 16 13 17 8 17 -73 l0 -86 1745 0 1745 0 0 61
c0 41 3 58 11 53 8 -5 8 -1 0 14 -6 11 -11 38 -11 60 0 26 -5 42 -15 46 -8 3
-15 15 -15 26 0 16 -7 20 -30 20 -25 0 -30 -4 -30 -25 l0 -25 -217 2 c-218 3
-218 3 -221 26 -3 17 -10 22 -32 22 -22 0 -29 -5 -32 -22 l-3 -23 -785 0 -785
0 0 1255 0 1255 788 3 787 2 0 -40 c0 -38 2 -40 30 -40 28 0 30 2 30 40 l0 40
785 0 785 0 0 -40 c0 -39 1 -40 35 -40 34 0 35 1 35 40 l0 40 705 0 705 0 0
-830 0 -830 -45 0 c-43 0 -45 -1 -45 -30 0 -29 2 -30 45 -30 l45 0 0 -400 0
-400 -705 0 -705 0 0 25 c0 22 -4 25 -35 25 -31 0 -35 -3 -35 -25 l0 -26 -205
1 c-113 1 -205 -1 -205 -4 0 -3 0 -55 0 -116 l0 -110 1909 0 1909 0 4 73 c2
39 2 98 0 130 l-3 57 -174 0 c-110 0 -175 4 -175 10 0 6 -28 10 -65 10 -37 0
-65 -4 -65 -10 0 -7 -207 -10 -600 -10 l-600 0 0 1245 0 1245 600 0 600 0 0
-40 0 -40 65 0 65 0 0 40 0 40 600 0 600 0 0 -1245 0 -1245 -111 0 -111 0 -49
-36 c-27 -20 -49 -38 -49 -41 0 -2 23 12 50 32 l50 37 0 -126 0 -126 230 0
230 0 0 705 0 705 145 0 145 0 0 165 0 165 -145 0 -145 0 0 720 0 720 -3855 0
-3855 0 0 130 0 130 -187 -2 -188 -3 -3 -47 -3 -48 -3415 0 -3414 0 0 50 0 50
-180 0 -180 0 0 -130z"/>
<path d="M28845 18981 c-27 -11 -42 -30 -50 -62 -6 -23 -3 -27 19 -31 20 -4
26 0 31 19 4 19 11 24 33 21 22 -2 28 -9 30 -34 2 -24 -8 -43 -53 -98 -30 -37
-55 -68 -55 -69 0 -1 -4 -17 -9 -35 l-10 -32 90 0 89 0 0 30 c0 29 -2 30 -45
30 -25 0 -45 3 -45 6 0 4 15 25 33 48 19 23 39 51 45 63 18 33 15 98 -5 122
-20 24 -68 35 -98 22z"/>
<path d="M29043 18975 c-29 -20 -43 -73 -43 -157 0 -88 22 -143 62 -157 33
-12 52 -5 82 28 22 24 34 150 22 216 -14 70 -74 104 -123 70z m71 -103 c12
-74 -3 -157 -28 -157 -26 0 -40 52 -33 131 5 71 12 86 35 82 12 -2 20 -19 26
-56z"/>
<path d="M29254 18978 c-41 -19 -55 -78 -29 -116 14 -19 14 -24 -1 -47 -51
-79 13 -182 96 -154 56 20 78 103 41 150 -17 22 -17 27 -5 44 22 30 17 82 -11
110 -25 26 -56 31 -91 13z m50 -44 c21 -8 21 -63 1 -70 -33 -13 -59 38 -33 64
14 14 12 14 32 6z m15 -138 c16 -20 10 -66 -10 -79 -27 -17 -49 -1 -49 36 0
50 33 74 59 43z"/>
<path d="M24979 18681 c-34 -35 -38 -66 -8 -74 15 -4 23 1 31 19 13 27 55 33
64 9 11 -27 -5 -62 -52 -117 -41 -48 -74 -105 -74 -129 0 -5 41 -9 90 -9 l90
0 0 30 c0 29 -1 30 -51 30 l-51 0 19 24 c10 13 31 39 46 59 65 82 35 187 -54
187 -11 0 -34 -13 -50 -29z"/>
<path d="M25207 18699 c-34 -20 -50 -69 -49 -154 0 -98 18 -148 58 -162 62
-22 103 21 111 116 8 90 -4 149 -37 183 -30 29 -53 34 -83 17z m61 -157 c2
-88 0 -103 -14 -109 -29 -11 -44 24 -44 101 0 95 7 118 34 114 20 -3 21 -10
24 -106z"/>
<path d="M18861 18676 c-28 -30 -25 -70 6 -74 16 -2 22 3 25 20 4 27 39 36 57
14 17 -20 5 -58 -34 -103 -50 -59 -85 -114 -85 -134 0 -17 9 -19 91 -19 l90 0
-3 28 c-3 24 -8 27 -51 32 l-47 5 45 55 c61 74 70 134 27 183 -24 27 -93 23
-121 -7z"/>
<path d="M19070 18670 c-46 -64 -35 -239 17 -280 35 -27 59 -25 93 8 35 36 48
118 32 205 -14 75 -33 97 -83 97 -30 0 -42 -6 -59 -30z m84 -36 c3 -9 6 -51 6
-94 0 -91 -5 -110 -30 -110 -25 0 -30 19 -30 110 0 91 5 110 30 110 10 0 21
-7 24 -16z"/>
<path d="M19291 18681 c-39 -39 -54 -167 -28 -240 41 -117 175 -74 164 52 -6
65 -39 101 -85 93 -31 -5 -33 -3 -30 21 4 36 35 54 52 31 18 -24 56 -24 56 0
0 10 -7 28 -16 40 -20 29 -85 31 -113 3z m83 -172 c19 -55 -17 -102 -52 -67
-13 13 -16 56 -6 83 10 24 47 14 58 -16z"/>
<path d="M25360 18670 c0 -30 1 -30 55 -30 30 0 55 -2 55 -5 0 -3 -9 -23 -19
-43 -23 -44 -51 -148 -51 -186 0 -20 5 -26 23 -26 20 0 24 7 34 71 6 43 25
100 47 144 52 106 53 105 -54 105 l-90 0 0 -30z"/>
<path d="M11291 18666 c-28 -30 -25 -70 6 -74 16 -2 22 3 25 20 4 27 39 36 57
14 17 -20 5 -58 -34 -103 -50 -59 -85 -114 -85 -134 0 -17 9 -19 91 -19 l90 0
-3 28 c-3 24 -8 27 -51 32 l-47 5 45 55 c61 74 70 134 27 183 -24 27 -93 23
-121 -7z"/>
<path d="M11500 18660 c-46 -64 -35 -239 17 -280 35 -27 59 -25 93 8 35 36 48
118 32 205 -14 75 -33 97 -83 97 -30 0 -42 -6 -59 -30z m84 -36 c3 -9 6 -51 6
-94 0 -91 -5 -110 -30 -110 -25 0 -30 19 -30 110 0 91 5 110 30 110 10 0 21
-7 24 -16z"/>
<path d="M11715 18678 c-5 -17 -25 -128 -25 -144 0 -14 38 -26 46 -13 10 16
53 9 64 -10 15 -29 12 -56 -9 -82 l-18 -23 -25 27 c-27 29 -35 32 -57 18 -26
-17 32 -90 72 -91 32 0 74 28 87 60 20 48 8 120 -26 148 -17 15 -35 22 -51 19
-19 -3 -23 0 -23 19 0 22 4 24 50 24 49 0 50 1 50 30 l0 30 -65 0 c-44 0 -67
-4 -70 -12z"/>
<path d="M28002 18368 c-7 -7 -12 -19 -12 -27 1 -13 2 -13 11 2 5 9 17 17 24
17 18 0 20 -36 3 -44 -9 -3 -8 -8 5 -16 9 -6 17 -17 17 -24 0 -20 -27 -27 -40
-10 -18 21 -32 17 -20 -6 6 -12 21 -20 35 -20 29 0 50 33 37 57 -5 9 -7 24 -5
34 10 36 -30 62 -55 37z"/>
<path d="M29380 18305 c0 -37 4 -65 10 -65 6 0 10 27 10 60 0 57 1 60 25 60
24 0 25 -3 25 -60 0 -33 4 -60 10 -60 6 0 10 28 10 65 l0 65 -45 0 -45 0 0
-65z"/>
<path d="M28085 18330 c-4 -6 -4 -14 0 -18 3 -3 10 0 14 7 5 7 14 10 20 7 18
-12 13 -23 -15 -30 -19 -5 -25 -12 -22 -29 2 -17 10 -22 36 -23 l33 -1 -3 46
c-3 41 -6 46 -30 49 -14 2 -29 -2 -33 -8z m37 -72 c-6 -6 -16 -7 -23 -3 -9 6
-7 12 7 22 21 15 34 -1 16 -19z"/>
<path d="M28171 18288 c2 -49 2 -50 9 -18 l7 35 8 -32 c4 -18 11 -33 15 -33 5
0 12 15 16 33 l8 32 7 -35 c6 -32 6 -30 8 18 1 57 -13 70 -24 22 -4 -16 -10
-30 -15 -30 -4 0 -10 14 -13 30 -10 49 -27 34 -26 -22z"/>
<path d="M28282 18328 c-17 -17 -15 -63 3 -78 18 -15 47 -10 53 10 4 13 3 13
-11 2 -9 -8 -21 -11 -27 -7 -18 11 -11 25 14 25 31 0 36 8 25 38 -9 24 -38 29
-57 10z m46 -16 c2 -7 -6 -12 -17 -12 -21 0 -27 11 -14 24 9 9 26 2 31 -12z"/>
<path d="M28364 18327 c-3 -8 -4 -30 -2 -49 2 -27 7 -33 27 -33 13 0 27 7 29
15 4 13 3 13 -11 2 -22 -18 -37 -7 -37 28 0 35 15 46 37 28 14 -11 16 -11 11
2 -6 20 -47 25 -54 7z"/>
<path d="M28442 18327 c9 -7 18 -31 21 -53 l4 -39 1 39 c1 24 9 44 20 52 15
12 12 13 -23 13 -35 0 -38 -1 -23 -12z"/>
<path d="M28510 18291 c0 -28 4 -51 9 -51 14 0 19 22 14 58 -8 52 -23 48 -23
-7z"/>
<path d="M28552 18315 c-14 -31 -15 -46 -2 -25 7 11 10 7 10 -17 0 -18 5 -33
10 -33 6 0 10 23 10 50 0 55 -10 64 -28 25z"/>
<path d="M28590 18330 c0 -5 5 -10 10 -10 6 0 10 -18 10 -40 0 -22 5 -40 10
-40 6 0 10 18 10 40 0 22 5 40 10 40 6 0 10 5 10 10 0 6 -13 10 -30 10 -16 0
-30 -4 -30 -10z"/>
<path d="M28668 18315 c-23 -51 28 -100 62 -60 14 17 0 21 -17 4 -6 -6 -16 -8
-22 -5 -19 12 -12 26 13 26 31 0 40 14 26 40 -15 28 -48 25 -62 -5z m50 -3 c2
-7 -6 -12 -17 -12 -21 0 -27 11 -14 24 9 9 26 2 31 -12z"/>
<path d="M28760 18302 c0 -21 -5 -43 -12 -50 -9 -9 -8 -12 5 -12 13 0 17 9 17
40 0 33 3 40 19 40 16 0 21 -8 24 -42 3 -41 4 -41 5 10 2 52 2 52 -28 52 -28
0 -30 -2 -30 -38z"/>
<path d="M28840 18291 c0 -50 1 -51 29 -51 21 0 32 6 36 20 8 26 -1 40 -26 40
-10 0 -19 6 -19 14 0 8 -4 18 -10 21 -6 4 -10 -13 -10 -44z m50 -20 c0 -5 -7
-11 -15 -15 -9 -3 -15 0 -15 9 0 8 7 15 15 15 8 0 15 -4 15 -9z"/>
<path d="M29500 18296 c0 -26 -5 -46 -12 -49 -8 -3 -6 -6 5 -6 13 -1 17 7 17
39 0 33 3 40 19 40 16 0 21 -8 24 -42 3 -41 4 -41 5 10 2 52 2 52 -28 52 -29
0 -30 -2 -30 -44z"/>
<path d="M29589 18324 c-12 -15 -12 -16 8 -10 37 12 49 -5 14 -20 -17 -7 -31
-19 -31 -27 0 -22 23 -37 40 -27 8 5 18 6 23 3 4 -3 7 17 5 44 -2 40 -7 49
-24 51 -11 2 -27 -5 -35 -14z m45 -59 c-4 -8 -12 -15 -20 -15 -8 0 -14 7 -14
15 0 8 9 15 20 15 13 0 18 -5 14 -15z"/>
<path d="M29774 18332 c-34 -23 -20 -92 20 -92 13 0 27 7 30 16 20 53 -12 102
-50 76z m39 -32 c6 -23 -16 -56 -31 -46 -13 8 -16 48 -5 59 13 13 31 7 36 -13z"/>
<path d="M29847 18333 c-4 -3 -7 -26 -7 -50 0 -44 0 -44 33 -41 29 3 32 6 33
38 0 19 -4 41 -9 48 -10 13 -39 16 -50 5z m43 -23 c0 -5 -7 -10 -15 -10 -8 0
-15 5 -15 10 0 6 7 10 15 10 8 0 15 -4 15 -10z m3 -45 c1 -5 -6 -11 -15 -13
-11 -2 -18 3 -18 13 0 17 30 18 33 0z"/>
<path d="M29932 18328 c-18 -18 -14 -63 7 -83 19 -16 21 -16 44 9 13 14 34 26
46 26 13 0 20 4 15 11 -3 6 -15 8 -26 6 -12 -4 -21 1 -25 11 -12 32 -40 41
-61 20z m43 -43 c0 -20 -6 -31 -17 -33 -15 -3 -18 4 -18 33 0 29 3 36 18 33
11 -2 17 -13 17 -33z"/>
<path d="M29670 18285 c0 -25 5 -45 10 -45 6 0 10 9 10 20 0 11 7 20 15 20 8
0 15 -9 15 -20 0 -11 5 -20 10 -20 6 0 10 20 10 45 0 25 -4 45 -10 45 -5 0
-10 -7 -10 -15 0 -8 -7 -15 -15 -15 -8 0 -15 7 -15 15 0 8 -4 15 -10 15 -5 0
-10 -20 -10 -45z"/>
<path d="M24180 18005 l0 -165 64 0 c82 0 110 11 126 49 14 36 8 98 -13 119
-8 7 -42 16 -76 19 l-61 6 0 48 0 49 65 0 c58 0 65 2 65 20 0 18 -7 20 -85 20
l-85 0 0 -165z m148 -27 c7 -7 12 -26 12 -43 0 -43 -16 -55 -72 -55 l-48 0 0
55 0 55 48 0 c26 0 53 -5 60 -12z"/>
<path d="M18266 18008 c-57 -182 -55 -171 -34 -175 12 -3 20 8 30 44 l14 48
59 0 58 0 15 -43 c13 -40 35 -62 48 -49 3 3 -18 78 -47 166 -47 140 -56 161
-75 161 -18 0 -27 -19 -68 -152z m72 -36 c-22 -2 -42 -2 -44 0 -1 2 7 35 18
73 l22 70 22 -70 22 -70 -40 -3z"/>
<path d="M10240 17984 c0 -152 1 -165 18 -162 14 3 18 17 22 81 l5 79 21 -24
c12 -12 34 -47 48 -76 25 -50 49 -72 63 -58 8 8 -36 103 -64 136 l-22 26 30
62 c16 35 36 62 44 62 8 0 15 9 15 20 0 11 -7 20 -16 20 -30 0 -52 -20 -64
-57 -15 -46 -37 -83 -50 -83 -6 0 -10 31 -10 70 0 63 -2 70 -20 70 -19 0 -20
-7 -20 -166z"/>
<path d="M10980 18100 c0 -49 0 -50 -25 -38 -31 14 -67 -3 -84 -39 -17 -37
-14 -131 6 -164 20 -34 57 -47 85 -30 17 10 18 7 18 -44 0 -42 3 -55 15 -55
12 0 15 13 15 55 0 53 1 55 21 45 89 -48 147 142 68 221 -20 20 -32 20 -71 4
-16 -6 -18 -1 -18 44 0 39 -4 51 -15 51 -11 0 -15 -12 -15 -50z m-6 -117 c17
-82 -16 -151 -59 -120 -23 17 -31 97 -15 137 10 25 18 30 39 28 22 -2 27 -10
35 -45z m116 28 c18 -35 12 -119 -10 -141 -11 -11 -24 -20 -29 -20 -29 0 -47
79 -31 138 9 35 15 42 35 42 14 0 29 -8 35 -19z"/>
<path d="M30216 18141 c-12 -5 -15 -10 -9 -14 6 -4 16 0 23 8 14 17 13 17 -14
6z"/>
<path d="M28161 18083 c-11 -39 -14 -79 -4 -55 2 6 15 12 28 12 13 0 26 -6 29
-12 4 -7 4 -2 1 12 -2 14 -5 37 -5 53 0 20 -5 27 -20 27 -14 0 -22 -11 -29
-37z m39 -3 c0 -20 -5 -30 -15 -30 -16 0 -19 17 -9 44 10 26 24 18 24 -14z"/>
<path d="M28232 18080 c-1 -42 0 -44 13 -26 8 11 16 25 16 30 1 6 5 -2 9 -19
7 -27 8 -26 8 15 1 42 0 44 -13 26 -8 -11 -16 -25 -16 -30 -1 -6 -5 3 -9 19
-7 27 -8 26 -8 -15z"/>
<path d="M28301 18063 c1 -32 3 -50 6 -40 2 9 11 17 18 17 20 0 37 37 30 60
-4 13 -15 20 -31 20 -23 0 -24 -3 -23 -57z m39 23 c0 -14 -5 -28 -10 -31 -13
-8 -24 20 -16 40 9 24 26 17 26 -9z"/>
<path d="M28374 18106 c-11 -28 0 -61 20 -61 11 0 21 7 23 15 4 12 3 13 -5 1
-5 -7 -15 -10 -21 -7 -20 12 -12 26 15 26 20 0 25 4 20 16 -3 9 -6 18 -6 20 0
11 -41 2 -46 -10z m36 -6 c0 -5 -7 -10 -15 -10 -8 0 -15 5 -15 10 0 6 7 10 15
10 8 0 15 -4 15 -10z"/>
<path d="M28442 18080 c0 -25 2 -37 5 -27 2 9 7 17 10 17 3 0 12 -8 20 -17 13
-16 13 -16 3 5 -14 28 -7 52 15 52 10 0 15 -11 17 -37 l1 -38 4 35 c3 19 10
38 16 42 7 4 -4 8 -24 8 -26 0 -39 -5 -44 -17 -7 -17 -8 -16 -15 2 -6 15 -8 8
-8 -25z"/>
<path d="M28557 18114 c-13 -13 -7 -65 8 -70 23 -9 46 16 43 45 -3 26 -35 41
-51 25z m38 -34 c0 -27 -22 -39 -31 -16 -8 22 3 49 19 43 6 -2 12 -14 12 -27z"/>
<path d="M28621 18063 c1 -32 3 -50 6 -40 2 9 11 17 18 17 20 0 37 37 30 60
-4 13 -15 20 -31 20 -23 0 -24 -3 -23 -57z m39 23 c0 -14 -5 -28 -10 -31 -13
-8 -24 20 -16 40 9 24 26 17 26 -9z"/>
<path d="M28690 18111 c0 -5 9 -7 20 -4 11 3 20 0 20 -6 0 -6 -6 -11 -14 -11
-19 0 -36 -23 -28 -37 4 -7 18 -11 30 -10 19 1 22 7 22 39 0 34 -3 38 -25 38
-14 0 -25 -4 -25 -9z m38 -43 c-6 -18 -28 -21 -28 -4 0 9 7 16 16 16 9 0 14
-5 12 -12z"/>
<path d="M29187 18103 c-14 -13 -7 -25 8 -13 15 12 35 6 35 -11 0 -5 -8 -9
-17 -9 -16 -1 -16 -2 1 -15 25 -19 12 -33 -14 -17 -22 13 -27 3 -8 -16 19 -19
37 -14 49 12 17 36 4 76 -25 76 -12 0 -26 -3 -29 -7z"/>
<path d="M29260 18066 c0 -25 5 -48 10 -51 6 -4 10 6 10 22 l1 28 15 -28 c9
-16 18 -26 21 -23 4 3 1 17 -6 30 -10 18 -10 29 -2 45 7 11 8 21 3 21 -5 0
-14 -10 -20 -22 l-11 -23 0 23 c-2 42 -21 22 -21 -22z"/>
<path d="M29337 18104 c-13 -13 -7 -71 9 -85 26 -21 49 1 49 47 0 34 -3 39
-25 42 -14 2 -29 0 -33 -4z m49 -28 c7 -29 -1 -46 -21 -46 -8 0 -17 5 -20 11
-11 16 4 59 20 59 8 0 17 -11 21 -24z"/>
<path d="M29420 18059 c0 -31 4 -48 10 -44 6 3 10 13 10 21 0 8 7 14 15 14 8
0 15 -9 15 -21 0 -11 5 -17 10 -14 6 3 10 26 10 51 0 24 -4 44 -10 44 -5 0
-10 -9 -10 -20 0 -11 -7 -20 -15 -20 -8 0 -15 9 -15 20 0 11 -4 20 -10 20 -5
0 -10 -23 -10 -51z"/>
<path d="M29506 18094 c-10 -27 -7 -61 9 -74 35 -29 78 26 55 70 -13 24 -55
27 -64 4z m49 -29 c0 -20 -6 -31 -17 -33 -15 -3 -18 4 -18 33 0 29 3 36 18 33
11 -2 17 -13 17 -33z"/>
<path d="M29590 18060 c0 -27 5 -50 10 -50 6 0 10 8 10 19 0 10 3 33 6 50 5
24 3 31 -10 31 -13 0 -16 -11 -16 -50z"/>
<path d="M29655 18100 c-8 -13 5 -79 16 -86 5 -3 9 18 9 45 0 47 -10 65 -25
41z"/>
<path d="M29701 18063 c0 -29 1 -53 4 -53 2 0 13 17 24 38 l20 37 1 -38 c0
-23 4 -36 10 -32 13 8 13 95 0 95 -5 0 -17 -15 -27 -32 l-17 -33 -7 35 c-6 31
-7 30 -8 -17z"/>
<path d="M29782 18083 c2 -20 9 -29 26 -31 14 -2 22 -10 22 -23 0 -11 5 -17
10 -14 6 3 10 26 10 51 0 24 -4 44 -10 44 -5 0 -10 -11 -10 -25 0 -16 -6 -25
-15 -25 -9 0 -15 9 -15 25 0 14 -5 25 -11 25 -6 0 -9 -12 -7 -27z"/>
<path d="M29866 18095 c-10 -28 -7 -62 9 -75 20 -17 49 -8 52 15 2 11 0 14 -3
8 -8 -18 -44 -16 -44 2 0 10 10 15 30 15 26 0 28 2 21 23 -10 27 -55 36 -65
12z m52 -12 c2 -8 -5 -13 -17 -13 -12 0 -21 6 -21 16 0 18 31 15 38 -3z"/>
<path d="M29957 18103 c-13 -13 -7 -71 9 -84 17 -14 44 -4 52 20 3 10 0 10
-17 0 -27 -18 -46 0 -37 35 6 25 36 38 36 16 0 -5 4 -10 10 -10 5 0 7 7 4 15
-6 15 -45 21 -57 8z"/>
<path d="M30032 18060 c0 -40 2 -47 7 -25 l6 29 18 -28 c10 -15 21 -25 24 -23
2 3 -2 16 -11 29 -14 22 -14 26 0 46 8 12 11 22 5 22 -6 0 -16 -10 -23 -22
l-12 -23 -7 25 c-5 17 -7 8 -7 -30z"/>
<path d="M30101 18063 c0 -29 1 -53 4 -53 2 0 13 17 24 38 l20 37 1 -38 c0
-23 4 -36 10 -32 13 8 13 95 0 95 -5 0 -17 -15 -27 -32 l-17 -33 -7 35 c-6 31
-7 30 -8 -17z"/>
<path d="M30180 18060 c0 -46 12 -66 22 -37 7 19 -3 87 -13 87 -5 0 -9 -22 -9
-50z"/>
<path d="M30222 18085 c-14 -31 -15 -46 -2 -25 8 12 10 9 10 -12 0 -15 5 -30
10 -33 6 -4 10 13 10 44 0 56 -10 65 -28 26z"/>
<path d="M19310 18067 c-35 -18 -50 -53 -50 -120 0 -51 4 -62 29 -88 76 -75
167 5 148 129 -4 24 -17 47 -37 65 -33 30 -53 33 -90 14z m72 -44 c26 -24 25
-116 -2 -143 -25 -25 -32 -25 -61 -1 -20 16 -24 29 -24 74 0 31 6 61 14 70 17
22 49 22 73 0z"/>
<path d="M19532 18071 c-7 -4 -24 -6 -38 -3 l-25 4 3 -163 c3 -138 5 -164 18
-164 11 0 16 15 20 55 3 33 8 50 13 43 13 -21 54 -15 84 11 26 23 28 29 28
101 0 72 -2 78 -28 101 -29 25 -53 30 -75 15z m59 -47 c7 -9 13 -40 13 -70 1
-42 -4 -58 -21 -75 -21 -21 -23 -21 -47 -5 -23 14 -26 23 -26 72 0 30 5 64 10
75 13 23 53 25 71 3z"/>
<path d="M24408 18075 c-3 -3 10 -54 29 -113 37 -116 38 -172 4 -172 -25 0
-32 -10 -21 -30 13 -25 47 -15 64 19 15 28 76 229 84 275 3 21 1 27 -9 24 -8
-3 -25 -41 -39 -86 -13 -45 -27 -82 -30 -82 -3 0 -16 37 -30 82 -23 75 -37 97
-52 83z"/>
<path d="M24600 18069 c0 -6 12 -32 27 -59 l26 -47 -31 -56 c-38 -67 -38 -67
-12 -67 11 0 20 3 20 8 0 4 11 25 24 47 l24 39 23 -47 c15 -30 29 -47 41 -47
24 0 23 3 -14 68 l-32 56 27 48 c30 54 33 68 14 68 -7 0 -23 -18 -36 -40 -12
-22 -24 -40 -26 -40 -3 0 -14 18 -25 40 -19 37 -50 55 -50 29z"/>
<path d="M24797 18074 c-4 -4 -7 -58 -7 -121 0 -106 1 -113 20 -113 19 0 20 7
20 99 l0 100 38 3 c25 2 37 8 37 18 0 11 -14 16 -50 18 -28 2 -54 0 -58 -4z"/>
<path d="M24952 18060 c-25 -24 -29 -50 -7 -50 8 0 15 4 15 10 0 16 41 32 67
26 19 -5 24 -12 21 -34 -3 -23 -9 -28 -48 -35 -51 -9 -80 -37 -80 -77 0 -55
77 -83 121 -44 17 16 19 16 19 1 0 -10 8 -17 18 -17 15 0 17 10 12 106 -4 90
-8 108 -24 120 -29 21 -88 18 -114 -6z m98 -134 c0 -33 -27 -58 -59 -54 -21 2
-26 8 -26 33 0 23 6 31 25 36 48 13 60 10 60 -15z"/>
<path d="M25157 18074 c-4 -4 -7 -49 -7 -101 0 -74 -3 -95 -15 -99 -24 -10
-17 -34 10 -34 35 0 45 27 45 119 l0 81 40 0 40 0 0 -100 c0 -94 1 -100 20
-100 20 0 21 5 18 118 l-3 117 -70 3 c-39 1 -74 0 -78 -4z"/>
<path d="M25340 18060 c0 -16 6 -20 30 -20 l30 0 0 -100 c0 -93 1 -100 20
-100 19 0 20 7 20 99 l0 100 28 3 c16 2 27 9 27 18 0 12 -17 16 -77 18 -73 3
-78 1 -78 -18z"/>
<path d="M25550 18058 c-60 -64 -42 -192 31 -217 38 -13 72 -1 95 34 15 23 15
28 3 36 -10 6 -19 1 -32 -16 -23 -31 -61 -32 -81 -3 -33 47 -23 58 54 58 l70
0 0 33 c0 31 -21 73 -44 89 -23 16 -75 8 -96 -14z m82 -20 c9 -7 19 -23 23
-35 6 -22 4 -23 -50 -23 -54 0 -56 1 -50 23 8 24 32 47 50 47 6 0 18 -6 27
-12z"/>
<path d="M25737 18073 c-4 -3 -7 -78 -7 -165 0 -151 1 -158 20 -158 17 0 20 7
20 51 0 45 2 50 18 44 30 -13 55 -7 81 20 23 22 26 34 26 94 0 60 -4 73 -24
95 -26 27 -59 33 -92 16 -13 -7 -19 -7 -19 0 0 11 -13 13 -23 3z m107 -39 c22
-22 22 -121 -1 -146 -45 -49 -95 12 -79 97 11 58 48 81 80 49z"/>
<path d="M25940 17960 c0 -108 2 -120 18 -120 12 0 31 26 59 83 l42 82 0 -82
c1 -77 3 -83 21 -83 20 0 21 5 18 117 -3 102 -5 118 -20 121 -13 2 -29 -20
-62 -85 l-45 -88 0 88 c-1 70 -4 87 -16 87 -12 0 -15 -20 -15 -120z"/>
<path d="M26180 18073 c-42 -15 -55 -87 -20 -118 19 -17 19 -18 -5 -60 -30
-50 -30 -55 -6 -55 13 0 28 15 43 43 15 27 31 43 46 45 20 3 22 -1 22 -42 0
-40 3 -46 20 -46 20 0 21 5 18 118 l-3 117 -50 2 c-27 1 -57 -1 -65 -4z m80
-68 c0 -33 -2 -35 -34 -35 -39 0 -60 20 -51 50 5 16 15 20 46 20 38 0 39 -1
39 -35z"/>
<path d="M10491 18056 c-34 -19 -50 -54 -51 -111 0 -87 48 -138 115 -121 81
20 88 199 10 234 -32 15 -44 15 -74 -2z m87 -70 c16 -50 6 -103 -24 -122 -61
-40 -105 65 -62 149 7 13 18 17 41 15 27 -3 34 -9 45 -42z"/>
<path d="M11200 18042 c-73 -74 -36 -222 55 -222 25 0 40 8 59 31 14 17 26 35
26 40 0 17 -29 9 -54 -16 -17 -17 -31 -23 -43 -18 -23 9 -42 33 -43 56 0 15
10 17 70 17 l70 0 0 30 c0 17 -7 44 -15 60 -29 57 -81 65 -125 22z m88 -24 c7
-7 12 -20 12 -30 0 -15 -9 -18 -50 -18 -54 0 -58 4 -34 38 17 24 53 29 72 10z"/>
<path d="M11432 18054 c-12 -8 -22 -10 -22 -5 0 6 -7 11 -15 11 -13 0 -15 -22
-13 -162 3 -137 5 -163 18 -163 11 0 16 14 18 52 3 48 5 51 21 41 28 -17 69
-1 91 35 38 62 17 177 -35 197 -34 13 -37 13 -63 -6z m68 -43 c18 -35 12 -119
-10 -141 -25 -25 -32 -25 -56 1 -23 25 -26 118 -5 143 18 22 58 20 71 -3z"/>
<path d="M11633 18060 c-33 -13 -53 -62 -53 -125 0 -49 4 -60 29 -86 38 -37
82 -39 116 -4 26 25 33 55 14 55 -7 0 -22 -11 -34 -24 -34 -36 -73 -22 -89 32
-7 21 -5 22 64 22 53 0 72 4 76 15 9 23 -15 83 -43 105 -28 22 -45 24 -80 10z
m69 -47 c33 -29 22 -43 -32 -43 -41 0 -50 3 -50 18 0 41 48 56 82 25z"/>
<path d="M12368 18060 c-28 -17 -43 -51 -27 -61 8 -5 18 -1 27 12 16 23 48 25
56 3 10 -26 7 -34 -19 -46 -29 -13 -33 -38 -7 -38 38 0 54 -37 26 -64 -21 -22
-31 -20 -59 10 -26 28 -46 25 -38 -6 13 -49 83 -65 122 -29 19 18 22 28 16 58
-3 20 -6 56 -5 81 0 25 -5 53 -12 62 -17 22 -58 31 -80 18z"/>
<path d="M12544 18058 c-18 -8 -44 -46 -44 -63 0 -15 39 -1 43 15 7 26 71 29
81 4 13 -33 6 -42 -39 -48 -82 -13 -119 -73 -71 -120 29 -30 62 -33 94 -10 20
14 23 14 28 0 3 -9 12 -16 19 -16 10 0 12 24 8 108 -4 91 -8 110 -25 125 -22
19 -61 21 -94 5z m86 -143 c0 -25 -31 -65 -51 -65 -38 0 -66 48 -37 66 10 6
58 20 81 23 4 1 7 -10 7 -24z"/>
<path d="M18475 18048 c4 -13 20 -66 37 -118 25 -78 28 -100 19 -122 -7 -18
-18 -28 -31 -28 -29 0 -22 -34 7 -38 32 -5 47 26 93 178 45 151 45 150 26 150
-8 0 -24 -33 -41 -87 l-28 -88 -26 87 c-20 69 -30 88 -44 88 -14 0 -17 -5 -12
-22z"/>
<path d="M18696 18008 c-9 -80 -24 -138 -36 -138 -6 0 -10 -22 -10 -50 0 -38
4 -50 15 -50 10 0 15 10 15 30 l0 30 75 0 75 0 0 -30 c0 -16 5 -30 10 -30 6 0
10 23 10 50 0 28 -4 50 -10 50 -6 0 -10 40 -10 100 l0 100 -64 0 -63 0 -7 -62z
m104 -53 l0 -85 -51 0 c-40 0 -50 3 -46 14 5 13 9 35 23 124 4 29 8 32 39 32
l35 0 0 -85z"/>
<path d="M18890 17949 c0 -109 2 -120 18 -117 10 2 35 36 59 83 l42 80 3 -80
c2 -63 6 -80 18 -80 12 0 16 21 18 118 3 112 2 117 -18 117 -15 0 -31 -21 -64
-87 l-45 -88 0 88 c-1 70 -4 87 -16 87 -13 0 -15 -20 -15 -121z"/>
<path d="M19080 18055 c0 -10 10 -15 30 -15 l29 0 3 -102 c2 -84 6 -103 18
-103 12 0 16 19 18 103 l3 102 29 0 c20 0 30 5 30 15 0 12 -16 15 -80 15 -64
0 -80 -3 -80 -15z"/>
<path d="M19682 17953 c4 -148 15 -152 78 -33 l45 85 3 -87 c2 -69 6 -88 17
-88 12 0 15 21 15 120 0 108 -2 120 -18 120 -12 0 -31 -26 -59 -82 l-42 -83 0
83 c-1 76 -3 82 -21 82 -20 0 -21 -5 -18 -117z"/>
<path d="M19907 18058 c-9 -7 -20 -27 -23 -45 -5 -25 -1 -37 18 -56 l25 -25
-28 -45 c-15 -25 -25 -48 -22 -51 15 -15 34 -3 53 34 19 37 45 60 69 60 6 0
11 -21 11 -50 0 -38 4 -50 15 -50 13 0 15 20 15 120 l0 120 -58 0 c-32 0 -66
-6 -75 -12z m103 -58 c0 -39 -1 -40 -33 -40 -38 0 -57 15 -57 46 0 25 12 32
58 33 31 1 32 0 32 -39z"/>
<path d="M29621 18055 c0 -11 3 -26 8 -34 7 -11 10 -9 16 8 4 13 4 25 1 28 -3
4 -6 0 -7 -8 0 -8 -4 -6 -9 6 l-9 20 0 -20z"/>
<path d="M10660 17940 c0 -100 3 -120 15 -120 12 0 15 13 15 55 l0 55 44 0 45
0 3 -52 c2 -39 7 -53 18 -53 12 0 16 21 18 118 3 112 2 117 -18 117 -17 0 -20
-6 -20 -51 l0 -50 -42 3 -43 3 -3 48 c-2 33 -7 47 -18 47 -11 0 -14 -22 -14
-120z"/>
<path d="M11800 17940 c0 -100 3 -120 15 -120 12 0 15 13 15 55 l0 55 45 0 45
0 0 -55 c0 -42 3 -55 15 -55 13 0 15 20 15 120 0 100 -2 120 -15 120 -11 0
-15 -12 -15 -50 l0 -50 -45 0 -45 0 0 50 c0 38 -4 50 -15 50 -12 0 -15 -20
-15 -120z"/>
<path d="M12002 17943 l3 -118 72 -3 72 -3 3 -41 c2 -23 9 -43 16 -46 9 -3 12
14 12 62 0 37 -4 66 -10 66 -6 0 -10 40 -10 100 0 93 -1 100 -20 100 -19 0
-20 -7 -20 -100 l0 -100 -40 0 -40 0 0 100 c0 94 -1 100 -20 100 -20 0 -21 -5
-18 -117z"/>
<path d="M12730 17964 c0 -88 -2 -96 -20 -101 -24 -6 -23 -36 1 -41 36 -7 49
25 49 119 l0 90 43 -3 42 -3 3 -102 c2 -83 6 -103 17 -103 12 0 15 21 15 120
l0 120 -75 0 -75 0 0 -96z"/>
<path d="M12200 17940 c0 -17 7 -20 50 -20 43 0 50 3 50 20 0 17 -7 20 -50 20
-43 0 -50 -3 -50 -20z"/>
<path d="M27920 17896 c0 -19 5 -38 10 -41 6 -4 10 8 10 29 0 20 5 36 10 36 6
0 10 -13 10 -29 0 -17 5 -33 10 -36 6 -4 10 10 10 34 0 39 -2 41 -30 41 -28 0
-30 -3 -30 -34z"/>
<path d="M27997 17924 c-13 -13 -7 -65 8 -70 23 -9 46 16 43 45 -3 26 -35 41
-51 25z m38 -34 c0 -27 -22 -39 -31 -16 -8 22 3 49 19 43 6 -2 12 -14 12 -27z"/>
<path d="M28095 17920 c-5 -9 -1 -10 13 -6 11 4 23 2 27 -4 3 -5 0 -10 -7 -10
-10 0 -10 -2 -1 -8 8 -5 9 -12 2 -22 -8 -11 -12 -12 -16 -2 -2 6 -10 12 -16
12 -6 0 -4 -7 5 -17 14 -14 20 -14 33 -3 23 19 16 64 -12 68 -11 2 -24 -2 -28
-8z"/>
<path d="M28160 17888 c1 -38 2 -41 14 -25 13 16 14 16 20 1 4 -9 9 -15 12
-12 7 7 -28 78 -38 78 -4 0 -8 -19 -8 -42z"/>
<path d="M28190 17919 c0 -5 5 -7 10 -4 6 3 10 8 10 11 0 2 -4 4 -10 4 -5 0
-10 -5 -10 -11z"/>
<path d="M28215 17910 c-8 -24 11 -60 31 -60 19 0 34 40 22 63 -12 23 -45 22
-53 -3z m43 -15 c-2 -14 -7 -26 -13 -26 -5 0 -11 12 -13 26 -2 18 1 25 13 25
12 0 15 -7 13 -25z"/>
<path d="M28293 17890 c0 -25 2 -35 4 -22 2 12 11 22 18 22 7 0 16 -10 18 -22
2 -13 4 -3 4 22 1 25 -1 37 -4 28 -2 -10 -11 -18 -18 -18 -7 0 -16 8 -18 18
-3 9 -5 -3 -4 -28z"/>
<path d="M28355 17910 c-8 -24 11 -60 31 -60 19 0 34 40 22 63 -12 23 -45 22
-53 -3z m43 -15 c-2 -14 -7 -26 -13 -26 -5 0 -11 12 -13 26 -2 18 1 25 13 25
12 0 15 -7 13 -25z"/>
<path d="M28431 17888 c1 -40 2 -41 9 -13 6 23 8 25 9 8 1 -19 21 -45 21 -27
0 17 -25 74 -32 74 -4 0 -7 -19 -7 -42z"/>
<path d="M28475 17910 c-5 -17 9 -60 20 -60 3 0 5 18 5 40 0 42 -14 54 -25 20z"/>
<path d="M28510 17896 c0 -36 14 -56 23 -33 7 18 -3 67 -14 67 -5 0 -9 -15 -9
-34z"/>
<path d="M28546 17914 c-8 -22 -8 -26 3 -19 5 3 12 -7 14 -22 3 -20 4 -16 6
15 1 42 -11 56 -23 26z"/>
<path d="M28581 17912 c-1 -16 6 -26 18 -29 11 -3 22 -12 24 -22 3 -9 5 4 4
29 0 25 -2 35 -4 23 -2 -13 -9 -23 -14 -23 -5 0 -14 10 -19 23 l-9 22 0 -23z"/>
<path d="M28644 17905 c-4 -18 -2 -32 9 -42 17 -17 47 -11 47 9 0 9 -3 9 -12
0 -16 -16 -28 -15 -28 3 0 9 9 15 21 15 28 0 21 34 -8 38 -17 3 -24 -3 -29
-23z m41 5 c3 -5 -1 -10 -9 -10 -9 0 -16 5 -16 10 0 6 4 10 9 10 6 0 13 -4 16
-10z"/>
<path d="M28717 17923 c-10 -9 -8 -46 3 -63 8 -12 13 -13 30 -2 16 10 20 10
20 0 1 -8 6 -6 14 5 10 12 15 14 18 6 6 -17 35 -20 41 -5 10 25 -5 66 -24 66
-11 0 -19 -5 -19 -11 0 -5 5 -7 10 -4 6 4 10 -6 9 -22 l0 -28 -16 33 c-19 37
-33 42 -33 11 0 -27 -28 -55 -42 -41 -15 15 -5 47 15 46 9 -1 17 2 17 7 0 10
-34 12 -43 2z"/>
<path d="M28856 17914 c-8 -22 -8 -26 3 -19 5 3 12 -7 14 -22 3 -20 4 -16 6
15 1 42 -11 56 -23 26z"/>
<path d="M28890 17890 c0 -22 2 -40 5 -40 11 0 25 43 20 60 -11 34 -25 22 -25
-20z"/>
<path d="M28946 17922 c-2 -4 -1 -23 4 -42 l8 -35 1 43 c1 41 -3 50 -13 34z"/>
<path d="M28927 17884 c-4 -4 -7 -14 -7 -23 0 -11 3 -12 11 -4 6 6 10 16 7 23
-2 6 -7 8 -11 4z"/>
<path d="M29522 17878 c-18 -18 -14 -63 7 -82 18 -17 20 -17 41 4 16 16 20 28
15 48 -10 40 -39 54 -63 30z m43 -43 c0 -20 -6 -31 -17 -33 -15 -3 -18 4 -18
33 0 29 3 36 18 33 11 -2 17 -13 17 -33z"/>
<path d="M29600 17880 c0 -5 5 -10 10 -10 6 0 10 -18 10 -40 0 -22 5 -40 10
-40 6 0 10 18 10 40 0 22 5 40 10 40 6 0 10 5 10 10 0 6 -13 10 -30 10 -16 0
-30 -4 -30 -10z"/>
<path d="M29687 17883 c-4 -3 -7 -21 -7 -39 0 -18 -4 -36 -10 -39 -5 -3 -10
-15 -10 -26 0 -10 5 -19 10 -19 6 0 10 7 10 15 0 19 56 21 63 3 2 -7 3 0 1 16
-2 16 -4 44 -4 62 0 29 -3 34 -23 34 -13 0 -27 -3 -30 -7z m33 -48 c0 -28 -4
-35 -19 -35 -19 0 -20 11 -5 58 8 26 24 10 24 -23z"/>
<path d="M29772 17878 c-19 -19 -15 -76 6 -87 19 -10 52 2 52 20 0 5 -9 4 -20
-3 -17 -11 -22 -10 -30 2 -8 12 -3 16 20 18 21 2 30 9 30 21 0 19 -18 41 -35
41 -6 0 -16 -5 -23 -12z m43 -18 c4 -6 -5 -10 -20 -10 -15 0 -24 4 -20 10 3 6
12 10 20 10 8 0 17 -4 20 -10z"/>
<path d="M29856 17878 c-11 -32 -11 -88 -2 -85 6 2 12 20 14 40 5 53 32 50 32
-3 0 -22 5 -40 11 -40 6 0 9 19 7 48 -3 43 -5 47 -31 50 -16 2 -29 -2 -31 -10z"/>
<path d="M28172 17703 c3 -33 6 -38 28 -38 22 0 25 4 25 35 0 31 -3 35 -28 38
-27 3 -28 2 -25 -35z m38 17 c0 -5 -4 -10 -10 -10 -5 0 -10 5 -10 10 0 6 5 10
10 10 6 0 10 -4 10 -10z m2 -35 c0 -5 -5 -11 -11 -13 -6 -2 -11 4 -11 13 0 9
5 15 11 13 6 -2 11 -8 11 -13z"/>
<path d="M28247 17734 c-13 -13 -7 -65 8 -70 23 -9 46 16 43 45 -3 26 -35 41
-51 25z m38 -34 c0 -27 -22 -39 -31 -16 -8 22 3 49 19 43 6 -2 12 -14 12 -27z"/>
<path d="M28310 17699 c0 -24 4 -38 10 -34 6 3 10 19 10 36 0 16 5 29 10 29 6
0 10 -16 10 -36 0 -21 4 -33 10 -29 6 3 10 22 10 41 0 31 -2 34 -30 34 -28 0
-30 -2 -30 -41z"/>
<path d="M28381 17683 c1 -32 3 -50 6 -40 2 9 11 17 18 17 20 0 37 37 30 60
-4 13 -15 20 -31 20 -23 0 -24 -3 -23 -57z m39 23 c0 -14 -5 -28 -10 -31 -13
-8 -24 20 -16 40 9 24 26 17 26 -9z"/>
<path d="M28457 17733 c-4 -3 -7 -19 -7 -35 0 -36 27 -49 46 -23 14 18 14 18
28 -1 13 -16 18 -17 35 -6 12 7 21 8 21 2 0 -5 11 -9 25 -8 22 2 25 7 25 40 0
34 -3 38 -25 38 -14 0 -25 -4 -25 -9 0 -5 9 -7 20 -4 11 3 20 0 20 -6 0 -6 -5
-11 -11 -11 -6 0 -23 -9 -39 -20 -31 -22 -40 -18 -40 18 0 19 4 23 20 19 11
-3 18 -1 14 4 -10 16 -44 10 -44 -8 -1 -17 -1 -17 -14 0 -13 17 -37 22 -49 10z
m31 -28 c-2 -14 -7 -26 -13 -26 -5 0 -11 12 -13 26 -2 18 1 25 13 25 12 0 15
-7 13 -25z m130 -17 c-6 -18 -28 -21 -28 -4 0 9 7 16 16 16 9 0 14 -5 12 -12z"/>
<path d="M28640 17706 c0 -19 4 -37 9 -40 10 -6 24 52 15 65 -12 20 -24 7 -24
-25z"/>
<path d="M28696 17731 c-9 -13 5 -71 15 -65 12 7 11 74 0 74 -6 0 -12 -4 -15
-9z"/>
<path d="M28670 17686 c0 -9 5 -16 10 -16 6 0 10 4 10 9 0 6 -4 13 -10 16 -5
3 -10 -1 -10 -9z"/>
<path d="M5210 17632 c-16 -16 -32 -45 -35 -65 -5 -27 -12 -37 -26 -37 -17 0
-19 8 -19 60 0 47 -3 60 -15 60 -13 0 -15 -22 -15 -135 0 -113 2 -135 15 -135
12 0 15 13 15 60 0 53 2 60 19 60 13 0 21 -9 26 -30 11 -49 51 -90 89 -90 64
0 106 55 106 140 0 118 -91 181 -160 112z m85 -8 c41 -16 57 -105 31 -168 -36
-87 -126 -41 -126 64 0 79 41 124 95 104z"/>
<path d="M6926 17635 c12 -29 40 -36 66 -16 28 23 19 38 -12 19 -18 -10 -24
-10 -27 0 -3 6 -11 12 -19 12 -8 0 -11 -6 -8 -15z"/>
<path d="M5410 17445 c0 -113 2 -135 15 -135 11 0 15 11 15 40 0 31 3 38 15
34 8 -4 27 -3 41 0 52 13 71 130 28 177 -19 21 -64 25 -82 7 -9 -9 -12 -9 -12
0 0 7 -4 12 -10 12 -6 0 -10 -52 -10 -135z m94 93 c31 -44 13 -132 -26 -126
-47 6 -62 113 -20 137 24 15 29 14 46 -11z"/>
<path d="M5580 17480 c0 -124 15 -132 63 -34 l32 66 5 -63 c3 -37 10 -64 18
-67 9 -3 12 21 12 97 0 125 -14 132 -64 34 l-35 -68 -1 68 c0 53 -3 67 -15 67
-12 0 -15 -18 -15 -100z"/>
<path d="M5777 17573 c-4 -3 -7 -25 -7 -47 0 -50 -17 -116 -30 -116 -6 0 -10
-18 -10 -40 0 -29 4 -40 15 -40 9 0 15 9 15 25 0 24 3 25 60 25 57 0 60 -1 60
-25 0 -16 6 -25 15 -25 11 0 15 11 15 40 0 22 -4 40 -10 40 -6 0 -10 35 -10
85 l0 85 -53 0 c-30 0 -57 -3 -60 -7z m83 -93 l0 -70 -41 0 c-38 0 -41 2 -36
23 3 12 9 43 12 70 7 44 9 47 36 47 l29 0 0 -70z"/>
<path d="M5930 17480 c0 -125 14 -131 67 -27 l38 72 3 -73 c2 -52 6 -72 15
-69 8 2 12 33 12 98 0 123 -15 129 -67 27 l-37 -73 0 73 c-1 57 -4 72 -16 72
-12 0 -15 -18 -15 -100z"/>
<path d="M6094 17565 c-10 -25 5 -81 26 -100 14 -12 28 -16 50 -12 29 6 30 6
30 -34 0 -28 4 -39 13 -36 8 2 12 31 12 97 0 66 -4 95 -12 98 -9 2 -13 -10
-13 -42 0 -41 -3 -46 -27 -52 -33 -9 -53 15 -53 63 0 34 -16 45 -26 18z"/>
<path d="M6281 17554 c-31 -39 -29 -117 4 -149 41 -42 115 -24 115 28 0 23
-17 21 -30 -3 -14 -26 -56 -26 -70 -1 -18 36 -12 41 50 41 56 0 60 2 60 23 0
12 -9 37 -20 55 -26 43 -78 46 -109 6z m89 -23 c15 -30 14 -31 -35 -31 -30 0
-45 4 -45 13 0 37 62 51 80 18z"/>
<path d="M6456 17561 c-39 -43 -27 -152 19 -173 13 -6 35 -8 50 -4 31 8 54 51
37 68 -8 8 -14 5 -21 -15 -8 -19 -18 -27 -35 -27 -30 0 -46 25 -46 70 0 17 5
40 10 51 13 23 58 26 66 4 6 -15 34 -21 34 -7 0 4 -7 18 -16 30 -19 28 -74 30
-98 3z"/>
<path d="M6594 17567 c-10 -28 1 -180 14 -185 8 -2 12 10 12 42 0 25 5 46 10
46 6 0 20 -20 32 -45 12 -25 28 -45 35 -45 7 0 13 2 13 5 0 11 -40 84 -49 90
-11 6 26 75 40 75 5 0 9 7 9 16 0 28 -34 10 -53 -29 -22 -48 -37 -47 -37 3 0
39 -15 54 -26 27z"/>
<path d="M6730 17480 c0 -124 15 -132 63 -34 l32 66 5 -63 c3 -37 10 -64 18
-67 9 -3 12 21 12 97 0 125 -14 132 -64 34 l-35 -68 -1 68 c0 53 -3 67 -15 67
-12 0 -15 -18 -15 -100z"/>
<path d="M6900 17480 c0 -125 14 -131 67 -27 l38 72 3 -73 c2 -52 6 -72 15
-69 8 2 12 33 12 98 0 123 -15 129 -67 27 l-37 -73 0 73 c-1 57 -4 72 -16 72
-12 0 -15 -18 -15 -100z"/>
<path d="M24696 17514 c-20 -20 -20 -48 0 -68 22 -22 40 -9 19 14 -9 10 -14
24 -10 29 12 21 31 11 40 -21 8 -25 16 -34 37 -36 32 -4 54 27 40 56 -5 9 -7
23 -5 30 7 19 -101 16 -121 -4z m108 -30 c7 -19 -1 -34 -19 -34 -12 0 -25 21
-25 41 0 16 38 10 44 -7z"/>
<path d="M24696 17404 c-21 -21 -20 -40 4 -64 31 -31 110 -22 124 16 8 20 -19
64 -39 64 -21 0 -19 -9 8 -31 22 -19 22 -19 3 -34 -25 -19 -56 -19 -81 -1 -19
14 -19 15 -2 33 29 33 14 48 -17 17z"/>
<path d="M24696 17294 c-21 -21 -20 -40 4 -64 31 -31 110 -22 124 16 8 20 -19
64 -39 64 -21 0 -19 -9 8 -31 22 -19 22 -19 3 -34 -25 -19 -56 -19 -81 -1 -19
14 -19 15 -2 33 29 33 14 48 -17 17z"/>
<path d="M31340 17094 c0 -152 1 -165 18 -162 15 3 17 19 20 146 l3 142 64 0
64 0 3 -142 c3 -127 5 -143 21 -146 16 -3 17 10 17 162 l0 166 -105 0 -105 0
0 -166z"/>
<path d="M5682 17200 c-30 -29 -31 -116 -1 -154 25 -31 66 -34 100 -7 20 16
24 28 24 79 0 45 -5 65 -19 81 -25 27 -75 28 -104 1z m88 -29 c5 -11 10 -34
10 -51 0 -43 -17 -70 -43 -70 -34 0 -47 19 -47 70 0 25 5 51 12 58 18 18 56
14 68 -7z"/>
<path d="M5830 17205 c0 -9 9 -15 25 -15 25 0 25 -1 25 -85 0 -69 3 -85 15
-85 12 0 15 16 15 85 0 84 0 85 25 85 16 0 25 6 25 15 0 12 -14 15 -65 15 -51
0 -65 -3 -65 -15z"/>
<path d="M6007 17213 c-4 -3 -7 -25 -7 -47 0 -50 -17 -116 -30 -116 -6 0 -10
-18 -10 -40 0 -29 4 -40 15 -40 9 0 15 9 15 25 0 24 3 25 60 25 57 0 60 -1 60
-25 0 -16 6 -25 15 -25 11 0 15 11 15 40 0 22 -4 40 -10 40 -6 0 -10 35 -10
85 l0 85 -53 0 c-30 0 -57 -3 -60 -7z m83 -93 l0 -70 -41 0 c-38 0 -41 2 -36
23 3 12 9 43 12 70 7 44 9 47 36 47 l29 0 0 -70z"/>
<path d="M6170 17188 c-43 -71 -9 -167 61 -168 28 0 69 33 69 55 0 21 -14 19
-35 -5 -10 -11 -26 -20 -36 -20 -17 0 -49 35 -49 52 0 5 27 8 60 8 59 0 60 0
60 29 0 44 -35 81 -76 81 -28 0 -38 -6 -54 -32z m95 -19 c9 -28 4 -31 -43 -27
-36 3 -39 5 -31 26 11 30 65 31 74 1z"/>
<path d="M6350 17140 c0 -62 -3 -82 -15 -86 -22 -9 -18 -34 5 -34 28 0 40 30
40 104 l0 66 35 0 35 0 0 -86 c0 -64 3 -85 13 -81 8 2 12 31 12 98 l0 94 -62
3 -63 3 0 -81z"/>
<path d="M24689 17169 c-13 -26 2 -69 26 -69 20 0 19 10 -2 25 -9 7 -14 19
-10 29 9 22 37 21 37 -2 0 -24 28 -62 45 -62 22 0 47 31 39 49 -4 9 -6 24 -6
34 1 14 -8 17 -58 17 -50 0 -61 -3 -71 -21z m111 -14 c10 -12 10 -18 0 -30
-16 -19 -40 -3 -40 26 0 23 23 25 40 4z"/>
<path d="M31621 17144 c-60 -77 -22 -214 60 -214 41 0 58 9 74 41 21 39 0 49
-31 15 -14 -14 -31 -26 -39 -26 -22 0 -55 37 -55 60 0 18 7 20 70 20 68 0 70
1 70 24 0 64 -36 106 -90 106 -30 0 -43 -6 -59 -26z m96 -16 c6 -7 13 -23 16
-35 5 -22 2 -23 -49 -23 -59 0 -66 9 -38 48 17 24 56 29 71 10z"/>
<path d="M31810 17004 c0 -152 1 -165 18 -162 13 2 18 15 20 55 3 48 5 51 21
41 25 -15 68 -2 86 26 34 52 31 145 -6 184 -22 24 -77 30 -97 10 -9 -9 -12 -9
-12 0 0 7 -7 12 -15 12 -13 0 -15 -25 -15 -166z m120 117 c5 -11 10 -44 10
-74 0 -60 -23 -94 -58 -83 -39 13 -53 81 -28 141 12 27 21 35 40 35 15 0 30
-8 36 -19z"/>
<path d="M32054 17163 c-29 -21 -44 -60 -44 -114 0 -73 33 -119 85 -119 35 0
85 33 85 55 0 26 -21 27 -41 1 -26 -33 -52 -33 -78 0 -36 45 -28 53 52 56 l72
3 -3 35 c-4 53 -32 85 -78 88 -21 1 -44 -1 -50 -5z m78 -40 c10 -9 18 -24 18
-35 0 -15 -8 -18 -55 -18 l-55 0 11 26 c5 15 12 31 15 35 9 15 46 10 66 -8z"/>
<path d="M32241 17114 l33 -57 -32 -58 c-37 -67 -38 -69 -14 -69 11 0 26 17
40 46 12 25 26 43 30 40 5 -3 17 -23 27 -46 12 -26 25 -40 37 -40 24 0 23 3
-14 71 -26 46 -30 63 -22 77 5 9 20 34 33 55 22 36 22 37 2 37 -13 0 -28 -14
-42 -40 l-23 -40 -21 38 c-12 23 -29 38 -43 40 -23 3 -22 2 9 -54z"/>
<path d="M32431 17144 c-62 -79 -23 -214 62 -214 48 0 79 36 85 99 9 95 -20
141 -87 141 -31 0 -44 -6 -60 -26z m93 -17 c12 -9 20 -31 23 -63 4 -40 1 -54
-17 -76 -26 -33 -43 -35 -70 -8 -15 15 -20 33 -20 72 0 75 38 109 84 75z"/>
<path d="M32647 17163 c-4 -3 -7 -31 -7 -62 0 -68 -16 -127 -36 -139 -11 -6
-14 -21 -12 -52 4 -54 28 -68 28 -16 l0 36 74 0 75 0 3 -32 c2 -18 8 -33 13
-33 14 0 19 85 6 98 -6 6 -11 53 -11 109 l0 98 -63 0 c-35 0 -67 -3 -70 -7z
m101 -115 l-3 -83 -49 -3 -49 -3 7 28 c3 15 9 54 13 86 l6 57 39 0 39 0 -3
-82z"/>
<path d="M24630 17072 c0 -13 32 -39 58 -46 33 -11 27 -24 -13 -28 -20 -2 -36
-7 -38 -13 -1 -6 35 -11 91 -13 77 -2 92 0 92 13 0 11 -11 15 -40 15 -51 0
-51 13 0 37 22 10 40 24 40 31 0 17 -9 15 -55 -11 -37 -21 -44 -22 -73 -10
-17 7 -32 18 -32 23 0 6 -7 10 -15 10 -8 0 -15 -4 -15 -8z"/>
<path d="M25639 16783 c-13 -16 -12 -17 4 -4 16 13 21 21 13 21 -2 0 -10 -8
-17 -17z"/>
<path d="M25599 16753 c-13 -16 -12 -17 4 -4 9 7 17 15 17 17 0 8 -8 3 -21
-13z"/>
<path d="M29999 16743 c-13 -16 -12 -17 4 -4 9 7 17 15 17 17 0 8 -8 3 -21
-13z"/>
<path d="M25559 16723 c-13 -16 -12 -17 4 -4 9 7 17 15 17 17 0 8 -8 3 -21
-13z"/>
<path d="M21499 16713 c-13 -16 -12 -17 4 -4 9 7 17 15 17 17 0 8 -8 3 -21
-13z"/>
<path d="M29959 16713 c-13 -16 -12 -17 4 -4 9 7 17 15 17 17 0 8 -8 3 -21
-13z"/>
<path d="M25475 16664 c-33 -25 -64 -50 -70 -56 -12 -14 69 43 110 77 50 41
24 27 -40 -21z"/>
<path d="M21459 16683 c-13 -16 -12 -17 4 -4 9 7 17 15 17 17 0 8 -8 3 -21
-13z"/>
<path d="M29919 16683 c-13 -16 -12 -17 4 -4 9 7 17 15 17 17 0 8 -8 3 -21
-13z"/>
<path d="M13839 16663 c-13 -16 -12 -17 4 -4 16 13 21 21 13 21 -2 0 -10 -8
-17 -17z"/>
<path d="M25070 16671 c0 -6 4 -13 10 -16 6 -3 7 1 4 9 -7 18 -14 21 -14 7z"/>
<path d="M21419 16653 c-13 -16 -12 -17 4 -4 16 13 21 21 13 21 -2 0 -10 -8
-17 -17z"/>
<path d="M29538 16655 c12 -23 107 -115 119 -115 4 0 -9 14 -29 30 -21 17 -51
47 -69 68 -17 20 -26 28 -21 17z"/>
<path d="M29879 16653 c-13 -16 -12 -17 4 -4 9 7 17 15 17 17 0 8 -8 3 -21
-13z"/>
<path d="M13799 16633 c-13 -16 -12 -17 4 -4 16 13 21 21 13 21 -2 0 -10 -8
-17 -17z"/>
<path d="M21379 16623 c-13 -16 -12 -17 4 -4 9 7 17 15 17 17 0 8 -8 3 -21
-13z"/>
<path d="M29839 16623 c-13 -16 -12 -17 4 -4 9 7 17 15 17 17 0 8 -8 3 -21
-13z"/>
<path d="M31814 16615 c-71 -49 -49 -215 30 -227 36 -6 76 13 92 43 14 27 13
29 -5 29 -11 0 -25 -9 -31 -20 -22 -41 -90 -12 -90 38 0 21 5 22 70 22 79 0
84 7 56 75 -22 53 -78 71 -122 40z m78 -32 c10 -9 18 -24 18 -35 0 -15 -8 -18
-50 -18 -55 0 -65 16 -33 52 20 22 41 23 65 1z"/>
<path d="M13759 16603 c-13 -16 -12 -17 4 -4 16 13 21 21 13 21 -2 0 -10 -8
-17 -17z"/>
<path d="M20950 16611 c0 -6 4 -13 10 -16 6 -3 7 1 4 9 -7 18 -14 21 -14 7z"/>
<path d="M31522 16508 c3 -97 5 -113 20 -116 15 -3 18 8 20 85 l3 88 23 -87
c15 -57 29 -88 38 -88 8 0 24 33 41 88 l28 87 3 -87 c2 -69 6 -88 17 -88 12 0
15 21 15 115 0 113 0 115 -23 115 -20 0 -26 -10 -46 -72 -12 -40 -25 -80 -28
-88 -5 -14 -16 17 -43 118 -10 38 -14 42 -41 42 l-30 0 3 -112z"/>
<path d="M31970 16606 c0 -7 9 -16 20 -19 11 -3 20 -14 20 -24 0 -10 5 -24 12
-31 8 -8 4 -26 -20 -71 -37 -67 -37 -71 -17 -71 8 0 26 22 40 49 35 71 45 72
45 7 0 -49 2 -56 20 -56 18 0 20 7 20 56 0 65 10 64 45 -7 14 -27 32 -49 40
-49 8 0 15 -12 17 -32 4 -46 28 -49 28 -4 l0 36 74 0 75 0 3 -32 c5 -55 28
-46 28 11 0 28 -4 51 -10 51 -6 0 -10 40 -10 100 l0 100 -70 0 -70 0 0 -57 c0
-73 -16 -130 -39 -143 -15 -8 -21 -3 -36 30 -10 22 -24 45 -32 51 -11 10 -11
14 1 28 7 9 17 26 20 39 4 12 14 22 22 22 8 0 14 7 14 15 0 18 -34 20 -47 3
-6 -7 -15 -26 -20 -42 -15 -48 -33 -44 -33 8 0 39 -3 46 -20 46 -17 0 -20 -7
-20 -46 0 -52 -18 -56 -33 -8 -5 16 -14 35 -20 42 -13 16 -47 15 -47 -2z m400
-101 l0 -85 -51 0 c-48 0 -51 1 -45 23 3 12 9 50 13 85 l6 62 38 0 39 0 0 -85z"/>
<path d="M32440 16613 c0 -4 16 -56 35 -114 29 -86 34 -111 26 -132 -7 -17
-18 -27 -31 -27 -24 0 -28 -35 -5 -43 32 -13 56 28 100 172 25 80 43 147 40
149 -15 15 -34 -16 -55 -89 l-24 -83 -26 85 c-18 58 -31 85 -43 87 -9 2 -17 0
-17 -5z"/>
<path d="M13370 16590 c6 -11 13 -20 16 -20 2 0 0 9 -6 20 -6 11 -13 20 -16
20 -2 0 0 -9 6 -20z"/>
<path d="M21339 16593 c-13 -16 -12 -17 4 -4 16 13 21 21 13 21 -2 0 -10 -8
-17 -17z"/>
<path d="M25140 16575 c19 -19 36 -35 39 -35 3 0 -10 16 -29 35 -19 19 -36 35
-39 35 -3 0 10 -16 29 -35z"/>
<path d="M29756 16565 c-33 -25 -56 -45 -52 -45 8 0 116 80 116 86 0 7 -4 4
-64 -41z"/>
<path d="M25369 16583 c-13 -16 -12 -17 4 -4 16 13 21 21 13 21 -2 0 -10 -8
-17 -17z"/>
<path d="M13719 16573 c-13 -16 -12 -17 4 -4 9 7 17 15 17 17 0 8 -8 3 -21
-13z"/>
<path d="M20970 16576 c0 -2 8 -10 18 -17 15 -13 16 -12 3 4 -13 16 -21 21
-21 13z"/>
<path d="M21275 16549 c-59 -45 -67 -57 -12 -18 42 29 65 50 55 49 -2 0 -21
-14 -43 -31z"/>
<path d="M25329 16553 c-13 -16 -12 -17 4 -4 9 7 17 15 17 17 0 8 -8 3 -21
-13z"/>
<path d="M13679 16543 c-13 -16 -12 -17 4 -4 9 7 17 15 17 17 0 8 -8 3 -21
-13z"/>
<path d="M13420 16526 c14 -15 39 -37 55 -49 36 -24 26 -14 -35 39 -30 25 -37
29 -20 10z"/>
<path d="M21020 16515 c13 -14 26 -25 28 -25 3 0 -5 11 -18 25 -13 14 -26 25
-28 25 -3 0 5 -11 18 -25z"/>
<path d="M25289 16523 c-13 -16 -12 -17 4 -4 9 7 17 15 17 17 0 8 -8 3 -21
-13z"/>
<path d="M13610 16494 c-25 -19 -54 -39 -65 -44 -11 -5 -14 -9 -7 -9 12 -1
122 76 122 85 0 7 -4 4 -50 -32z"/>
<path d="M5817 16489 c-17 -10 -47 -59 -47 -79 0 -5 14 -10 30 -10 23 0 30 5
30 19 0 21 22 33 45 25 9 -4 15 -19 15 -39 0 -25 -12 -48 -49 -92 -56 -67 -71
-94 -71 -123 0 -20 4 -21 88 -18 87 3 87 3 90 31 3 26 2 27 -47 27 -28 0 -51
3 -51 6 0 3 18 28 41 55 64 77 72 136 26 187 -22 24 -69 29 -100 11z"/>
<path d="M6016 16475 c-27 -29 -36 -64 -36 -144 0 -108 30 -161 90 -161 60 0
96 98 80 218 -13 99 -81 144 -134 87z m75 -52 c14 -36 8 -178 -8 -194 -9 -9
-16 -9 -28 1 -19 16 -22 189 -3 208 18 18 27 15 39 -15z"/>
<path d="M6237 16396 c-31 -57 -57 -115 -57 -129 0 -24 3 -26 53 -29 51 -3 52
-4 55 -35 3 -27 7 -33 28 -33 21 0 24 5 24 35 0 24 5 35 15 35 9 0 15 9 15 25
0 16 -6 25 -15 25 -12 0 -15 18 -15 105 0 102 -1 105 -23 105 -18 0 -33 -20
-80 -104z m49 -92 c-5 -12 -56 -21 -56 -10 0 2 12 25 28 52 l27 49 3 -39 c2
-21 1 -44 -2 -52z"/>
<path d="M21189 16483 c-13 -16 -12 -17 4 -4 16 13 21 21 13 21 -2 0 -10 -8
-17 -17z"/>
<path d="M21149 16453 c-13 -16 -12 -17 4 -4 16 13 21 21 13 21 -2 0 -10 -8
-17 -17z"/>
<path d="M7510 16106 c0 -2 8 -10 18 -17 15 -13 16 -12 3 4 -13 16 -21 21 -21
13z"/>
<path d="M31366 16059 c-21 -25 -26 -41 -26 -84 0 -69 15 -100 56 -120 58 -28
110 12 121 93 16 116 -85 190 -151 111z m94 -19 c28 -28 28 -119 0 -145 -55
-50 -118 53 -79 128 22 42 48 48 79 17z"/>
<path d="M31606 16081 c-3 -5 -15 -7 -26 -4 -19 5 -20 0 -20 -156 0 -136 2
-161 15 -161 12 0 15 13 15 57 0 44 3 54 12 45 28 -28 83 -12 105 31 30 60 11
174 -32 191 -24 9 -63 7 -69 -3z m68 -43 c33 -47 11 -158 -31 -158 -34 0 -53
31 -53 84 0 57 20 96 50 96 10 0 26 -10 34 -22z"/>
<path d="M32184 16076 c-47 -34 -52 -158 -8 -207 27 -30 87 -26 114 8 22 28
23 54 4 60 -7 2 -14 -8 -18 -21 -4 -17 -16 -28 -33 -32 -38 -10 -63 24 -63 85
0 81 48 118 87 66 13 -18 22 -22 33 -15 13 8 12 13 -6 37 -25 33 -77 42 -110
19z"/>
<path d="M32372 16083 c-7 -3 -19 -18 -27 -34 -14 -27 -14 -29 2 -29 10 0 24
9 31 20 23 38 89 16 80 -27 -2 -12 -17 -20 -48 -26 -57 -11 -80 -32 -80 -71 0
-39 9 -52 41 -64 18 -7 35 -6 59 5 23 9 36 10 38 3 2 -5 10 -10 18 -10 11 0
14 18 14 84 0 85 -11 134 -33 148 -13 9 -75 9 -95 1z m72 -184 c-20 -23 -57
-25 -74 -5 -18 22 2 48 47 61 36 10 38 10 41 -13 2 -13 -4 -32 -14 -43z"/>
<path d="M31182 15968 c3 -98 5 -113 21 -116 14 -3 17 5 17 53 0 66 10 65 45
-6 14 -27 32 -49 40 -49 8 0 15 2 15 5 0 12 -50 104 -60 110 -8 5 -7 12 3 23
8 10 18 27 21 40 4 12 14 22 22 22 8 0 14 7 14 15 0 18 -34 20 -47 3 -6 -7
-15 -26 -20 -42 -15 -48 -33 -44 -33 8 0 40 -3 46 -20 46 -20 0 -21 -5 -18
-112z"/>
<path d="M31762 15968 c3 -98 5 -113 21 -116 15 -3 17 7 17 97 l0 101 40 0 39
0 3 -97 c3 -84 6 -98 21 -101 15 -3 17 7 17 112 l0 116 -80 0 -81 0 3 -112z"/>
<path d="M31953 16067 c2 -6 19 -57 36 -111 37 -114 35 -156 -5 -156 -25 0
-32 -18 -12 -38 15 -15 44 1 61 36 13 24 87 262 87 276 0 3 -6 6 -14 6 -10 0
-24 -30 -42 -87 l-27 -88 -25 88 c-20 71 -28 87 -44 87 -12 0 -18 -5 -15 -13z"/>
<path d="M32542 15968 c3 -97 5 -113 20 -116 15 -3 18 8 20 85 l3 88 23 -87
c15 -57 29 -88 38 -88 8 0 24 33 41 88 l28 87 3 -87 c2 -69 6 -88 17 -88 12 0
15 21 15 115 0 113 0 115 -23 115 -20 0 -26 -10 -46 -72 -12 -40 -25 -80 -28
-88 -5 -14 -16 17 -43 118 -10 38 -14 42 -41 42 l-30 0 3 -112z"/>
<path d="M32800 15965 c0 -104 2 -115 18 -115 13 0 30 24 57 81 l40 81 5 -78
c4 -65 8 -79 23 -82 15 -3 17 7 17 112 0 109 -1 116 -20 116 -15 0 -31 -21
-62 -82 l-43 -83 -3 83 c-2 64 -6 82 -17 82 -12 0 -15 -21 -15 -115z"/>
<path d="M7540 16066 c0 -2 8 -10 18 -17 15 -13 16 -12 3 4 -13 16 -21 21 -21
13z"/>
<path d="M7570 16026 c0 -2 8 -10 18 -17 15 -13 16 -12 3 4 -13 16 -21 21 -21
13z"/>
<path d="M7600 15986 c0 -2 8 -10 18 -17 15 -13 16 -12 3 4 -13 16 -21 21 -21
13z"/>
<path d="M7630 15946 c0 -2 8 -10 18 -17 15 -13 16 -12 3 4 -13 16 -21 21 -21
13z"/>
<path d="M7660 15906 c0 -2 8 -10 18 -17 15 -13 16 -12 3 4 -13 16 -21 21 -21
13z"/>
<path d="M7690 15866 c0 -2 8 -10 18 -17 15 -13 16 -12 3 4 -13 16 -21 21 -21
13z"/>
<path d="M7720 15826 c0 -2 8 -10 18 -17 15 -13 16 -12 3 4 -13 16 -21 21 -21
13z"/>
<path d="M7750 15786 c0 -2 8 -10 18 -17 15 -13 16 -12 3 4 -13 16 -21 21 -21
13z"/>
<path d="M7786 15737 c3 -10 9 -15 12 -12 3 3 0 11 -7 18 -10 9 -11 8 -5 -6z"/>
<path d="M7710 15615 c-24 -25 -42 -45 -39 -45 3 0 25 20 49 45 24 25 42 45
39 45 -3 0 -25 -20 -49 -45z"/>
<path d="M31673 15470 c-46 -145 -49 -160 -32 -160 14 0 22 12 31 45 l12 46
60 -3 59 -3 15 -42 c10 -32 19 -43 34 -43 12 0 18 5 15 13 -2 6 -26 78 -53
160 -42 127 -51 147 -69 147 -19 0 -28 -21 -72 -160z m111 -7 c7 -22 4 -23
-38 -23 -25 0 -46 4 -46 8 0 4 10 37 22 72 l21 64 17 -49 c9 -28 20 -60 24
-72z"/>
<path d="M32310 15470 l0 -160 75 0 c67 0 79 3 100 25 32 31 35 103 5 130 -17
16 -18 20 -5 38 23 32 19 80 -8 105 -19 18 -35 22 -95 22 l-72 0 0 -160z m150
101 c16 -31 -3 -67 -40 -75 -67 -13 -70 -11 -70 44 l0 50 50 0 c39 0 52 -4 60
-19z m0 -131 c22 -22 23 -25 14 -57 -7 -24 -49 -43 -95 -43 -29 0 -29 1 -29
60 l0 60 45 0 c32 0 51 -6 65 -20z"/>
<path d="M5136 15551 c-75 -78 -41 -232 54 -247 86 -14 148 109 106 210 -29
71 -110 89 -160 37z m111 -23 c45 -48 37 -152 -13 -185 -20 -13 -29 -13 -53
-4 -36 15 -51 48 -51 112 0 40 5 55 25 74 30 31 65 32 92 3z"/>
<path d="M7620 15550 c-9 -6 -10 -10 -3 -10 6 0 15 5 18 10 8 12 4 12 -15 0z"/>
<path d="M32000 15425 c0 -104 2 -115 18 -115 12 0 31 26 59 83 l42 82 0 -82
c1 -76 3 -83 21 -83 19 0 20 7 20 115 0 108 -1 115 -20 115 -15 0 -31 -21 -62
-82 l-43 -83 -3 83 c-2 64 -6 82 -17 82 -12 0 -15 -21 -15 -115z"/>
<path d="M5691 15493 c-65 -53 -32 -193 44 -193 25 0 65 34 65 55 0 22 -23 18
-38 -5 -21 -35 -72 -19 -72 22 0 15 9 18 54 18 30 0 57 4 60 8 10 16 -15 81
-37 97 -28 20 -50 19 -76 -2z m67 -25 c7 -7 12 -20 12 -30 0 -14 -8 -18 -40
-18 -33 0 -40 3 -40 20 0 32 45 51 68 28z"/>
<path d="M6273 15500 c-21 -9 -40 -46 -29 -58 4 -3 16 5 27 17 26 28 63 25 67
-6 3 -17 -3 -24 -25 -28 -48 -11 -51 -13 -69 -40 -32 -49 22 -104 76 -75 16 9
25 9 36 -1 8 -6 16 -10 18 -8 6 6 -8 187 -15 193 -11 11 -65 15 -86 6z m67
-123 c0 -29 -18 -47 -46 -47 -25 0 -39 27 -23 46 9 11 20 15 62 23 4 0 7 -9 7
-22z"/>
<path d="M6638 15493 c-11 -11 -18 -13 -18 -5 0 7 -7 12 -15 12 -13 0 -15 -22
-15 -135 0 -113 2 -135 15 -135 11 0 15 12 15 47 0 37 3 44 12 35 18 -18 44
-14 74 11 22 19 26 31 27 75 1 83 -53 138 -95 95z m52 -29 c8 -8 13 -35 13
-59 0 -69 -36 -98 -67 -53 -29 42 -10 128 28 128 8 0 19 -7 26 -16z"/>
<path d="M6803 15500 c-31 -13 -43 -41 -43 -100 0 -41 5 -56 25 -75 29 -30 68
-32 95 -5 41 41 39 129 -5 168 -28 24 -38 26 -72 12z m61 -42 c32 -45 9 -128
-34 -128 -25 0 -40 29 -40 79 0 64 44 93 74 49z"/>
<path d="M5330 15485 c0 -9 9 -15 25 -15 25 0 25 -1 25 -86 0 -64 3 -85 13
-82 8 3 13 32 15 86 3 80 4 82 27 82 16 0 25 6 25 15 0 12 -14 15 -65 15 -51
0 -65 -3 -65 -15z"/>
<path d="M5500 15453 c0 -56 -17 -123 -30 -123 -6 0 -10 -18 -10 -40 0 -29 4
-40 15 -40 9 0 15 9 15 25 0 24 3 25 60 25 57 0 60 -1 60 -25 0 -16 6 -25 15
-25 11 0 15 11 15 40 0 22 -4 40 -10 40 -6 0 -10 35 -10 85 l0 85 -60 0 -60 0
0 -47z m90 -53 l0 -70 -40 0 c-22 0 -40 3 -40 7 0 3 5 35 11 70 11 60 12 63
40 63 l29 0 0 -70z"/>
<path d="M5850 15420 c0 -62 -3 -82 -15 -86 -17 -7 -21 -34 -4 -34 6 0 19 5
30 10 16 9 19 22 19 85 l0 75 35 0 35 0 0 -86 c0 -64 3 -85 13 -82 8 3 13 35
15 101 l3 97 -66 0 -65 0 0 -80z"/>
<path d="M6102 15403 c2 -66 7 -98 16 -101 8 -2 12 10 12 42 0 56 13 59 40 7
20 -39 37 -57 46 -48 7 6 -38 97 -48 97 -10 0 24 63 40 73 18 12 15 27 -7 27
-13 0 -24 -13 -35 -40 -9 -22 -20 -40 -26 -40 -5 0 -10 18 -10 40 0 29 -4 40
-15 40 -13 0 -15 -15 -13 -97z"/>
<path d="M6435 15448 c-8 -67 -24 -118 -36 -118 -5 0 -9 -18 -9 -40 0 -29 4
-40 15 -40 9 0 15 9 15 25 0 24 3 25 60 25 57 0 60 -1 60 -25 0 -16 6 -25 15
-25 11 0 15 11 15 40 0 22 -4 40 -10 40 -6 0 -10 35 -10 85 l0 85 -54 0 -54 0
-7 -52z m85 -48 l0 -70 -41 0 c-38 0 -41 2 -35 23 4 12 9 43 13 70 5 44 8 47
34 47 l29 0 0 -70z"/>
<path d="M6940 15399 l0 -102 50 5 c27 3 56 11 65 18 17 14 20 61 4 77 -8 8
-8 17 1 33 9 17 8 26 -5 46 -13 20 -24 24 -65 24 l-50 0 0 -101z m95 61 c10
-16 -15 -40 -41 -40 -19 0 -24 5 -24 25 0 21 5 25 29 25 17 0 33 -5 36 -10z
m3 -94 c5 -22 -13 -36 -45 -36 -19 0 -23 5 -23 31 0 28 2 30 32 27 23 -2 34
-9 36 -22z"/>
<path d="M20569 15213 c-13 -16 -12 -17 4 -4 9 7 17 15 17 17 0 8 -8 3 -21
-13z"/>
<path d="M20529 15183 c-13 -16 -12 -17 4 -4 16 13 21 21 13 21 -2 0 -10 -8
-17 -17z"/>
<path d="M20710 15155 c19 -19 36 -35 39 -35 3 0 -10 16 -29 35 -19 19 -36 35
-39 35 -3 0 10 -16 29 -35z"/>
<path d="M20489 15153 c-13 -16 -12 -17 4 -4 9 7 17 15 17 17 0 8 -8 3 -21
-13z"/>
<path d="M20449 15123 c-13 -16 -12 -17 4 -4 9 7 17 15 17 17 0 8 -8 3 -21
-13z"/>
<path d="M20385 15079 c-59 -45 -67 -57 -12 -18 42 29 65 50 55 49 -2 0 -21
-14 -43 -31z"/>
<path d="M20776 15067 c3 -10 9 -15 12 -12 3 3 0 11 -7 18 -10 9 -11 8 -5 -6z"/>
<path d="M20299 15013 c-13 -16 -12 -17 4 -4 16 13 21 21 13 21 -2 0 -10 -8
-17 -17z"/>
<path d="M20259 14983 c-13 -16 -12 -17 4 -4 9 7 17 15 17 17 0 8 -8 3 -21
-13z"/>
<path d="M20219 14953 c-13 -16 -12 -17 4 -4 9 7 17 15 17 17 0 8 -8 3 -21
-13z"/>
<path d="M31170 14409 c-58 -44 -109 -85 -115 -92 -13 -15 -4 -8 120 85 55 41
107 77 115 81 13 5 13 5 0 6 -8 0 -62 -36 -120 -80z"/>
<path d="M31335 14463 c6 -5 33 -30 60 -54 37 -32 42 -35 20 -10 -16 18 -43
42 -60 54 -16 11 -25 16 -20 10z"/>
<path d="M5751 14366 c-28 -30 -25 -70 6 -74 16 -2 22 3 25 20 4 27 39 36 57
14 17 -20 5 -58 -34 -103 -50 -59 -85 -114 -85 -134 0 -17 9 -19 91 -19 l90 0
-3 28 c-3 24 -8 27 -51 32 l-47 5 45 55 c61 74 70 134 27 183 -24 27 -93 23
-121 -7z"/>
<path d="M5960 14360 c-46 -64 -35 -239 17 -280 35 -27 59 -25 93 8 35 36 48
118 32 205 -14 75 -33 97 -83 97 -30 0 -42 -6 -59 -30z m84 -36 c3 -9 6 -51 6
-94 0 -91 -5 -110 -30 -110 -25 0 -30 19 -30 110 0 91 5 110 30 110 10 0 21
-7 24 -16z"/>
<path d="M6177 14378 c-9 -7 -21 -25 -26 -40 -8 -21 -7 -28 5 -32 25 -10 32
-7 39 15 10 32 49 21 53 -14 3 -22 -1 -30 -16 -34 -26 -6 -36 -53 -12 -53 26
0 42 -25 38 -62 -2 -27 -8 -34 -30 -36 -19 -2 -28 2 -33 17 -9 29 -55 29 -55
0 0 -29 53 -79 83 -79 34 0 84 44 92 81 8 35 -9 85 -32 93 -14 6 -14 8 0 24
27 29 29 64 7 100 -17 27 -26 32 -58 32 -21 0 -46 -6 -55 -12z"/>
<path d="M31450 14340 c6 -11 13 -20 16 -20 2 0 0 9 -6 20 -6 11 -13 20 -16
20 -2 0 0 -9 6 -20z"/>
<path d="M7490 14306 c0 -2 8 -10 18 -17 15 -13 16 -12 3 4 -13 16 -21 21 -21
13z"/>
<path d="M31019 14293 c-13 -16 -12 -17 4 -4 16 13 21 21 13 21 -2 0 -10 -8
-17 -17z"/>
<path d="M30979 14263 c-13 -16 -12 -17 4 -4 9 7 17 15 17 17 0 8 -8 3 -21
-13z"/>
<path d="M7549 14230 c17 -25 43 -58 57 -75 20 -23 18 -20 -5 15 -17 25 -43
59 -57 75 -20 23 -18 20 5 -15z"/>
<path d="M30939 14233 c-13 -16 -12 -17 4 -4 9 7 17 15 17 17 0 8 -8 3 -21
-13z"/>
<path d="M30899 14203 c-13 -16 -12 -17 4 -4 9 7 17 15 17 17 0 8 -8 3 -21
-13z"/>
<path d="M7630 14116 c0 -2 8 -10 18 -17 15 -13 16 -12 3 4 -13 16 -21 21 -21
13z"/>
<path d="M7660 14076 c0 -2 8 -10 18 -17 15 -13 16 -12 3 4 -13 16 -21 21 -21
13z"/>
<path d="M7690 14036 c0 -2 8 -10 18 -17 15 -13 16 -12 3 4 -13 16 -21 21 -21
13z"/>
<path d="M7720 13996 c0 -2 8 -10 18 -17 15 -13 16 -12 3 4 -13 16 -21 21 -21
13z"/>
<path d="M7750 13956 c0 -2 8 -10 18 -17 15 -13 16 -12 3 4 -13 16 -21 21 -21
13z"/>
<path d="M18220 13922 c-35 -35 -39 -67 -9 -75 15 -4 23 1 31 19 13 27 55 33
64 9 10 -26 -4 -58 -51 -115 -42 -50 -75 -108 -75 -131 0 -5 41 -9 90 -9 l90
0 0 29 c0 29 -2 30 -49 33 l-50 3 44 53 c79 95 71 194 -17 208 -32 6 -41 2
-68 -24z"/>
<path d="M18447 13939 c-34 -20 -50 -70 -50 -155 0 -60 5 -91 19 -120 35 -70
108 -64 140 11 16 39 19 144 4 194 -19 66 -68 96 -113 70z m61 -157 c2 -88 0
-103 -14 -109 -29 -11 -44 24 -44 101 0 95 7 118 34 114 20 -3 21 -10 24 -106z"/>
<path d="M18662 13902 c-29 -32 -42 -54 -40 -71 l3 -23 28 22 27 21 0 -115 0
-116 30 0 30 0 -2 162 c-3 189 -8 196 -76 120z"/>
<path d="M7786 13907 c3 -10 9 -15 12 -12 3 3 0 11 -7 18 -10 9 -11 8 -5 -6z"/>
<path d="M5350 13835 c0 -11 11 -15 40 -15 l40 0 0 -120 c0 -100 3 -120 15
-120 13 0 15 20 15 120 l0 120 35 0 c24 0 35 5 35 15 0 12 -17 15 -90 15 -73
0 -90 -3 -90 -15z"/>
<path d="M6470 13715 c0 -113 2 -135 15 -135 12 0 15 19 16 108 l1 107 30
-107 c19 -68 35 -108 44 -108 8 0 22 29 34 73 38 129 38 129 39 25 1 -80 4
-98 16 -98 13 0 15 22 15 135 0 127 -1 135 -19 135 -20 0 -30 -25 -62 -153 -6
-26 -15 -49 -19 -52 -4 -2 -20 43 -35 100 -25 96 -30 105 -51 105 l-24 0 0
-135z"/>
<path d="M20020 13755 c0 -117 18 -127 22 -12 l3 82 38 3 37 3 0 -85 c0 -70 3
-86 15 -86 12 0 15 17 15 95 l0 95 -65 0 -65 0 0 -95z"/>
<path d="M20440 13834 c0 -8 5 -12 10 -9 6 3 10 10 10 16 0 5 -4 9 -10 9 -5 0
-10 -7 -10 -16z"/>
<path d="M20480 13834 c0 -8 5 -12 10 -9 6 3 10 10 10 16 0 5 -4 9 -10 9 -5 0
-10 -7 -10 -16z"/>
<path d="M7710 13785 c-24 -25 -42 -45 -39 -45 3 0 25 20 49 45 24 25 42 45
39 45 -3 0 -25 -20 -49 -45z"/>
<path d="M31189 13817 c-20 -15 -39 -51 -39 -71 0 -27 45 -20 58 9 16 34 50
33 58 -1 8 -32 -3 -56 -58 -124 -44 -53 -72 -112 -61 -124 4 -3 44 -6 90 -6
l83 0 0 30 c0 29 -2 30 -45 30 -25 0 -45 4 -45 10 0 5 13 24 28 42 52 60 62
81 62 128 0 36 -5 52 -23 68 -26 25 -82 29 -108 9z"/>
<path d="M31398 13813 c-28 -30 -38 -71 -38 -151 0 -53 5 -88 18 -112 33 -67
109 -64 138 7 24 56 16 202 -12 240 -26 35 -82 43 -106 16z m75 -78 c11 -50 3
-151 -14 -171 -11 -13 -14 -13 -28 1 -12 12 -16 36 -16 98 0 45 3 90 7 100 13
31 41 16 51 -28z"/>
<path d="M31591 13806 c-47 -50 -35 -153 21 -182 26 -14 32 -14 53 0 23 15 23
15 15 -21 -12 -51 -47 -71 -57 -33 -6 22 -20 25 -43 10 -13 -8 -13 -13 0 -37
34 -61 108 -52 142 17 36 71 15 235 -33 260 -31 17 -74 11 -98 -14z m77 -38
c16 -16 15 -83 -2 -97 -21 -18 -45 -2 -52 34 -10 55 23 94 54 63z"/>
<path d="M31895 13683 c-25 -81 -49 -156 -52 -166 -4 -14 0 -18 14 -15 12 2
23 19 32 51 l15 47 57 0 57 0 17 -50 c13 -38 22 -50 36 -50 15 0 19 5 15 18
-75 234 -104 307 -124 310 -18 3 -25 -12 -67 -145z m88 34 c24 -75 23 -77 -24
-77 -35 0 -41 3 -36 18 3 9 11 38 18 65 7 26 16 47 19 47 4 0 14 -24 23 -53z"/>
<path d="M19849 13803 c-13 -16 -12 -17 4 -4 16 13 21 21 13 21 -2 0 -10 -8
-17 -17z"/>
<path d="M20180 13703 c0 -56 4 -93 10 -93 6 0 10 13 10 29 0 24 3 28 23 24
31 -6 50 19 50 67 0 52 -17 70 -59 67 l-34 -2 0 -92z m65 27 c0 -38 -3 -45
-20 -45 -15 0 -21 8 -23 33 -4 45 4 64 25 60 14 -3 18 -13 18 -48z"/>
<path d="M20300 13730 c0 -39 4 -70 10 -70 5 0 21 21 34 48 l25 47 1 -47 c0
-27 5 -48 10 -48 6 0 10 30 10 70 0 39 -4 70 -10 70 -5 0 -21 -21 -34 -47
l-25 -48 -1 48 c0 26 -4 47 -10 47 -6 0 -10 -30 -10 -70z"/>
<path d="M20429 13784 c-7 -9 -14 -33 -14 -54 0 -47 19 -70 56 -70 29 0 58 33
40 44 -5 3 -12 -1 -15 -10 -8 -21 -50 -14 -54 9 -3 14 4 17 37 17 33 0 41 4
41 18 0 50 -62 81 -91 46z m60 -17 c6 -8 8 -17 4 -20 -12 -12 -53 -7 -53 6 0
28 30 37 49 14z"/>
<path d="M20547 13793 c-11 -10 -8 -133 3 -133 6 0 11 24 11 53 l1 52 16 -53
c17 -59 30 -62 48 -11 l12 34 1 -37 c1 -27 5 -38 16 -38 13 0 15 12 13 68 -4
83 -23 90 -48 17 l-17 -50 -12 53 c-12 47 -27 63 -44 45z"/>
<path d="M20690 13730 c0 -40 4 -70 10 -70 6 0 10 14 10 30 0 25 4 30 25 30
21 0 25 -5 25 -30 0 -16 5 -30 10 -30 6 0 10 30 10 71 0 44 -4 68 -10 64 -5
-3 -10 -17 -10 -31 0 -19 -5 -24 -25 -24 -21 0 -25 5 -25 30 0 17 -4 30 -10
30 -6 0 -10 -30 -10 -70z"/>
<path d="M20820 13785 c-7 -8 -10 -19 -6 -22 4 -4 11 -1 15 6 11 17 46 10 46
-9 0 -9 -11 -16 -28 -18 -18 -2 -32 -12 -39 -27 -16 -36 4 -55 53 -52 l40 2
-3 65 c-3 65 -3 65 -34 68 -19 2 -36 -3 -44 -13z m56 -91 c-7 -19 -51 -15 -51
6 0 15 48 32 53 18 2 -5 1 -16 -2 -24z"/>
<path d="M20944 13792 c-19 -13 -23 -40 -9 -58 11 -16 11 -23 -1 -46 -12 -23
-12 -28 -1 -28 8 0 19 11 25 25 6 14 18 25 27 25 9 0 15 -9 15 -25 0 -14 5
-25 10 -25 6 0 10 30 10 70 l0 70 -32 0 c-18 0 -38 -4 -44 -8z m56 -37 c0 -18
-5 -25 -19 -25 -11 0 -23 5 -26 10 -11 18 3 40 25 40 15 0 20 -7 20 -25z"/>
<path d="M5550 13765 c0 -9 12 -55 26 -102 22 -68 25 -89 16 -109 -7 -13 -18
-24 -26 -24 -10 0 -13 -6 -10 -15 9 -22 31 -18 49 9 19 29 85 238 78 249 -9
16 -23 -6 -45 -74 l-22 -70 -21 72 c-19 67 -45 104 -45 64z"/>
<path d="M5727 13762 c-10 -10 -17 -24 -17 -30 0 -18 27 -14 34 4 9 24 60 14
64 -13 3 -18 -3 -22 -38 -28 -71 -12 -94 -86 -35 -113 21 -10 32 -9 55 3 17 9
30 11 30 5 0 -5 6 -10 14 -10 11 0 13 17 9 88 -3 48 -10 93 -16 100 -15 19
-81 15 -100 -6z m83 -117 c0 -32 -41 -55 -65 -35 -22 18 -19 39 8 50 41 16 57
12 57 -15z"/>
<path d="M5900 13695 c0 -69 -3 -85 -15 -85 -8 0 -15 -7 -15 -15 0 -18 31 -20
48 -3 7 7 12 42 12 85 l0 73 35 0 35 0 0 -85 c0 -70 3 -85 15 -85 13 0 15 15
13 98 l-3 97 -62 3 -63 3 0 -86z"/>
<path d="M6081 13754 c-30 -38 -29 -114 2 -150 27 -31 68 -35 97 -9 24 21 26
45 5 45 -8 0 -15 -4 -15 -10 0 -5 -9 -14 -20 -20 -15 -8 -24 -6 -40 10 -37 37
-26 50 40 50 56 0 60 2 60 23 0 12 -9 37 -20 55 -26 43 -78 46 -109 6z m90
-31 c8 -22 6 -23 -36 -23 -30 0 -45 4 -45 13 0 41 67 48 81 10z"/>
<path d="M6230 13765 c0 -9 9 -15 25 -15 25 0 25 -1 25 -85 0 -69 3 -85 15
-85 12 0 15 16 15 85 0 84 0 85 25 85 16 0 25 6 25 15 0 12 -14 15 -65 15 -51
0 -65 -3 -65 -15z"/>
<path d="M19823 13768 c-43 -57 -66 -91 -58 -86 12 7 78 98 72 98 -3 0 -9 -6
-14 -12z"/>
<path d="M16009 13697 c-3 -41 -1 -57 9 -57 13 0 14 36 3 85 -6 25 -8 21 -12
-28z"/>
<path d="M32172 13741 c-7 -4 -24 -6 -38 -3 l-25 4 3 -163 c3 -138 5 -164 18
-164 11 0 16 15 20 55 3 33 8 50 13 43 13 -21 54 -15 84 11 26 23 28 29 28
101 0 72 -2 78 -28 101 -29 25 -53 30 -75 15z m59 -47 c7 -9 13 -40 13 -70 1
-42 -4 -58 -21 -75 -21 -21 -23 -21 -47 -5 -23 14 -26 23 -26 72 0 30 5 64 10
75 13 23 53 25 71 3z"/>
<path d="M21686 13724 c-10 -25 -7 -84 4 -84 6 0 10 23 10 50 0 52 -4 61 -14
34z"/>
<path d="M32310 13734 c0 -3 12 -28 28 -55 l27 -50 -32 -59 c-38 -67 -38 -70
-18 -70 9 0 28 20 43 45 15 25 29 45 32 45 4 0 16 -20 28 -45 12 -25 29 -45
37 -45 22 0 19 16 -16 76 l-30 54 31 55 c30 52 30 55 11 55 -14 0 -27 -11 -38
-35 -9 -19 -20 -35 -25 -35 -5 0 -16 16 -25 35 -10 21 -24 35 -35 35 -10 0
-18 -3 -18 -6z"/>
<path d="M32510 13620 c0 -151 12 -157 73 -34 l42 85 5 -83 c4 -65 8 -83 20
-83 12 0 16 21 18 118 3 112 2 117 -18 117 -15 0 -31 -21 -64 -87 l-45 -88 0
88 c-1 70 -4 87 -16 87 -12 0 -15 -20 -15 -120z"/>
<path d="M32712 13623 l3 -118 29 -3 c42 -5 93 6 111 24 17 18 20 75 5 90 -8
8 -8 19 0 38 7 21 7 35 -2 54 -12 25 -19 27 -81 30 l-68 3 3 -118z m109 71
c19 -23 -1 -48 -40 -52 -30 -3 -31 -2 -31 32 0 33 2 36 29 36 16 0 34 -7 42
-16z m10 -100 c20 -24 -1 -48 -45 -52 -35 -3 -36 -2 -36 32 0 34 2 36 34 36
18 0 39 -7 47 -16z"/>
<path d="M7620 13720 c-9 -6 -10 -10 -3 -10 6 0 15 5 18 10 8 12 4 12 -15 0z"/>
<path d="M19739 13653 c-13 -16 -12 -17 4 -4 16 13 21 21 13 21 -2 0 -10 -8
-17 -17z"/>
<path d="M19679 13573 c-23 -32 -54 -73 -67 -90 -13 -18 -22 -33 -19 -33 2 0
24 26 48 58 23 31 54 72 67 90 13 17 22 32 19 32 -2 0 -24 -26 -48 -57z"/>
<path d="M20030 13443 c0 -21 -7 -51 -15 -67 -17 -32 -20 -76 -5 -76 6 0 10 9
10 20 0 17 7 20 44 20 34 0 46 -4 49 -17 3 -10 3 2 1 26 -2 24 -4 63 -4 87 l0
44 -40 0 c-40 0 -40 0 -40 -37z m60 -33 c0 -48 -1 -50 -28 -50 l-29 0 11 50
c7 38 14 50 28 50 15 0 18 -8 18 -50z"/>
<path d="M20142 13413 c2 -36 8 -68 13 -70 6 -2 23 20 37 49 l27 53 0 -52 c1
-29 6 -53 11 -53 6 0 10 30 10 70 0 85 -15 92 -50 23 l-25 -48 -3 48 c-5 74
-23 56 -20 -20z"/>
<path d="M20260 13383 c0 -55 4 -93 10 -93 6 0 10 14 10 31 0 26 3 29 21 24
30 -10 59 21 59 62 0 56 -15 73 -60 71 l-40 -1 0 -94z m78 39 c3 -32 -11 -62
-29 -62 -16 0 -30 42 -24 71 5 24 12 29 28 27 17 -2 23 -11 25 -36z"/>
<path d="M20390 13461 c-27 -52 2 -125 47 -119 27 3 53 32 40 44 -4 4 -14 -1
-22 -12 -11 -15 -18 -17 -31 -8 -34 20 -28 34 15 34 38 0 41 2 41 28 0 15 -5
33 -12 40 -19 19 -66 15 -78 -7z m68 -18 c2 -9 -7 -13 -27 -13 -23 0 -29 4
-24 16 6 17 44 15 51 -3z"/>
<path d="M20510 13408 c0 -69 14 -86 22 -28 4 25 4 25 21 -7 24 -46 42 -41 18
5 -24 48 -12 82 31 82 28 0 28 -1 28 -60 0 -33 4 -60 10 -60 6 0 10 27 10 60
0 47 3 60 15 60 8 0 15 5 15 10 0 6 -27 10 -60 10 -58 0 -60 -1 -74 -32 l-14
-33 -1 33 c-1 17 -5 32 -11 32 -6 0 -10 -31 -10 -72z"/>
<path d="M20707 13462 c-36 -39 -10 -122 38 -122 13 0 31 10 39 22 47 66 -25
158 -77 100z m67 -24 c13 -22 -3 -72 -26 -76 -23 -4 -41 33 -33 69 5 23 12 29
27 27 12 -2 26 -11 32 -20z"/>
<path d="M20820 13383 c0 -55 4 -93 10 -93 6 0 10 13 10 29 0 24 3 28 24 24
43 -9 73 67 46 118 -8 14 -20 18 -50 17 l-40 -1 0 -94z m74 61 c18 -48 -9 -99
-39 -74 -27 23 -16 90 15 90 10 0 21 -7 24 -16z"/>
<path d="M20950 13465 c-16 -19 -5 -34 12 -17 17 17 48 15 48 -3 0 -9 -12 -18
-30 -22 -37 -7 -55 -35 -40 -62 8 -15 20 -19 53 -18 l43 2 -4 55 c-2 30 -5 61
-7 68 -6 17 -60 15 -75 -3z m58 -77 c-4 -31 -48 -39 -48 -9 0 17 12 25 43 30
5 0 7 -9 5 -21z"/>
<path d="M17706 13303 c-8 -121 -19 -171 -41 -187 -23 -17 -18 -109 8 -114 14
-3 17 4 17 37 l0 41 85 0 85 0 0 -41 c0 -33 3 -40 18 -37 24 4 31 105 8 114
-13 5 -16 29 -16 145 l0 139 -79 0 -78 0 -7 -97z m124 -63 l0 -120 -56 0 -56
0 6 28 c4 15 9 69 13 120 l6 92 43 0 44 0 0 -120z"/>
<path d="M8265 13380 c-3 -6 1 -7 9 -4 18 7 21 14 7 14 -6 0 -13 -4 -16 -10z"/>
<path d="M19595 13363 c27 -43 56 -72 102 -104 65 -45 62 -34 -4 15 -33 24
-70 60 -82 80 -13 20 -25 36 -28 36 -3 0 3 -12 12 -27z"/>
<path d="M8229 13353 c-13 -16 -12 -17 4 -4 16 13 21 21 13 21 -2 0 -10 -8
-17 -17z"/>
<path d="M8390 13308 c41 -45 50 -53 50 -45 0 2 -21 23 -47 47 l-48 45 45 -47z"/>
<path d="M8189 13323 c-13 -16 -12 -17 4 -4 16 13 21 21 13 21 -2 0 -10 -8
-17 -17z"/>
<path d="M18187 13303 c-11 -11 -17 -13 -17 -5 0 7 -7 12 -15 12 -13 0 -15
-24 -15 -160 0 -153 1 -160 20 -160 17 0 20 7 20 50 0 48 1 50 21 40 49 -27
109 36 109 114 0 95 -72 159 -123 109z m61 -29 c18 -13 22 -25 22 -73 0 -31
-6 -65 -13 -75 -18 -25 -58 -17 -75 14 -16 31 -8 107 15 132 20 22 23 22 51 2z"/>
<path d="M18387 13309 c-27 -16 -47 -64 -47 -114 0 -83 46 -134 109 -120 31 7
61 38 61 62 0 20 -28 15 -40 -7 -7 -13 -21 -20 -39 -20 -31 0 -45 12 -55 48
-7 21 -5 22 64 22 81 0 89 8 70 65 -21 65 -74 92 -123 64z m83 -48 c18 -35 12
-41 -45 -41 -56 0 -62 9 -32 48 15 19 65 15 77 -7z"/>
<path d="M18909 13291 c-25 -26 -29 -37 -29 -86 0 -68 19 -108 59 -124 74 -31
136 50 117 155 -15 79 -93 109 -147 55z m101 -30 c18 -34 12 -116 -9 -135 -26
-23 -62 -17 -79 14 -15 29 -10 103 8 125 18 22 67 19 80 -4z"/>
<path d="M19152 13311 c-7 -4 -24 -6 -38 -3 l-24 4 0 -161 c0 -154 1 -161 20
-161 17 0 20 7 20 50 0 48 1 49 23 39 32 -15 73 3 93 42 12 23 15 49 12 92 -4
50 -9 64 -32 84 -28 24 -52 29 -74 14z m54 -42 c23 -25 26 -118 5 -143 -18
-22 -58 -20 -71 3 -18 35 -12 119 10 141 25 25 32 25 56 -1z"/>
<path d="M8149 13293 c-13 -16 -12 -17 4 -4 9 7 17 15 17 17 0 8 -8 3 -21 -13z"/>
<path d="M17930 13195 c0 -108 1 -115 20 -115 15 0 31 22 64 88 l45 87 0 -87
c1 -71 4 -88 16 -88 12 0 15 19 15 115 0 108 -1 115 -20 115 -15 0 -30 -20
-59 -77 l-40 -78 -1 78 c0 70 -2 77 -20 77 -19 0 -20 -7 -20 -115z"/>
<path d="M18560 13195 c0 -96 3 -115 15 -115 11 0 15 12 15 51 0 63 16 62 47
-4 16 -33 29 -47 43 -47 20 0 20 0 -1 43 -12 23 -28 49 -35 58 -12 14 -12 20
1 45 8 16 15 35 15 42 0 6 7 12 15 12 8 0 15 7 15 16 0 10 -7 14 -22 12 -17
-2 -27 -15 -38 -45 -21 -63 -40 -64 -40 -3 0 38 -4 50 -15 50 -12 0 -15 -19
-15 -115z"/>
<path d="M18700 13295 c0 -10 10 -15 30 -15 l30 0 0 -100 c0 -93 1 -100 20
-100 19 0 20 7 20 100 l0 100 30 0 c20 0 30 5 30 15 0 12 -16 15 -80 15 -64 0
-80 -3 -80 -15z"/>
<path d="M8109 13263 c-13 -16 -12 -17 4 -4 16 13 21 21 13 21 -2 0 -10 -8
-17 -17z"/>
<path d="M8069 13233 c-13 -16 -12 -17 4 -4 16 13 21 21 13 21 -2 0 -10 -8
-17 -17z"/>
<path d="M8456 13217 c3 -10 9 -15 12 -12 3 3 0 11 -7 18 -10 9 -11 8 -5 -6z"/>
<path d="M7985 13174 c-33 -25 -64 -50 -70 -56 -12 -14 69 43 110 77 50 41 24
27 -40 -21z"/>
<path d="M16608 13133 c5 -71 22 -95 22 -32 0 24 3 54 6 67 5 17 2 22 -13 22
-18 0 -19 -6 -15 -57z"/>
<path d="M22281 13148 c1 -24 5 -56 9 -73 l8 -30 1 35 c1 19 4 52 7 73 5 30 4
37 -10 37 -12 0 -16 -9 -15 -42z"/>
<path d="M7879 13093 c-13 -16 -12 -17 4 -4 16 13 21 21 13 21 -2 0 -10 -8
-17 -17z"/>
<path d="M31580 12490 c20 -13 90 -13 90 0 0 6 -24 10 -52 10 -38 0 -49 -3
-38 -10z"/>
<path d="M6436 12088 c-14 -13 -28 -35 -32 -50 -5 -25 -3 -28 18 -28 17 0 29
8 37 26 21 46 70 13 57 -39 -3 -14 -24 -47 -46 -72 -47 -54 -70 -95 -70 -125
0 -19 6 -20 85 -20 l85 0 0 30 c0 29 -1 30 -51 30 l-51 0 34 41 c56 69 68 92
68 137 0 80 -77 120 -134 70z"/>
<path d="M6645 12086 c-29 -30 -38 -74 -33 -170 4 -85 27 -129 71 -134 65 -8
97 46 97 163 0 43 -6 90 -14 110 -25 58 -80 72 -121 31z m63 -34 c16 -11 26
-126 15 -177 -7 -29 -14 -40 -28 -40 -26 0 -38 53 -32 136 5 85 14 100 45 81z"/>
<path d="M6845 12085 c-33 -33 -34 -75 -1 -75 15 0 26 7 29 20 8 29 37 37 54
14 19 -26 9 -59 -36 -113 -49 -59 -81 -111 -81 -133 0 -16 11 -18 90 -18 l90
0 0 29 c0 29 -2 30 -51 33 l-52 3 38 45 c69 82 81 154 34 201 -28 28 -84 25
-114 -6z"/>
<path d="M32120 11886 c0 -12 9 -16 43 -15 23 1 56 5 72 9 29 7 29 8 4 9 -14
0 -47 4 -73 7 -38 6 -46 4 -46 -10z"/>
<path d="M6277 11563 c-12 -21 -98 -315 -93 -320 14 -14 34 9 45 52 l12 46 56
-3 57 -3 15 -47 c10 -34 20 -48 33 -48 10 0 18 6 17 13 0 6 -24 80 -52 162
-36 105 -57 151 -69 153 -9 2 -18 -1 -21 -5z m63 -185 c0 -4 -21 -8 -46 -8
-39 0 -45 2 -40 17 4 9 15 43 24 75 l17 58 22 -67 c13 -37 23 -71 23 -75z"/>
<path d="M6450 11315 c0 -140 2 -165 15 -165 11 0 15 13 15 54 l0 55 26 -14
c51 -26 99 16 110 95 12 90 -42 157 -107 133 -16 -6 -29 -7 -29 -2 0 5 -7 9
-15 9 -13 0 -15 -25 -15 -165z m112 118 c23 -21 25 -109 2 -141 -34 -49 -84
-10 -84 66 0 47 23 92 48 92 8 0 24 -7 34 -17z"/>
<path d="M6640 11475 c0 -2 14 -27 30 -55 17 -28 30 -53 30 -56 0 -3 -16 -32
-35 -65 -34 -58 -34 -59 -12 -59 17 0 29 12 46 47 l23 48 24 -48 c17 -32 31
-47 44 -47 26 0 26 0 -11 62 -18 29 -32 58 -32 63 0 6 12 29 26 52 30 48 33
63 13 63 -8 0 -25 -19 -39 -42 l-25 -42 -21 42 c-14 28 -28 42 -41 42 -11 0
-20 -2 -20 -5z"/>
<path d="M6847 11474 c-4 -4 -7 -58 -7 -121 0 -106 1 -113 20 -113 15 0 31 22
64 88 l45 87 0 -87 c1 -71 4 -88 16 -88 13 0 15 20 15 121 0 109 -2 120 -17
117 -11 -2 -36 -36 -60 -83 l-42 -80 -3 79 c-3 73 -13 98 -31 80z"/>
<path d="M7050 11360 l0 -120 60 0 c47 0 64 4 80 20 23 23 26 58 6 85 -10 14
-11 25 -4 41 15 33 2 73 -28 84 -14 6 -45 10 -70 10 l-44 0 0 -120z m108 53
c-3 -24 -8 -28 -40 -31 -36 -3 -38 -2 -38 27 0 30 2 31 41 31 38 0 40 -1 37
-27z m10 -104 c3 -28 -15 -39 -65 -39 -20 0 -23 5 -23 36 l0 35 43 -3 c37 -3
42 -6 45 -29z"/>
<path d="M31751 10044 c-25 -32 -27 -60 -5 -68 26 -10 32 -7 38 19 9 35 53 35
62 1 7 -29 -6 -55 -56 -116 -38 -45 -70 -100 -70 -120 0 -6 34 -10 90 -10 l90
0 0 30 c0 29 -1 30 -51 30 l-51 0 40 48 c21 26 44 57 51 69 17 34 13 87 -10
117 -16 21 -29 26 -64 26 -35 0 -48 -5 -64 -26z"/>
<path d="M31988 10028 c-22 -24 -38 -50 -38 -64 0 -28 7 -30 38 -8 l22 15 0
-110 0 -111 30 0 30 0 0 160 c0 160 0 160 -22 159 -13 -1 -40 -20 -60 -41z"/>
<path d="M32170 10040 c-46 -64 -35 -239 17 -280 35 -27 59 -25 93 8 35 36 48
118 32 205 -14 75 -33 97 -83 97 -30 0 -42 -6 -59 -30z m84 -36 c3 -9 6 -51 6
-94 0 -91 -5 -110 -30 -110 -25 0 -30 19 -30 110 0 91 5 110 30 110 10 0 21
-7 24 -16z"/>
<path d="M31156 9378 c-57 -182 -55 -171 -34 -175 12 -3 20 8 30 44 l14 48 59
0 58 0 15 -43 c13 -40 35 -62 48 -49 3 3 -18 78 -47 166 -47 140 -56 161 -75
161 -18 0 -27 -19 -68 -152z m72 -36 c-22 -2 -42 -2 -44 0 -1 2 7 35 18 73
l22 70 22 -70 22 -70 -40 -3z"/>
<path d="M32200 9437 c-35 -18 -50 -53 -50 -120 0 -51 4 -62 29 -88 76 -75
167 5 148 129 -4 24 -17 47 -37 65 -33 30 -53 33 -90 14z m72 -44 c26 -24 25
-116 -2 -143 -25 -25 -32 -25 -61 -1 -20 16 -24 29 -24 74 0 31 6 61 14 70 17
22 49 22 73 0z"/>
<path d="M32422 9441 c-7 -4 -24 -6 -38 -3 l-25 4 3 -163 c3 -138 5 -164 18
-164 11 0 16 15 20 55 3 33 8 50 13 43 13 -21 54 -15 84 11 26 23 28 29 28
101 0 72 -2 78 -28 101 -29 25 -53 30 -75 15z m59 -47 c7 -9 13 -40 13 -70 1
-42 -4 -58 -21 -75 -21 -21 -23 -21 -47 -5 -23 14 -26 23 -26 72 0 30 5 64 10
75 13 23 53 25 71 3z"/>
<path d="M31365 9418 c4 -13 20 -66 37 -118 25 -78 28 -100 19 -122 -7 -18
-18 -28 -31 -28 -29 0 -22 -34 7 -38 32 -5 47 26 93 178 45 151 45 150 26 150
-8 0 -24 -33 -41 -87 l-28 -88 -26 87 c-20 69 -30 88 -44 88 -14 0 -17 -5 -12
-22z"/>
<path d="M31586 9378 c-9 -80 -24 -138 -36 -138 -6 0 -10 -22 -10 -50 0 -38 4
-50 15 -50 10 0 15 10 15 30 l0 30 75 0 75 0 0 -30 c0 -16 5 -30 10 -30 6 0
10 23 10 50 0 28 -4 50 -10 50 -6 0 -10 40 -10 100 l0 100 -64 0 -63 0 -7 -62z
m104 -53 l0 -85 -51 0 c-40 0 -50 3 -46 14 5 13 9 35 23 124 4 29 8 32 39 32
l35 0 0 -85z"/>
<path d="M31780 9319 c0 -109 2 -120 18 -117 10 2 35 36 59 83 l42 80 3 -80
c2 -63 6 -80 18 -80 12 0 16 21 18 118 3 112 2 117 -18 117 -15 0 -31 -21 -64
-87 l-45 -88 0 88 c-1 70 -4 87 -16 87 -13 0 -15 -20 -15 -121z"/>
<path d="M31970 9425 c0 -10 10 -15 30 -15 l29 0 3 -102 c2 -84 6 -103 18
-103 12 0 16 19 18 103 l3 102 29 0 c20 0 30 5 30 15 0 12 -16 15 -80 15 -64
0 -80 -3 -80 -15z"/>
<path d="M32572 9323 c4 -148 15 -152 78 -33 l45 85 3 -87 c2 -69 6 -88 17
-88 12 0 15 21 15 120 0 108 -2 120 -18 120 -12 0 -31 -26 -59 -82 l-42 -83 0
83 c-1 76 -3 82 -21 82 -20 0 -21 -5 -18 -117z"/>
<path d="M32797 9428 c-9 -7 -20 -27 -23 -45 -5 -25 -1 -37 18 -56 l25 -25
-28 -45 c-15 -25 -25 -48 -22 -51 15 -15 34 -3 53 34 19 37 45 60 69 60 6 0
11 -21 11 -50 0 -38 4 -50 15 -50 13 0 15 20 15 120 l0 120 -58 0 c-32 0 -66
-6 -75 -12z m103 -58 c0 -39 -1 -40 -33 -40 -38 0 -57 15 -57 46 0 25 12 32
58 33 31 1 32 0 32 -39z"/>
<path d="M30393 8984 l-28 -25 33 22 c17 13 32 24 32 26 0 8 -11 1 -37 -23z"/>
<path d="M30309 8903 c-13 -16 -12 -17 4 -4 16 13 21 21 13 21 -2 0 -10 -8
-17 -17z"/>
<path d="M30270 8833 c0 -6 8 -17 18 -24 16 -13 16 -13 2 6 -8 11 -16 22 -17
24 -2 2 -3 0 -3 -6z"/>
<path d="M30300 8786 c0 -2 8 -10 18 -17 15 -13 16 -12 3 4 -13 16 -21 21 -21
13z"/>
<path d="M30330 8746 c0 -2 8 -10 18 -17 15 -13 16 -12 3 4 -13 16 -21 21 -21
13z"/>
<path d="M30390 8666 c19 -26 39 -50 44 -54 5 -3 -6 16 -24 42 -19 26 -39 50
-44 54 -5 3 6 -16 24 -42z"/>
<path d="M30440 8596 c0 -2 8 -10 18 -17 15 -13 16 -12 3 4 -13 16 -21 21 -21
13z"/>
<path d="M30470 8556 c0 -2 8 -10 18 -17 15 -13 16 -12 3 4 -13 16 -21 21 -21
13z"/>
<path d="M30500 8516 c0 -2 8 -10 18 -17 15 -13 16 -12 3 4 -13 16 -21 21 -21
13z"/>
<path d="M30530 8476 c0 -2 8 -10 18 -17 15 -13 16 -12 3 4 -13 16 -21 21 -21
13z"/>
<path d="M31759 6337 c-20 -15 -39 -51 -39 -71 0 -27 45 -20 58 9 16 34 50 33
58 -1 8 -32 -3 -56 -58 -124 -44 -53 -72 -112 -61 -124 4 -3 44 -6 90 -6 l83
0 0 30 c0 29 -2 30 -45 30 -25 0 -45 4 -45 10 0 5 13 24 28 42 52 60 62 81 62
128 0 36 -5 52 -23 68 -26 25 -82 29 -108 9z"/>
<path d="M32002 6326 c-6 -14 -23 -32 -37 -42 -15 -10 -25 -26 -25 -40 0 -27
21 -32 40 -9 25 30 30 13 30 -100 l0 -115 25 0 25 0 0 165 0 165 -23 0 c-16 0
-28 -9 -35 -24z"/>
<path d="M32210 6325 c-7 -14 -24 -32 -37 -40 -16 -11 -23 -25 -23 -46 l0 -30
30 21 29 21 3 -113 3 -113 25 0 25 0 3 163 2 162 -23 0 c-15 0 -29 -9 -37 -25z"/>
<path d="M31170 5786 c-29 -76 -93 -297 -87 -302 15 -15 35 8 46 51 l12 46 56
-3 57 -3 15 -47 c10 -34 20 -48 33 -48 10 0 18 3 18 8 1 4 -23 78 -52 164 -42
125 -57 158 -71 158 -10 0 -22 -11 -27 -24z m64 -143 c7 -22 4 -23 -37 -23
l-45 0 22 69 21 70 16 -47 c9 -26 19 -57 23 -69z"/>
<path d="M31334 5703 c4 -10 21 -64 38 -120 27 -85 30 -106 20 -127 -7 -16
-20 -26 -32 -26 -22 0 -25 -7 -11 -29 6 -9 18 -11 35 -7 23 6 30 20 71 154 26
81 48 153 50 160 3 6 -4 12 -14 12 -14 0 -23 -18 -41 -85 -13 -47 -27 -85 -31
-85 -5 0 -9 6 -9 13 0 6 -10 45 -21 85 -18 58 -26 72 -42 72 -14 0 -17 -5 -13
-17z"/>
<path d="M31560 5682 c0 -62 -19 -146 -35 -158 -19 -14 -22 -118 -2 -112 6 3
13 19 15 36 l3 32 75 0 74 0 0 -36 c0 -24 4 -34 13 -32 16 6 21 76 8 102 -6
12 -12 62 -13 111 l-3 90 -67 3 -68 3 0 -39z m100 -82 l0 -80 -48 0 -48 0 15
80 15 80 33 0 33 0 0 -80z"/>
<path d="M31750 5601 c0 -109 2 -121 18 -121 12 0 31 27 62 88 l45 87 3 -87
c2 -69 6 -88 17 -88 12 0 15 21 15 120 0 109 -2 120 -18 120 -13 0 -30 -24
-57 -81 l-40 -81 -5 78 c-4 65 -8 79 -22 82 -16 3 -18 -8 -18 -117z"/>
<path d="M31942 5703 c2 -11 14 -19 30 -21 l27 -3 3 -97 c3 -83 6 -97 21 -100
15 -3 17 7 17 97 l0 100 27 3 c17 2 29 10 31 21 3 15 -6 17 -78 17 -72 0 -81
-2 -78 -17z"/>
<path d="M32149 5694 c-21 -22 -24 -35 -24 -96 0 -64 2 -72 28 -94 38 -33 86
-32 118 2 21 22 24 35 24 94 0 85 -25 120 -85 120 -26 0 -43 -7 -61 -26z m96
-24 c38 -42 16 -160 -30 -160 -7 0 -23 8 -36 19 -46 37 -23 161 31 161 9 0 25
-9 35 -20z"/>
<path d="M32340 5555 c0 -140 2 -165 15 -165 12 0 15 13 15 57 0 44 3 54 12
45 17 -17 64 -15 82 4 45 44 54 145 19 192 -22 30 -75 41 -99 21 -10 -8 -14
-8 -14 0 0 6 -7 11 -15 11 -13 0 -15 -25 -15 -165z m114 113 c48 -69 -15 -201
-66 -138 -37 46 -15 160 32 160 10 0 26 -10 34 -22z"/>
<path d="M32544 5707 c-2 -7 -3 -60 -2 -118 3 -88 6 -104 20 -107 13 -2 29 20
62 85 l45 88 0 -87 c1 -71 4 -88 16 -88 13 0 15 20 15 120 0 108 -2 120 -18
120 -12 0 -31 -26 -59 -82 l-42 -83 0 83 c-1 67 -4 82 -16 82 -9 0 -18 -6 -21
-13z"/>
<path d="M32770 5702 c-30 -24 -31 -75 -2 -104 l20 -21 -24 -38 c-29 -46 -30
-59 -6 -59 10 0 27 18 41 45 18 34 30 45 47 45 22 0 24 -4 24 -46 0 -38 3 -45
18 -42 15 3 17 17 17 118 l0 115 -56 3 c-43 2 -61 -1 -79 -16z m100 -58 c0
-34 -1 -35 -36 -32 -71 6 -74 68 -4 68 39 0 40 -1 40 -36z"/>
<path d="M30425 5140 c-3 -6 1 -7 9 -4 18 7 21 14 7 14 -6 0 -13 -4 -16 -10z"/>
<path d="M30389 5113 c-13 -16 -12 -17 4 -4 9 7 17 15 17 17 0 8 -8 3 -21 -13z"/>
<path d="M30339 5073 l-24 -28 28 24 c15 14 27 26 27 28 0 8 -8 1 -31 -24z"/>
<path d="M30310 4906 c19 -26 39 -50 44 -54 5 -3 -6 16 -24 42 -19 26 -39 50
-44 54 -5 3 6 -16 24 -42z"/>
<path d="M30360 4836 c0 -2 8 -10 18 -17 15 -13 16 -12 3 4 -13 16 -21 21 -21
13z"/>
<path d="M30390 4796 c0 -2 8 -10 18 -17 15 -13 16 -12 3 4 -13 16 -21 21 -21
13z"/>
<path d="M30450 4716 c19 -26 39 -50 44 -54 5 -3 -6 16 -24 42 -19 26 -39 50
-44 54 -5 3 6 -16 24 -42z"/>
<path d="M30500 4646 c0 -2 8 -10 18 -17 15 -13 16 -12 3 4 -13 16 -21 21 -21
13z"/>
<path d="M30530 4606 c0 -2 8 -10 18 -17 15 -13 16 -12 3 4 -13 16 -21 21 -21
13z"/>
<path d="M30393 3684 l-28 -25 33 22 c17 13 32 24 32 26 0 8 -11 1 -37 -23z"/>
<path d="M30309 3603 c-13 -16 -12 -17 4 -4 16 13 21 21 13 21 -2 0 -10 -8
-17 -17z"/>
<path d="M30270 3533 c0 -6 8 -17 18 -24 16 -13 16 -13 2 6 -8 11 -16 22 -17
24 -2 2 -3 0 -3 -6z"/>
<path d="M30300 3486 c0 -2 8 -10 18 -17 15 -13 16 -12 3 4 -13 16 -21 21 -21
13z"/>
<path d="M30330 3446 c0 -2 8 -10 18 -17 15 -13 16 -12 3 4 -13 16 -21 21 -21
13z"/>
<path d="M30390 3366 c19 -26 39 -50 44 -54 5 -3 -6 16 -24 42 -19 26 -39 50
-44 54 -5 3 6 -16 24 -42z"/>
<path d="M30440 3296 c0 -2 8 -10 18 -17 15 -13 16 -12 3 4 -13 16 -21 21 -21
13z"/>
<path d="M30470 3256 c0 -2 8 -10 18 -17 15 -13 16 -12 3 4 -13 16 -21 21 -21
13z"/>
<path d="M30500 3216 c0 -2 8 -10 18 -17 15 -13 16 -12 3 4 -13 16 -21 21 -21
13z"/>
<path d="M30530 3176 c0 -2 8 -10 18 -17 15 -13 16 -12 3 4 -13 16 -21 21 -21
13z"/>
<path d="M29939 3003 c-13 -16 -12 -17 4 -4 16 13 21 21 13 21 -2 0 -10 -8
-17 -17z"/>
<path d="M29899 2973 c-13 -16 -12 -17 4 -4 9 7 17 15 17 17 0 8 -8 3 -21 -13z"/>
<path d="M30090 2955 c19 -19 36 -35 39 -35 3 0 -10 16 -29 35 -19 19 -36 35
-39 35 -3 0 10 -16 29 -35z"/>
<path d="M29859 2943 c-13 -16 -12 -17 4 -4 9 7 17 15 17 17 0 8 -8 3 -21 -13z"/>
<path d="M29775 2884 c-33 -25 -64 -50 -70 -56 -12 -14 69 43 110 77 50 41 24
27 -40 -21z"/>
<path d="M30156 2867 c3 -10 9 -15 12 -12 3 3 0 11 -7 18 -10 9 -11 8 -5 -6z"/>
<path d="M29669 2803 c-13 -16 -12 -17 4 -4 16 13 21 21 13 21 -2 0 -10 -8
-17 -17z"/>
<path d="M29629 2773 c-13 -16 -12 -17 4 -4 16 13 21 21 13 21 -2 0 -10 -8
-17 -17z"/>
<path d="M29589 2743 c-13 -16 -12 -17 4 -4 16 13 21 21 13 21 -2 0 -10 -8
-17 -17z"/>
<path d="M31745 2565 c-33 -33 -34 -75 -1 -75 15 0 26 7 29 20 7 29 37 37 53
15 20 -27 18 -38 -21 -91 -124 -172 -124 -174 -5 -174 l90 0 0 29 c0 29 -2 30
-51 33 l-52 3 37 44 c67 80 80 125 51 180 -25 49 -90 57 -130 16z"/>
<path d="M32010 2581 c0 -6 -16 -26 -36 -46 -25 -26 -34 -43 -32 -61 l3 -26
28 22 27 21 0 -116 0 -116 28 3 27 3 0 160 c0 158 0 160 -22 163 -13 2 -23 -1
-23 -7z"/>
<path d="M32159 2561 c-37 -37 -39 -71 -5 -71 15 0 27 7 31 19 13 41 65 32 65
-11 0 -27 -17 -56 -57 -102 -37 -40 -75 -115 -67 -128 3 -4 43 -8 90 -8 l84 0
0 30 c0 29 -1 30 -51 30 l-51 0 34 41 c56 69 68 92 68 137 0 86 -81 122 -141
63z"/>
<path d="M31195 2041 c-3 -6 -26 -75 -51 -153 -24 -79 -46 -149 -49 -155 -2
-8 4 -13 15 -13 15 0 23 12 33 48 l14 47 56 3 55 3 17 -51 c12 -37 22 -50 36
-50 10 0 19 3 19 8 0 4 -25 77 -54 162 -51 147 -72 181 -91 151z m59 -168 c7
-22 4 -23 -38 -23 -25 0 -46 4 -46 8 0 4 10 37 22 72 l21 64 17 -49 c9 -28 20
-60 24 -72z"/>
<path d="M31350 1954 c0 -3 16 -58 36 -121 29 -94 34 -120 25 -139 -6 -14 -19
-24 -31 -24 -22 0 -29 -35 -7 -43 26 -9 46 7 65 51 28 67 86 271 79 278 -13
14 -27 -11 -53 -94 l-26 -87 -24 84 c-14 46 -27 88 -30 93 -6 9 -34 11 -34 2z"/>
<path d="M31575 1886 c-3 -41 -15 -92 -26 -113 -22 -43 -26 -127 -6 -121 6 3
13 19 15 36 l3 32 75 0 74 0 0 -35 c0 -19 5 -35 10 -35 6 0 10 22 10 49 0 28
-4 53 -10 56 -6 3 -10 50 -10 106 l0 99 -64 0 -64 0 -7 -74z m105 -51 l0 -85
-51 0 c-44 0 -50 2 -45 17 4 9 9 38 12 63 10 88 11 90 49 90 l35 0 0 -85z"/>
<path d="M31770 1840 c0 -108 2 -120 18 -120 12 0 31 26 59 83 l42 82 0 -82
c1 -77 3 -83 21 -83 20 0 21 5 18 117 -4 152 -16 158 -78 36 l-45 -88 -3 88
c-2 68 -6 87 -17 87 -12 0 -15 -21 -15 -120z"/>
<path d="M31960 1940 c0 -16 6 -20 30 -20 l30 0 0 -100 c0 -93 1 -100 20 -100
19 0 20 7 20 99 l0 100 28 3 c16 2 27 9 27 18 0 12 -17 16 -77 18 -73 3 -78 1
-78 -18z"/>
<path d="M32179 1947 c-27 -21 -39 -54 -39 -107 0 -64 21 -105 60 -119 38 -13
73 -1 95 33 37 56 27 159 -18 191 -26 18 -76 19 -98 2z m81 -37 c27 -27 28
-108 2 -140 -52 -64 -122 44 -81 123 22 42 48 48 79 17z"/>
<path d="M32357 1953 c-4 -3 -7 -78 -7 -165 0 -151 1 -158 20 -158 17 0 20 7
20 50 0 54 1 55 30 40 26 -14 62 4 83 40 33 55 15 177 -28 194 -25 9 -60 7
-72 -5 -8 -8 -13 -8 -17 0 -8 12 -20 14 -29 4z m107 -38 c37 -38 25 -155 -18
-163 -34 -7 -56 27 -56 86 0 78 36 115 74 77z"/>
<path d="M32567 1954 c-4 -4 -7 -58 -7 -121 0 -106 1 -113 20 -113 15 0 31 22
64 88 l45 87 0 -87 c1 -71 4 -88 16 -88 13 0 15 20 15 121 0 109 -2 120 -17
117 -11 -2 -36 -36 -60 -83 l-42 -80 -3 79 c-3 73 -13 98 -31 80z"/>
<path d="M32785 1935 c-31 -30 -32 -69 -2 -99 21 -21 22 -26 10 -42 -8 -11
-21 -31 -29 -46 -14 -27 -13 -28 8 -28 17 0 29 12 47 45 18 34 30 45 47 45 22
0 24 -4 24 -45 0 -33 4 -45 15 -45 13 0 15 20 15 120 l0 120 -55 0 c-46 0 -60
-4 -80 -25z m105 -51 l0 -35 -42 3 c-32 2 -44 8 -46 21 -7 35 6 47 48 47 39 0
40 -1 40 -36z"/>
<path d="M29641 1634 c-25 -32 -27 -60 -5 -68 26 -10 32 -7 38 19 9 35 53 35
62 1 7 -29 -6 -55 -56 -116 -38 -45 -70 -100 -70 -120 0 -6 34 -10 90 -10 l90
0 0 30 c0 29 -1 30 -51 30 l-51 0 40 48 c21 26 44 57 51 69 17 34 13 87 -10
117 -16 21 -29 26 -64 26 -35 0 -48 -5 -64 -26z"/>
<path d="M29878 1618 c-22 -24 -38 -50 -38 -64 0 -28 7 -30 38 -8 l22 15 0
-110 0 -111 30 0 30 0 0 160 c0 160 0 160 -22 159 -13 -1 -40 -20 -60 -41z"/>
<path d="M30060 1640 c-24 -24 -26 -58 -4 -67 11 -4 23 2 34 17 11 15 23 21
34 17 23 -9 20 -54 -4 -67 -28 -15 -26 -46 4 -54 27 -7 39 -38 26 -72 -12 -29
-45 -32 -60 -4 -11 21 -44 27 -55 10 -8 -13 12 -51 39 -72 78 -64 185 74 113
146 -23 23 -23 24 -5 46 23 28 23 47 -2 88 -17 27 -25 32 -60 32 -27 0 -47 -7
-60 -20z"/>
</g>
</svg>
